<?xml version="1.0" encoding="utf-8"?>
<!-- Generator: Adobe Illustrator 16.0.0, SVG Export Plug-In . SVG Version: 6.00 Build 0)  -->
<!DOCTYPE svg PUBLIC "-//W3C//DTD SVG 1.1//EN" "http://www.w3.org/Graphics/SVG/1.1/DTD/svg11.dtd">
<svg version="1.1" id="Icons" xmlns="http://www.w3.org/2000/svg" xmlns:xlink="http://www.w3.org/1999/xlink" x="0px" y="0px"
	 width="64px" height="64px" viewBox="0 0 64 64" enable-background="new 0 0 64 64" xml:space="preserve">
<g>
	<rect fill="#060743" width="64" height="64"/>
	<rect x="32" y="63" fill="#301E61" width="1" height="1"/>
	<rect x="30" y="63" fill="#17658D" width="1" height="1"/>
	<rect x="7" y="63" fill="#301E61" width="1" height="1"/>
	<rect x="5" y="63" fill="#17658D" width="1" height="1"/>
	<rect x="36" y="62" fill="#232085" width="1" height="1"/>
	<rect x="31" y="62" fill="#17658D" width="1" height="1"/>
	<rect x="30" y="62" fill="#E9E5E1" width="1" height="1"/>
	<rect x="29" y="62" fill="#17658D" width="1" height="1"/>
	<rect x="26" y="62" fill="#3136AA" width="1" height="1"/>
	<rect x="6" y="62" fill="#17658D" width="1" height="1"/>
	<rect x="5" y="62" fill="#E9E5E1" width="1" height="1"/>
	<rect x="4" y="62" fill="#17658D" width="1" height="1"/>
	<rect x="1" y="62" fill="#3136AA" width="1" height="1"/>
	<rect x="53" y="61" fill="#3136AA" width="1" height="1"/>
	<rect x="35" y="61" fill="#232085" width="1" height="1"/>
	<rect x="30" y="61" fill="#17658D" width="1" height="1"/>
	<rect x="27" y="61" fill="#3136AA" width="1" height="1"/>
	<rect x="26" y="61" fill="#6268ED" width="1" height="1"/>
	<rect x="25" y="61" fill="#3136AA" width="1" height="1"/>
	<rect x="21" y="61" fill="#3136AA" width="1" height="1"/>
	<rect x="5" y="61" fill="#17658D" width="1" height="1"/>
	<rect x="2" y="61" fill="#3136AA" width="1" height="1"/>
	<rect x="1" y="61" fill="#6268ED" width="1" height="1"/>
	<rect y="61" fill="#3136AA" width="1" height="1"/>
	<rect x="54" y="60" fill="#3136AA" width="1" height="1"/>
	<rect x="53" y="60" fill="#6268ED" width="1" height="1"/>
	<rect x="52" y="60" fill="#3136AA" width="1" height="1"/>
	<rect x="39" y="60" fill="#2F318D" width="1" height="1"/>
	<rect x="38" y="60" fill="#17658D" width="1" height="1"/>
	<rect x="31" y="60" fill="#301E61" width="1" height="1"/>
	<rect x="26" y="60" fill="#3136AA" width="1" height="1"/>
	<rect x="22" y="60" fill="#3136AA" width="1" height="1"/>
	<rect x="21" y="60" fill="#6268ED" width="1" height="1"/>
	<rect x="20" y="60" fill="#3136AA" width="1" height="1"/>
	<rect x="6" y="60" fill="#301E61" width="1" height="1"/>
	<rect x="1" y="60" fill="#3136AA" width="1" height="1"/>
	<rect x="53" y="59" fill="#3136AA" width="1" height="1"/>
	<rect x="39" y="59" fill="#17658D" width="1" height="1"/>
	<rect x="38" y="59" fill="#E9E5E1" width="1" height="1"/>
	<rect x="37" y="59" fill="#17658D" width="1" height="1"/>
	<rect x="30" y="59" fill="#3B266F" width="1" height="1"/>
	<rect x="21" y="59" fill="#3136AA" width="1" height="1"/>
	<rect x="5" y="59" fill="#3B266F" width="1" height="1"/>
	<rect x="38" y="58" fill="#17658D" width="1" height="1"/>
	<rect x="35" y="58" fill="#301E61" width="1" height="1"/>
	<rect x="29" y="58" fill="#232085" width="1" height="1"/>
	<rect x="4" y="58" fill="#232085" width="1" height="1"/>
	<rect x="63" y="57" fill="#232085" width="1" height="1"/>
	<rect x="58" y="57" fill="#4347B4" width="1" height="1"/>
	<rect x="48" y="57" fill="#232085" width="1" height="1"/>
	<rect x="43" y="57" fill="#4347B4" width="1" height="1"/>
	<rect x="28" y="57" fill="#36298A" width="1" height="1"/>
	<rect x="16" y="57" fill="#232085" width="1" height="1"/>
	<rect x="11" y="57" fill="#4347B4" width="1" height="1"/>
	<rect x="3" y="57" fill="#36298A" width="1" height="1"/>
	<rect x="61" y="56" fill="#17658D" width="1" height="1"/>
	<rect x="46" y="56" fill="#17658D" width="1" height="1"/>
	<rect x="34" y="56" fill="#2F318D" width="1" height="1"/>
	<rect x="27" y="56" fill="#232085" width="1" height="1"/>
	<rect x="14" y="56" fill="#17658D" width="1" height="1"/>
	<rect x="2" y="56" fill="#232085" width="1" height="1"/>
	<rect x="62" y="55" fill="#17658D" width="1" height="1"/>
	<rect x="61" y="55" fill="#E9E5E1" width="1" height="1"/>
	<rect x="60" y="55" fill="#17658D" width="1" height="1"/>
	<rect x="51" y="55" fill="#36298A" width="1" height="1"/>
	<rect x="50" y="55" fill="#36298A" width="1" height="1"/>
	<rect x="47" y="55" fill="#17658D" width="1" height="1"/>
	<rect x="46" y="55" fill="#E9E5E1" width="1" height="1"/>
	<rect x="45" y="55" fill="#17658D" width="1" height="1"/>
	<rect x="19" y="55" fill="#36298A" width="1" height="1"/>
	<rect x="18" y="55" fill="#36298A" width="1" height="1"/>
	<rect x="15" y="55" fill="#17658D" width="1" height="1"/>
	<rect x="14" y="55" fill="#E9E5E1" width="1" height="1"/>
	<rect x="13" y="55" fill="#17658D" width="1" height="1"/>
	<rect x="61" y="54" fill="#17658D" width="1" height="1"/>
	<rect x="51" y="54" fill="#36298A" width="1" height="1"/>
	<rect x="50" y="54" fill="#36298A" width="1" height="1"/>
	<rect x="46" y="54" fill="#17658D" width="1" height="1"/>
	<rect x="37" y="54" fill="#232085" width="1" height="1"/>
	<rect x="19" y="54" fill="#36298A" width="1" height="1"/>
	<rect x="18" y="54" fill="#36298A" width="1" height="1"/>
	<rect x="14" y="54" fill="#17658D" width="1" height="1"/>
	<rect x="31" y="53" fill="#301E61" width="1" height="1"/>
	<rect x="27" y="53" fill="#4347B4" width="1" height="1"/>
	<rect x="6" y="53" fill="#301E61" width="1" height="1"/>
	<rect x="2" y="53" fill="#4347B4" width="1" height="1"/>
	<rect x="37" y="52" fill="#3136AA" width="1" height="1"/>
	<rect x="58" y="51" fill="#232085" width="1" height="1"/>
	<rect x="43" y="51" fill="#232085" width="1" height="1"/>
	<rect x="38" y="51" fill="#3136AA" width="1" height="1"/>
	<rect x="37" y="51" fill="#BBBAE6" width="1" height="1"/>
	<rect x="36" y="51" fill="#3136AA" width="1" height="1"/>
	<rect x="25" y="51" fill="#301E61" width="1" height="1"/>
	<rect x="11" y="51" fill="#232085" width="1" height="1"/>
	<rect y="51" fill="#301E61" width="1" height="1"/>
	<rect x="59" y="50" fill="#232085" width="1" height="1"/>
	<rect x="49" y="50" fill="#2F318D" width="1" height="1"/>
	<rect x="44" y="50" fill="#232085" width="1" height="1"/>
	<rect x="37" y="50" fill="#3136AA" width="1" height="1"/>
	<rect x="17" y="50" fill="#2F318D" width="1" height="1"/>
	<rect x="12" y="50" fill="#232085" width="1" height="1"/>
	<rect x="60" y="49" fill="#232085" width="1" height="1"/>
	<rect x="45" y="49" fill="#232085" width="1" height="1"/>
	<rect x="33" y="49" fill="#2F318D" width="1" height="1"/>
	<rect x="13" y="49" fill="#232085" width="1" height="1"/>
	<rect x="61" y="48" fill="#232085" width="1" height="1"/>
	<rect x="56" y="48" fill="#3136AA" width="1" height="1"/>
	<rect x="52" y="48" fill="#301E61" width="1" height="1"/>
	<rect x="46" y="48" fill="#232085" width="1" height="1"/>
	<rect x="41" y="48" fill="#3136AA" width="1" height="1"/>
	<rect x="20" y="48" fill="#301E61" width="1" height="1"/>
	<rect x="14" y="48" fill="#232085" width="1" height="1"/>
	<rect x="9" y="48" fill="#3136AA" width="1" height="1"/>
	<rect x="57" y="47" fill="#3136AA" width="1" height="1"/>
	<rect x="56" y="47" fill="#BBBAE6" width="1" height="1"/>
	<rect x="42" y="47" fill="#3136AA" width="1" height="1"/>
	<rect x="41" y="47" fill="#BBBAE6" width="1" height="1"/>
	<rect x="40" y="47" fill="#3136AA" width="1" height="1"/>
	<rect x="26" y="47" fill="#6E6550" width="1" height="1"/>
	<rect x="10" y="47" fill="#3136AA" width="1" height="1"/>
	<rect x="9" y="47" fill="#BBBAE6" width="1" height="1"/>
	<rect x="8" y="47" fill="#3136AA" width="1" height="1"/>
	<rect x="1" y="47" fill="#6E6550" width="1" height="1"/>
	<rect x="56" y="46" fill="#3136AA" width="1" height="1"/>
	<rect x="41" y="46" fill="#3136AA" width="1" height="1"/>
	<rect x="31" y="46" fill="#36298A" width="1" height="1"/>
	<rect x="27" y="46" fill="#6E6550" width="1" height="1"/>
	<rect x="26" y="46" fill="#E9E5E1" width="1" height="1"/>
	<rect x="25" y="46" fill="#6E6550" width="1" height="1"/>
	<rect x="9" y="46" fill="#3136AA" width="1" height="1"/>
	<rect x="6" y="46" fill="#36298A" width="1" height="1"/>
	<rect x="2" y="46" fill="#6E6550" width="1" height="1"/>
	<rect x="1" y="46" fill="#E9E5E1" width="1" height="1"/>
	<rect y="46" fill="#6E6550" width="1" height="1"/>
	<rect x="59" y="45" fill="#232085" width="1" height="1"/>
	<rect x="54" y="45" fill="#2F318D" width="1" height="1"/>
	<rect x="44" y="45" fill="#232085" width="1" height="1"/>
	<rect x="31" y="45" fill="#36298A" width="1" height="1"/>
	<rect x="26" y="45" fill="#6E6550" width="1" height="1"/>
	<rect x="22" y="45" fill="#2F318D" width="1" height="1"/>
	<rect x="12" y="45" fill="#232085" width="1" height="1"/>
	<rect x="6" y="45" fill="#36298A" width="1" height="1"/>
	<rect x="1" y="45" fill="#6E6550" width="1" height="1"/>
	<rect x="63" y="43" fill="#2F318D" width="1" height="1"/>
	<rect x="61" y="43" fill="#6E6550" width="1" height="1"/>
	<rect x="48" y="43" fill="#2F318D" width="1" height="1"/>
	<rect x="46" y="43" fill="#6E6550" width="1" height="1"/>
	<rect x="16" y="43" fill="#2F318D" width="1" height="1"/>
	<rect x="14" y="43" fill="#6E6550" width="1" height="1"/>
	<rect x="62" y="42" fill="#6E6550" width="1" height="1"/>
	<rect x="61" y="42" fill="#E9E5E1" width="1" height="1"/>
	<rect x="60" y="42" fill="#6E6550" width="1" height="1"/>
	<rect x="47" y="42" fill="#6E6550" width="1" height="1"/>
	<rect x="46" y="42" fill="#E9E5E1" width="1" height="1"/>
	<rect x="45" y="42" fill="#6E6550" width="1" height="1"/>
	<rect x="37" y="42" fill="#2F318D" width="1" height="1"/>
	<rect x="15" y="42" fill="#6E6550" width="1" height="1"/>
	<rect x="14" y="42" fill="#E9E5E1" width="1" height="1"/>
	<rect x="13" y="42" fill="#6E6550" width="1" height="1"/>
	<rect x="61" y="41" fill="#6E6550" width="1" height="1"/>
	<rect x="46" y="41" fill="#6E6550" width="1" height="1"/>
	<rect x="38" y="41" fill="#2F318D" width="1" height="1"/>
	<rect x="37" y="41" fill="#4347B4" width="1" height="1"/>
	<rect x="36" y="41" fill="#2F318D" width="1" height="1"/>
	<rect x="27" y="41" fill="#232085" width="1" height="1"/>
	<rect x="14" y="41" fill="#6E6550" width="1" height="1"/>
	<rect x="2" y="41" fill="#232085" width="1" height="1"/>
	<rect x="58" y="40" fill="#4347B4" width="1" height="1"/>
	<rect x="43" y="40" fill="#4347B4" width="1" height="1"/>
	<rect x="37" y="40" fill="#2F318D" width="1" height="1"/>
	<rect x="27" y="40" fill="#36298A" width="1" height="1"/>
	<rect x="26" y="40" fill="#232085" width="1" height="1"/>
	<rect x="11" y="40" fill="#4347B4" width="1" height="1"/>
	<rect x="2" y="40" fill="#36298A" width="1" height="1"/>
	<rect x="1" y="40" fill="#232085" width="1" height="1"/>
	<rect x="54" y="39" fill="#3136AA" width="1" height="1"/>
	<rect x="22" y="39" fill="#3136AA" width="1" height="1"/>
	<rect x="55" y="38" fill="#3136AA" width="1" height="1"/>
	<rect x="54" y="38" fill="#BBBAE6" width="1" height="1"/>
	<rect x="53" y="38" fill="#3136AA" width="1" height="1"/>
	<rect x="42" y="38" fill="#17658D" width="1" height="1"/>
	<rect x="23" y="38" fill="#3136AA" width="1" height="1"/>
	<rect x="22" y="38" fill="#BBBAE6" width="1" height="1"/>
	<rect x="21" y="38" fill="#3136AA" width="1" height="1"/>
	<rect x="10" y="38" fill="#17658D" width="1" height="1"/>
	<rect x="62" y="37" fill="#232085" width="1" height="1"/>
	<rect x="61" y="37" fill="#232085" width="1" height="1"/>
	<rect x="54" y="37" fill="#3136AA" width="1" height="1"/>
	<rect x="50" y="37" fill="#232085" width="1" height="1"/>
	<rect x="43" y="37" fill="#17658D" width="1" height="1"/>
	<rect x="42" y="37" fill="#E9E5E1" width="1" height="1"/>
	<rect x="41" y="37" fill="#17658D" width="1" height="1"/>
	<rect x="36" y="37" fill="#301E61" width="1" height="1"/>
	<rect x="30" y="37" fill="#232085" width="1" height="1"/>
	<rect x="29" y="37" fill="#232085" width="1" height="1"/>
	<rect x="22" y="37" fill="#3136AA" width="1" height="1"/>
	<rect x="18" y="37" fill="#232085" width="1" height="1"/>
	<rect x="11" y="37" fill="#17658D" width="1" height="1"/>
	<rect x="10" y="37" fill="#E9E5E1" width="1" height="1"/>
	<rect x="9" y="37" fill="#17658D" width="1" height="1"/>
	<rect x="4" y="37" fill="#301E61" width="1" height="1"/>
	<rect x="62" y="36" fill="#232085" width="1" height="1"/>
	<rect x="61" y="36" fill="#232085" width="1" height="1"/>
	<rect x="42" y="36" fill="#17658D" width="1" height="1"/>
	<rect x="32" y="36" fill="#36298A" width="1" height="1"/>
	<rect x="30" y="36" fill="#232085" width="1" height="1"/>
	<rect x="29" y="36" fill="#232085" width="1" height="1"/>
	<rect x="10" y="36" fill="#17658D" width="1" height="1"/>
	<rect y="36" fill="#36298A" width="1" height="1"/>
	<rect x="33" y="35" fill="#232085" width="1" height="1"/>
	<rect x="1" y="35" fill="#232085" width="1" height="1"/>
	<rect x="58" y="34" fill="#232085" width="1" height="1"/>
	<rect x="46" y="34" fill="#232085" width="1" height="1"/>
	<rect x="39" y="34" fill="#2F318D" width="1" height="1"/>
	<rect x="26" y="34" fill="#232085" width="1" height="1"/>
	<rect x="14" y="34" fill="#232085" width="1" height="1"/>
	<rect x="7" y="34" fill="#2F318D" width="1" height="1"/>
	<rect x="62" y="32" fill="#6E6550" width="1" height="1"/>
	<rect x="30" y="32" fill="#6E6550" width="1" height="1"/>
	<rect x="63" y="31" fill="#6E6550" width="1" height="1"/>
	<rect x="62" y="31" fill="#E9E5E1" width="1" height="1"/>
	<rect x="61" y="31" fill="#776C5C" width="1" height="1"/>
	<rect x="36" y="31" fill="#232085" width="1" height="1"/>
	<rect x="31" y="31" fill="#6E6550" width="1" height="1"/>
	<rect x="30" y="31" fill="#E9E5E1" width="1" height="1"/>
	<rect x="29" y="31" fill="#776C5C" width="1" height="1"/>
	<rect x="4" y="31" fill="#232085" width="1" height="1"/>
	<rect x="62" y="30" fill="#6E6550" width="1" height="1"/>
	<rect x="43" y="30" fill="#301E61" width="1" height="1"/>
	<rect x="37" y="30" fill="#36298A" width="1" height="1"/>
	<rect x="30" y="30" fill="#6E6550" width="1" height="1"/>
	<rect x="11" y="30" fill="#301E61" width="1" height="1"/>
	<rect x="5" y="30" fill="#36298A" width="1" height="1"/>
	<rect x="59" y="29" fill="#3136AA" width="1" height="1"/>
	<rect x="53" y="29" fill="#232085" width="1" height="1"/>
	<rect x="38" y="29" fill="#232085" width="1" height="1"/>
	<rect x="27" y="29" fill="#3136AA" width="1" height="1"/>
	<rect x="21" y="29" fill="#232085" width="1" height="1"/>
	<rect x="6" y="29" fill="#232085" width="1" height="1"/>
	<rect x="60" y="28" fill="#3136AA" width="1" height="1"/>
	<rect x="59" y="28" fill="#6268ED" width="1" height="1"/>
	<rect x="58" y="28" fill="#3136AA" width="1" height="1"/>
	<rect x="39" y="28" fill="#232085" width="1" height="1"/>
	<rect x="33" y="28" fill="#3136AA" width="1" height="1"/>
	<rect x="28" y="28" fill="#3136AA" width="1" height="1"/>
	<rect x="27" y="28" fill="#6268ED" width="1" height="1"/>
	<rect x="26" y="28" fill="#3136AA" width="1" height="1"/>
	<rect x="7" y="28" fill="#232085" width="1" height="1"/>
	<rect x="1" y="28" fill="#3136AA" width="1" height="1"/>
	<rect x="59" y="27" fill="#3136AA" width="1" height="1"/>
	<rect x="34" y="27" fill="#3136AA" width="1" height="1"/>
	<rect x="33" y="27" fill="#BBBAE6" width="1" height="1"/>
	<rect x="32" y="27" fill="#3136AA" width="1" height="1"/>
	<rect x="27" y="27" fill="#3136AA" width="1" height="1"/>
	<rect x="2" y="27" fill="#3136AA" width="1" height="1"/>
	<rect x="1" y="27" fill="#BBBAE6" width="1" height="1"/>
	<rect y="27" fill="#3136AA" width="1" height="1"/>
	<rect x="55" y="26" fill="#301E61" width="1" height="1"/>
	<rect x="33" y="26" fill="#3136AA" width="1" height="1"/>
	<rect x="23" y="26" fill="#301E61" width="1" height="1"/>
	<rect x="1" y="26" fill="#3136AA" width="1" height="1"/>
	<rect x="36" y="24" fill="#4347B4" width="1" height="1"/>
	<rect x="4" y="24" fill="#4347B4" width="1" height="1"/>
	<rect x="59" y="23" fill="#36298A" width="1" height="1"/>
	<rect x="53" y="23" fill="#2F318D" width="1" height="1"/>
	<rect x="43" y="23" fill="#36298A" width="1" height="1"/>
	<rect x="42" y="23" fill="#232085" width="1" height="1"/>
	<rect x="27" y="23" fill="#36298A" width="1" height="1"/>
	<rect x="21" y="23" fill="#2F318D" width="1" height="1"/>
	<rect x="11" y="23" fill="#36298A" width="1" height="1"/>
	<rect x="10" y="23" fill="#232085" width="1" height="1"/>
	<rect x="58" y="22" fill="#36298A" width="1" height="1"/>
	<rect x="54" y="22" fill="#2F318D" width="1" height="1"/>
	<rect x="53" y="22" fill="#4347B4" width="1" height="1"/>
	<rect x="52" y="22" fill="#2F318D" width="1" height="1"/>
	<rect x="43" y="22" fill="#232085" width="1" height="1"/>
	<rect x="26" y="22" fill="#36298A" width="1" height="1"/>
	<rect x="22" y="22" fill="#2F318D" width="1" height="1"/>
	<rect x="21" y="22" fill="#4347B4" width="1" height="1"/>
	<rect x="20" y="22" fill="#2F318D" width="1" height="1"/>
	<rect x="11" y="22" fill="#232085" width="1" height="1"/>
	<rect x="53" y="21" fill="#2F318D" width="1" height="1"/>
	<rect x="38" y="21" fill="#17658D" width="1" height="1"/>
	<rect x="34" y="21" fill="#232085" width="1" height="1"/>
	<rect x="21" y="21" fill="#2F318D" width="1" height="1"/>
	<rect x="6" y="21" fill="#17658D" width="1" height="1"/>
	<rect x="2" y="21" fill="#232085" width="1" height="1"/>
	<rect x="62" y="20" fill="#4347B4" width="1" height="1"/>
	<rect x="39" y="20" fill="#17658D" width="1" height="1"/>
	<rect x="38" y="20" fill="#E9E5E1" width="1" height="1"/>
	<rect x="37" y="20" fill="#17658D" width="1" height="1"/>
	<rect x="35" y="20" fill="#36298A" width="1" height="1"/>
	<rect x="30" y="20" fill="#4347B4" width="1" height="1"/>
	<rect x="7" y="20" fill="#17658D" width="1" height="1"/>
	<rect x="6" y="20" fill="#E9E5E1" width="1" height="1"/>
	<rect x="5" y="20" fill="#17658D" width="1" height="1"/>
	<rect x="3" y="20" fill="#36298A" width="1" height="1"/>
	<rect x="38" y="19" fill="#17658D" width="1" height="1"/>
	<rect x="36" y="19" fill="#232085" width="1" height="1"/>
	<rect x="6" y="19" fill="#17658D" width="1" height="1"/>
	<rect x="4" y="19" fill="#232085" width="1" height="1"/>
	<rect x="61" y="18" fill="#301E61" width="1" height="1"/>
	<rect x="47" y="18" fill="#36298A" width="1" height="1"/>
	<rect x="42" y="18" fill="#6E6550" width="1" height="1"/>
	<rect x="29" y="18" fill="#301E61" width="1" height="1"/>
	<rect x="15" y="18" fill="#36298A" width="1" height="1"/>
	<rect x="10" y="18" fill="#6E6550" width="1" height="1"/>
	<rect x="47" y="17" fill="#36298A" width="1" height="1"/>
	<rect x="43" y="17" fill="#6E6550" width="1" height="1"/>
	<rect x="42" y="17" fill="#E9E5E1" width="1" height="1"/>
	<rect x="41" y="17" fill="#6E6550" width="1" height="1"/>
	<rect x="34" y="17" fill="#4347B4" width="1" height="1"/>
	<rect x="15" y="17" fill="#36298A" width="1" height="1"/>
	<rect x="11" y="17" fill="#6E6550" width="1" height="1"/>
	<rect x="10" y="17" fill="#E9E5E1" width="1" height="1"/>
	<rect x="9" y="17" fill="#6E6550" width="1" height="1"/>
	<rect x="2" y="17" fill="#4347B4" width="1" height="1"/>
	<rect x="42" y="16" fill="#6E6550" width="1" height="1"/>
	<rect x="10" y="16" fill="#6E6550" width="1" height="1"/>
	<rect x="36" y="15" fill="#301E61" width="1" height="1"/>
	<rect x="30" y="15" fill="#232085" width="1" height="1"/>
	<rect x="25" y="15" fill="#3136AA" width="1" height="1"/>
	<rect x="5" y="15" fill="#232085" width="1" height="1"/>
	<rect y="15" fill="#3136AA" width="1" height="1"/>
	<rect x="49" y="14" fill="#2F318D" width="1" height="1"/>
	<rect x="29" y="14" fill="#232085" width="1" height="1"/>
	<rect x="17" y="14" fill="#2F318D" width="1" height="1"/>
	<rect x="4" y="14" fill="#232085" width="1" height="1"/>
	<rect x="53" y="13" fill="#3136AA" width="1" height="1"/>
	<rect x="33" y="13" fill="#2F318D" width="1" height="1"/>
	<rect x="28" y="13" fill="#232085" width="1" height="1"/>
	<rect x="21" y="13" fill="#3136AA" width="1" height="1"/>
	<rect x="3" y="13" fill="#232085" width="1" height="1"/>
	<rect x="56" y="12" fill="#301E61" width="1" height="1"/>
	<rect x="54" y="12" fill="#3136AA" width="1" height="1"/>
	<rect x="53" y="12" fill="#BBBAE6" width="1" height="1"/>
	<rect x="52" y="12" fill="#3136AA" width="1" height="1"/>
	<rect x="41" y="12" fill="#301E61" width="1" height="1"/>
	<rect x="27" y="12" fill="#232085" width="1" height="1"/>
	<rect x="22" y="12" fill="#3136AA" width="1" height="1"/>
	<rect x="21" y="12" fill="#BBBAE6" width="1" height="1"/>
	<rect x="20" y="12" fill="#3136AA" width="1" height="1"/>
	<rect x="9" y="12" fill="#301E61" width="1" height="1"/>
	<rect x="2" y="12" fill="#232085" width="1" height="1"/>
	<rect x="53" y="11" fill="#3136AA" width="1" height="1"/>
	<rect x="21" y="11" fill="#3136AA" width="1" height="1"/>
	<rect x="62" y="10" fill="#301E61" width="1" height="1"/>
	<rect x="58" y="10" fill="#4347B4" width="1" height="1"/>
	<rect x="47" y="10" fill="#301E61" width="1" height="1"/>
	<rect x="43" y="10" fill="#4347B4" width="1" height="1"/>
	<rect x="15" y="10" fill="#301E61" width="1" height="1"/>
	<rect x="11" y="10" fill="#4347B4" width="1" height="1"/>
	<rect x="53" y="9" fill="#232085" width="1" height="1"/>
	<rect x="35" y="9" fill="#36298A" width="1" height="1"/>
	<rect x="34" y="9" fill="#36298A" width="1" height="1"/>
	<rect x="30" y="9" fill="#17658D" width="1" height="1"/>
	<rect x="21" y="9" fill="#232085" width="1" height="1"/>
	<rect x="5" y="9" fill="#17658D" width="1" height="1"/>
	<rect x="35" y="8" fill="#36298A" width="1" height="1"/>
	<rect x="34" y="8" fill="#36298A" width="1" height="1"/>
	<rect x="31" y="8" fill="#17658D" width="1" height="1"/>
	<rect x="30" y="8" fill="#E9E5E1" width="1" height="1"/>
	<rect x="29" y="8" fill="#17658D" width="1" height="1"/>
	<rect x="6" y="8" fill="#17658D" width="1" height="1"/>
	<rect x="5" y="8" fill="#E9E5E1" width="1" height="1"/>
	<rect x="4" y="8" fill="#17658D" width="1" height="1"/>
	<rect x="58" y="7" fill="#232085" width="1" height="1"/>
	<rect x="50" y="7" fill="#2F318D" width="1" height="1"/>
	<rect x="43" y="7" fill="#232085" width="1" height="1"/>
	<rect x="30" y="7" fill="#17658D" width="1" height="1"/>
	<rect x="18" y="7" fill="#2F318D" width="1" height="1"/>
	<rect x="11" y="7" fill="#232085" width="1" height="1"/>
	<rect x="5" y="7" fill="#17658D" width="1" height="1"/>
	<rect x="59" y="6" fill="#36298A" width="1" height="1"/>
	<rect x="44" y="6" fill="#36298A" width="1" height="1"/>
	<rect x="32" y="6" fill="#232085" width="1" height="1"/>
	<rect x="27" y="6" fill="#4347B4" width="1" height="1"/>
	<rect x="12" y="6" fill="#36298A" width="1" height="1"/>
	<rect x="7" y="6" fill="#232085" width="1" height="1"/>
	<rect x="2" y="6" fill="#4347B4" width="1" height="1"/>
	<rect x="60" y="5" fill="#232085" width="1" height="1"/>
	<rect x="54" y="5" fill="#17658D" width="1" height="1"/>
	<rect x="51" y="5" fill="#301E61" width="1" height="1"/>
	<rect x="45" y="5" fill="#232085" width="1" height="1"/>
	<rect x="22" y="5" fill="#17658D" width="1" height="1"/>
	<rect x="19" y="5" fill="#301E61" width="1" height="1"/>
	<rect x="13" y="5" fill="#232085" width="1" height="1"/>
	<rect x="61" y="4" fill="#3B266F" width="1" height="1"/>
	<rect x="55" y="4" fill="#17658D" width="1" height="1"/>
	<rect x="54" y="4" fill="#E9E5E1" width="1" height="1"/>
	<rect x="53" y="4" fill="#17658D" width="1" height="1"/>
	<rect x="46" y="4" fill="#3B266F" width="1" height="1"/>
	<rect x="37" y="4" fill="#3136AA" width="1" height="1"/>
	<rect x="23" y="4" fill="#17658D" width="1" height="1"/>
	<rect x="22" y="4" fill="#E9E5E1" width="1" height="1"/>
	<rect x="21" y="4" fill="#17658D" width="1" height="1"/>
	<rect x="14" y="4" fill="#3B266F" width="1" height="1"/>
	<rect x="62" y="3" fill="#301E61" width="1" height="1"/>
	<rect x="57" y="3" fill="#3136AA" width="1" height="1"/>
	<rect x="55" y="3" fill="#2F318D" width="1" height="1"/>
	<rect x="54" y="3" fill="#17658D" width="1" height="1"/>
	<rect x="47" y="3" fill="#301E61" width="1" height="1"/>
	<rect x="42" y="3" fill="#3136AA" width="1" height="1"/>
	<rect x="38" y="3" fill="#3136AA" width="1" height="1"/>
	<rect x="37" y="3" fill="#6268ED" width="1" height="1"/>
	<rect x="36" y="3" fill="#3136AA" width="1" height="1"/>
	<rect x="23" y="3" fill="#2F318D" width="1" height="1"/>
	<rect x="22" y="3" fill="#17658D" width="1" height="1"/>
	<rect x="15" y="3" fill="#301E61" width="1" height="1"/>
	<rect x="10" y="3" fill="#3136AA" width="1" height="1"/>
	<g>
		<rect x="57" y="60" fill="#161B81" width="1" height="1"/>
		<rect x="42" y="60" fill="#161B81" width="1" height="1"/>
		<rect x="10" y="60" fill="#161B81" width="1" height="1"/>
		<rect x="28" y="58" fill="#161B81" width="1" height="1"/>
		<rect x="3" y="58" fill="#161B81" width="1" height="1"/>
		<rect x="29" y="57" fill="#161B81" width="1" height="1"/>
		<rect x="27" y="57" fill="#161B81" width="1" height="1"/>
		<rect x="4" y="57" fill="#161B81" width="1" height="1"/>
		<rect x="2" y="57" fill="#161B81" width="1" height="1"/>
		<rect x="63" y="56" fill="#161B81" width="1" height="1"/>
		<polygon fill="#161B81" points="50,56 50,54 49,54 49,56 48,56 48,57 49,57 49,58 50,58 50,57 52,57 52,56 		"/>
		<rect x="28" y="56" fill="#161B81" width="1" height="1"/>
		<polygon fill="#161B81" points="18,56 18,54 17,54 17,56 16,56 16,57 17,57 17,58 18,58 18,57 20,57 20,56 		"/>
		<rect x="3" y="56" fill="#161B81" width="1" height="1"/>
		<polygon fill="#161B81" points="52,52 52,53 50,53 50,54 52,54 52,56 53,56 53,54 54,54 54,52 		"/>
		<polygon fill="#161B81" points="20,52 20,53 18,53 18,54 20,54 20,56 21,56 21,54 22,54 22,52 		"/>
		<rect x="54" y="51" fill="#161B81" width="1" height="1"/>
		<rect x="22" y="51" fill="#161B81" width="1" height="1"/>
		<rect x="60" y="50" fill="#161B81" width="1" height="1"/>
		<rect x="45" y="50" fill="#161B81" width="1" height="1"/>
		<rect x="13" y="50" fill="#161B81" width="1" height="1"/>
		<rect x="59" y="49" fill="#161B81" width="1" height="1"/>
		<rect x="44" y="49" fill="#161B81" width="1" height="1"/>
		<rect x="12" y="49" fill="#161B81" width="1" height="1"/>
		<rect x="30" y="47" fill="#161B81" width="1" height="1"/>
		<rect x="5" y="47" fill="#161B81" width="1" height="1"/>
		<rect x="32" y="45" fill="#161B81" width="1" height="2"/>
		<rect x="7" y="45" fill="#161B81" width="1" height="2"/>
		<rect x="33" y="44" fill="#161B81" width="1" height="1"/>
		<rect x="26" y="41" fill="#161B81" width="1" height="1"/>
		<rect x="1" y="41" fill="#161B81" width="1" height="1"/>
		<rect x="33" y="36" fill="#161B81" width="1" height="1"/>
		<rect x="1" y="36" fill="#161B81" width="1" height="1"/>
		<rect x="32" y="35" fill="#161B81" width="1" height="1"/>
		<rect y="35" fill="#161B81" width="1" height="1"/>
		<rect x="38" y="30" fill="#161B81" width="1" height="1"/>
		<rect x="6" y="30" fill="#161B81" width="1" height="1"/>
		<rect x="37" y="29" fill="#161B81" width="1" height="1"/>
		<rect x="5" y="29" fill="#161B81" width="1" height="1"/>
		<rect x="60" y="24" fill="#161B81" width="1" height="1"/>
		<rect x="28" y="24" fill="#161B81" width="1" height="1"/>
		<rect x="58" y="23" fill="#161B81" width="1" height="1"/>
		<rect x="26" y="23" fill="#161B81" width="1" height="1"/>
		<rect x="59" y="22" fill="#161B81" width="1" height="1"/>
		<rect x="42" y="22" fill="#161B81" width="1" height="1"/>
		<rect x="27" y="22" fill="#161B81" width="1" height="1"/>
		<polygon fill="#161B81" points="25,23 26,23 26,22 27,22 27,21 25,21 		"/>
		<rect x="10" y="22" fill="#161B81" width="1" height="1"/>
		<polygon fill="#161B81" points="59,22 59,21 57,21 57,23 58,23 58,22 		"/>
		<rect x="35" y="21" fill="#161B81" width="1" height="1"/>
		<rect x="3" y="21" fill="#161B81" width="1" height="1"/>
		<rect x="56" y="20" fill="#161B81" width="1" height="1"/>
		<rect x="36" y="20" fill="#161B81" width="1" height="1"/>
		<rect x="34" y="20" fill="#161B81" width="1" height="1"/>
		<rect x="24" y="20" fill="#161B81" width="1" height="1"/>
		<rect x="4" y="20" fill="#161B81" width="1" height="1"/>
		<rect x="2" y="20" fill="#161B81" width="1" height="1"/>
		<rect x="49" y="19" fill="#161B81" width="1" height="1"/>
		<rect x="35" y="19" fill="#161B81" width="1" height="1"/>
		<rect x="17" y="19" fill="#161B81" width="1" height="1"/>
		<rect x="3" y="19" fill="#161B81" width="1" height="1"/>
		<rect x="48" y="17" fill="#161B81" width="1" height="2"/>
		<rect x="16" y="17" fill="#161B81" width="1" height="2"/>
		<rect x="46" y="16" fill="#161B81" width="1" height="1"/>
		<rect x="14" y="16" fill="#161B81" width="1" height="1"/>
		<rect x="28" y="14" fill="#161B81" width="1" height="1"/>
		<rect x="3" y="14" fill="#161B81" width="1" height="1"/>
		<rect x="29" y="13" fill="#161B81" width="1" height="1"/>
		<rect x="4" y="13" fill="#161B81" width="1" height="1"/>
		<rect x="38" y="12" fill="#161B81" width="1" height="1"/>
		<polygon fill="#161B81" points="38,10 37,10 37,8 36,8 36,10 34,10 34,11 36,11 36,12 38,12 		"/>
		<polygon fill="#161B81" points="34,8 36,8 36,7 34,7 34,6 33,6 33,7 32,7 32,8 33,8 33,10 34,10 		"/>
		<rect x="59" y="7" fill="#161B81" width="1" height="1"/>
		<rect x="44" y="7" fill="#161B81" width="1" height="1"/>
		<rect x="12" y="7" fill="#161B81" width="1" height="1"/>
		<rect x="7" y="7" fill="#161B81" width="1" height="1"/>
		<rect x="60" y="6" fill="#161B81" width="1" height="1"/>
		<rect x="58" y="6" fill="#161B81" width="1" height="1"/>
		<rect x="45" y="6" fill="#161B81" width="1" height="1"/>
		<rect x="43" y="6" fill="#161B81" width="1" height="1"/>
		<rect x="13" y="6" fill="#161B81" width="1" height="1"/>
		<rect x="11" y="6" fill="#161B81" width="1" height="1"/>
		<rect x="59" y="5" fill="#161B81" width="1" height="1"/>
		<rect x="44" y="5" fill="#161B81" width="1" height="1"/>
		<rect x="12" y="5" fill="#161B81" width="1" height="1"/>
		<rect x="26" y="3" fill="#161B81" width="1" height="1"/>
		<rect x="1" y="3" fill="#161B81" width="1" height="1"/>
	</g>
	<rect x="61" y="2" fill="#17658D" width="1" height="1"/>
	<rect x="58" y="2" fill="#3136AA" width="1" height="1"/>
	<rect x="57" y="2" fill="#6268ED" width="1" height="1"/>
	<rect x="56" y="2" fill="#3136AA" width="1" height="1"/>
	<rect x="51" y="2" fill="#232085" width="1" height="1"/>
	<rect x="46" y="2" fill="#17658D" width="1" height="1"/>
	<rect x="43" y="2" fill="#3136AA" width="1" height="1"/>
	<rect x="42" y="2" fill="#6268ED" width="1" height="1"/>
	<rect x="41" y="2" fill="#3136AA" width="1" height="1"/>
	<rect x="37" y="2" fill="#3136AA" width="1" height="1"/>
	<rect x="19" y="2" fill="#232085" width="1" height="1"/>
	<rect x="14" y="2" fill="#17658D" width="1" height="1"/>
	<rect x="11" y="2" fill="#3136AA" width="1" height="1"/>
	<rect x="10" y="2" fill="#6268ED" width="1" height="1"/>
	<rect x="9" y="2" fill="#3136AA" width="1" height="1"/>
	<rect x="62" y="1" fill="#17658D" width="1" height="1"/>
	<rect x="61" y="1" fill="#E9E5E1" width="1" height="1"/>
	<rect x="60" y="1" fill="#17658D" width="1" height="1"/>
	<rect x="57" y="1" fill="#3136AA" width="1" height="1"/>
	<rect x="52" y="1" fill="#232085" width="1" height="1"/>
	<rect x="47" y="1" fill="#17658D" width="1" height="1"/>
	<rect x="46" y="1" fill="#E9E5E1" width="1" height="1"/>
	<rect x="45" y="1" fill="#17658D" width="1" height="1"/>
	<rect x="42" y="1" fill="#3136AA" width="1" height="1"/>
	<rect x="20" y="1" fill="#232085" width="1" height="1"/>
	<rect x="15" y="1" fill="#17658D" width="1" height="1"/>
	<rect x="14" y="1" fill="#E9E5E1" width="1" height="1"/>
	<rect x="13" y="1" fill="#17658D" width="1" height="1"/>
	<rect x="10" y="1" fill="#3136AA" width="1" height="1"/>
	<rect x="63" fill="#301E61" width="1" height="1"/>
	<rect x="61" fill="#17658D" width="1" height="1"/>
	<rect x="48" fill="#301E61" width="1" height="1"/>
	<rect x="46" fill="#17658D" width="1" height="1"/>
	<g>
		<rect x="61" y="62" fill="#171257" width="1" height="1"/>
		<rect x="46" y="62" fill="#171257" width="1" height="1"/>
		<polygon fill="#171257" points="37,63 36,63 36,64 38,64 38,62 37,62 		"/>
		<rect x="35" y="62" fill="#171257" width="1" height="1"/>
		<rect x="14" y="62" fill="#171257" width="1" height="1"/>
		<rect x="36" y="61" fill="#171257" width="1" height="1"/>
		<polygon fill="#171257" points="36,61 36,60 34,60 34,62 35,62 35,61 		"/>
		<rect x="29" y="59" fill="#171257" width="1" height="1"/>
		<rect x="4" y="59" fill="#171257" width="1" height="1"/>
		<polygon fill="#171257" points="48,58 48,56 47,56 47,59 50,59 50,58 		"/>
		<rect x="30" y="58" fill="#171257" width="1" height="1"/>
		<polygon fill="#171257" points="16,58 16,56 15,56 15,59 18,59 18,58 		"/>
		<rect x="5" y="58" fill="#171257" width="1" height="1"/>
		<rect x="50" y="57" fill="#171257" width="2" height="1"/>
		<rect x="18" y="57" fill="#171257" width="2" height="1"/>
		<polygon fill="#171257" points="62,59 64,59 64,58 63,58 63,56 62,56 		"/>
		<rect x="57" y="56" fill="#171257" width="1" height="1"/>
		<rect x="52" y="56" fill="#171257" width="1" height="1"/>
		<rect x="42" y="56" fill="#171257" width="1" height="1"/>
		<rect x="20" y="56" fill="#171257" width="1" height="1"/>
		<rect x="10" y="56" fill="#171257" width="1" height="1"/>
		<rect x="48" y="54" fill="#171257" width="1" height="2"/>
		<polygon fill="#171257" points="26,55 26,57 27,57 27,56 28,56 28,55 		"/>
		<rect x="16" y="54" fill="#171257" width="1" height="2"/>
		<polygon fill="#171257" points="1,55 1,57 2,57 2,56 3,56 3,55 		"/>
		<rect x="63" y="54" fill="#171257" width="1" height="2"/>
		<rect x="53" y="54" fill="#171257" width="1" height="2"/>
		<rect x="21" y="54" fill="#171257" width="1" height="2"/>
		<rect x="49" y="53" fill="#171257" width="1" height="1"/>
		<path fill="#171257" d="M36,53v3h3v-3H36z M38,55h-1v-1h1V55z"/>
		<rect x="17" y="53" fill="#171257" width="1" height="1"/>
		<rect x="54" y="52" fill="#171257" width="1" height="2"/>
		<rect x="50" y="52" fill="#171257" width="2" height="1"/>
		<rect x="22" y="52" fill="#171257" width="1" height="2"/>
		<rect x="18" y="52" fill="#171257" width="2" height="1"/>
		<polygon fill="#171257" points="59,52 58,52 58,51 59,51 59,50 57,50 57,53 60,53 60,51 59,51 		"/>
		<rect x="55" y="51" fill="#171257" width="1" height="1"/>
		<rect x="52" y="51" fill="#171257" width="2" height="1"/>
		<polygon fill="#171257" points="44,52 43,52 43,51 44,51 44,50 42,50 42,53 45,53 45,51 44,51 		"/>
		<rect x="26" y="51" fill="#171257" width="1" height="1"/>
		<rect x="23" y="51" fill="#171257" width="1" height="1"/>
		<rect x="20" y="51" fill="#171257" width="2" height="1"/>
		<polygon fill="#171257" points="12,52 11,52 11,51 12,51 12,50 10,50 10,53 13,53 13,51 12,51 		"/>
		<rect x="1" y="51" fill="#171257" width="1" height="1"/>
		<rect x="54" y="50" fill="#171257" width="1" height="1"/>
		<rect x="22" y="50" fill="#171257" width="1" height="1"/>
		<path fill="#171257" d="M60,49h1v-1h1v1h-1v1h2v-3h-2v-3h-3v3h2V49z M59,46v-1h1v1H59z"/>
		<path fill="#171257" d="M45,49h1v-1h1v1h-1v1h2v-3h-2v-3h-3v3h2V49z M44,46v-1h1v1H44z"/>
		<path fill="#171257" d="M13,49h1v-1h1v1h-1v1h2v-3h-2v-3h-3v3h2V49z M12,46v-1h1v1H12z"/>
		<rect x="54" y="47" fill="#171257" width="1" height="1"/>
		<rect x="31" y="47" fill="#171257" width="1" height="1"/>
		<polygon fill="#171257" points="30,47 29,47 29,49 31,49 31,48 30,48 		"/>
		<rect x="22" y="47" fill="#171257" width="1" height="1"/>
		<rect x="6" y="47" fill="#171257" width="1" height="1"/>
		<polygon fill="#171257" points="5,47 4,47 4,49 6,49 6,48 5,48 		"/>
		<rect x="30" y="46" fill="#171257" width="1" height="1"/>
		<rect x="5" y="46" fill="#171257" width="1" height="1"/>
		<rect x="37" y="45" fill="#171257" width="1" height="1"/>
		<rect x="33" y="45" fill="#171257" width="1" height="1"/>
		<rect x="50" y="44" fill="#171257" width="1" height="1"/>
		<polygon fill="#171257" points="34,45 35,45 35,43 33,43 33,44 34,44 		"/>
		<rect x="32" y="44" fill="#171257" width="1" height="1"/>
		<rect x="18" y="44" fill="#171257" width="1" height="1"/>
		<rect x="7" y="44" fill="#171257" width="1" height="1"/>
		<rect x="51" y="42" fill="#171257" width="2" height="2"/>
		<rect x="19" y="42" fill="#171257" width="2" height="2"/>
		<polygon fill="#171257" points="29,41 28,41 28,42 27,42 27,43 29,43 		"/>
		<polygon fill="#171257" points="4,41 3,41 3,42 2,42 2,43 4,43 		"/>
		<rect x="53" y="41" fill="#171257" width="1" height="1"/>
		<rect x="21" y="41" fill="#171257" width="1" height="1"/>
		<rect x="60" y="40" fill="#171257" width="1" height="1"/>
		<rect x="45" y="40" fill="#171257" width="1" height="1"/>
		<rect x="25" y="39" fill="#171257" width="1" height="2"/>
		<rect x="13" y="40" fill="#171257" width="1" height="1"/>
		<rect y="40" fill="#171257" width="1" height="1"/>
		<rect x="57" y="39" fill="#171257" width="1" height="1"/>
		<rect x="37" y="38" fill="#171257" width="1" height="1"/>
		<rect x="5" y="38" fill="#171257" width="1" height="1"/>
		<rect x="40" y="37" fill="#171257" width="1" height="1"/>
		<path fill="#171257" d="M28,39h4v-4h-4v-2h-3v3h3V39z M26,35v-1h1v1H26z M29,36h2v2h-2V36z"/>
		<rect x="8" y="37" fill="#171257" width="1" height="1"/>
		<path fill="#171257" d="M49,39h3v-3h-3V39z M51,37v1h-1v-1H51z"/>
		<rect x="41" y="36" fill="#171257" width="1" height="1"/>
		<path fill="#171257" d="M17,39h3v-3h-3V39z M19,37v1h-1v-1H19z"/>
		<rect x="9" y="36" fill="#171257" width="1" height="1"/>
		<path fill="#171257" d="M60,35v-2h-3v3h3v3h4v-4H60z M58,35v-1h1v1H58z M63,38h-2v-2h2V38z"/>
		<path fill="#171257" d="M48,36v-3h-3v3H48z M46,34h1v1h-1V34z"/>
		<polygon fill="#171257" points="35,36 35,34 33,34 33,35 34,35 34,36 		"/>
		<path fill="#171257" d="M16,36v-3h-3v3H16z M14,34h1v1h-1V34z"/>
		<polygon fill="#171257" points="2,36 3,36 3,34 1,34 1,35 2,35 		"/>
		<polygon fill="#171257" points="38,31 37,31 37,32 36,32 36,31 37,31 37,30 35,30 35,33 38,33 		"/>
		<polygon fill="#171257" points="6,31 5,31 5,32 4,32 4,31 5,31 5,30 3,30 3,33 6,33 		"/>
		<path fill="#171257" d="M55,28h-3v3h3V28z M53,30v-1h1v1H53z"/>
		<path fill="#171257" d="M23,28h-3v3h3V28z M21,30v-1h1v1H21z"/>
		<rect x="62" y="29" fill="#171257" width="2" height="1"/>
		<rect x="45" y="29" fill="#171257" width="1" height="1"/>
		<polygon fill="#171257" points="41,30 41,27 38,27 38,29 39,29 39,28 40,28 40,29 39,29 39,30 		"/>
		<rect x="13" y="29" fill="#171257" width="1" height="1"/>
		<polygon fill="#171257" points="9,30 9,27 6,27 6,29 7,29 7,28 8,28 8,29 7,29 7,30 		"/>
		<polygon fill="#171257" points="60,25 60,26 62,26 62,24 61,24 61,25 		"/>
		<rect x="49" y="25" fill="#171257" width="1" height="1"/>
		<rect x="33" y="25" fill="#171257" width="1" height="1"/>
		<polygon fill="#171257" points="28,25 28,26 30,26 30,24 29,24 29,25 		"/>
		<rect x="17" y="25" fill="#171257" width="1" height="1"/>
		<rect x="1" y="25" fill="#171257" width="1" height="1"/>
		<rect x="58" y="24" fill="#171257" width="2" height="1"/>
		<polygon fill="#171257" points="43,25 43,24 42,24 42,23 41,23 41,25 		"/>
		<rect x="26" y="24" fill="#171257" width="2" height="1"/>
		<polygon fill="#171257" points="11,25 11,24 10,24 10,23 9,23 9,25 		"/>
		<rect x="60" y="22" fill="#171257" width="1" height="2"/>
		<rect x="57" y="23" fill="#171257" width="1" height="1"/>
		<rect x="28" y="22" fill="#171257" width="1" height="2"/>
		<rect x="25" y="23" fill="#171257" width="1" height="1"/>
		<polygon fill="#171257" points="35,22 34,22 34,21 33,21 33,23 35,23 		"/>
		<polygon fill="#171257" points="3,23 3,22 2,22 2,21 1,21 1,23 		"/>
		<rect x="59" y="21" fill="#171257" width="1" height="1"/>
		<rect x="56" y="21" fill="#171257" width="1" height="1"/>
		<polygon fill="#171257" points="43,21 43,22 44,22 44,23 45,23 45,21 		"/>
		<rect x="27" y="21" fill="#171257" width="1" height="1"/>
		<rect x="24" y="21" fill="#171257" width="1" height="1"/>
		<polygon fill="#171257" points="11,21 11,22 12,22 12,23 13,23 13,21 		"/>
		<rect x="57" y="20" fill="#171257" width="1" height="1"/>
		<polygon fill="#171257" points="49,20 49,21 51,21 51,19 50,19 50,20 		"/>
		<rect x="25" y="20" fill="#171257" width="1" height="1"/>
		<polygon fill="#171257" points="17,20 17,21 19,21 19,19 18,19 18,20 		"/>
		<rect x="48" y="19" fill="#171257" width="1" height="1"/>
		<polygon fill="#171257" points="38,18 36,18 36,19 37,19 37,20 38,20 		"/>
		<rect x="16" y="19" fill="#171257" width="1" height="1"/>
		<polygon fill="#171257" points="6,18 4,18 4,19 5,19 5,20 6,20 		"/>
		<rect x="53" y="18" fill="#171257" width="1" height="1"/>
		<rect x="49" y="18" fill="#171257" width="1" height="1"/>
		<rect x="21" y="18" fill="#171257" width="1" height="1"/>
		<rect x="17" y="18" fill="#171257" width="1" height="1"/>
		<rect x="46" y="17" fill="#171257" width="1" height="1"/>
		<rect x="14" y="17" fill="#171257" width="1" height="1"/>
		<rect x="47" y="16" fill="#171257" width="1" height="1"/>
		<polygon fill="#171257" points="46,16 47,16 47,15 45,15 45,17 46,17 		"/>
		<rect x="15" y="16" fill="#171257" width="1" height="1"/>
		<polygon fill="#171257" points="14,16 15,16 15,15 13,15 13,17 14,17 		"/>
		<rect x="60" y="15" fill="#171257" width="2" height="1"/>
		<polygon fill="#171257" points="31,16 32,16 32,14 30,14 30,15 31,15 		"/>
		<rect x="29" y="15" fill="#171257" width="1" height="1"/>
		<polygon fill="#171257" points="6,16 7,16 7,14 5,14 5,15 6,15 		"/>
		<rect x="4" y="15" fill="#171257" width="1" height="1"/>
		<rect x="38" y="13" fill="#171257" width="1" height="1"/>
		<polygon fill="#171257" points="28,14 28,13 27,13 27,12 28,12 28,13 29,13 29,11 26,11 26,14 		"/>
		<polygon fill="#171257" points="3,14 3,13 2,13 2,12 3,12 3,13 4,13 4,11 1,11 1,14 		"/>
		<rect x="57" y="12" fill="#171257" width="1" height="1"/>
		<rect x="42" y="12" fill="#171257" width="1" height="1"/>
		<rect x="39" y="12" fill="#171257" width="1" height="1"/>
		<rect x="36" y="12" fill="#171257" width="2" height="1"/>
		<rect x="10" y="12" fill="#171257" width="1" height="1"/>
		<rect x="38" y="10" fill="#171257" width="1" height="2"/>
		<rect x="34" y="11" fill="#171257" width="2" height="1"/>
		<path fill="#171257" d="M55,8h-3v3h3V8z M53,10V9h1v1H53z"/>
		<rect x="33" y="10" fill="#171257" width="1" height="1"/>
		<path fill="#171257" d="M23,8h-3v3h3V8z M21,10V9h1v1H21z"/>
		<rect x="37" y="8" fill="#171257" width="1" height="2"/>
		<rect x="7" y="8" fill="#171257" width="1" height="2"/>
		<polygon fill="#171257" points="59,9 59,8 58,8 58,7 57,7 57,9 		"/>
		<polygon fill="#171257" points="44,9 44,8 43,8 43,7 42,7 42,9 		"/>
		<rect x="32" y="8" fill="#171257" width="1" height="2"/>
		<polygon fill="#171257" points="12,9 12,8 11,8 11,7 10,7 10,9 		"/>
		<rect x="36" y="7" fill="#171257" width="1" height="1"/>
		<rect x="26" y="7" fill="#171257" width="1" height="1"/>
		<rect x="1" y="7" fill="#171257" width="1" height="1"/>
		<rect x="34" y="6" fill="#171257" width="2" height="1"/>
		<rect x="61" y="5" fill="#171257" width="1" height="1"/>
		<rect x="46" y="5" fill="#171257" width="1" height="1"/>
		<polygon fill="#171257" points="31,8 32,8 32,6 34,6 34,5 31,5 		"/>
		<rect x="14" y="5" fill="#171257" width="1" height="1"/>
		<polygon fill="#171257" points="6,8 7,8 7,6 8,6 8,5 6,5 		"/>
		<rect x="60" y="4" fill="#171257" width="1" height="1"/>
		<rect x="45" y="4" fill="#171257" width="1" height="1"/>
		<rect x="13" y="4" fill="#171257" width="1" height="1"/>
		<polygon fill="#171257" points="52,4 52,3 51,3 51,2 50,2 50,4 		"/>
		<polygon fill="#171257" points="20,4 20,3 19,3 19,2 18,2 18,4 		"/>
		<rect x="52" y="2" fill="#171257" width="1" height="1"/>
		<rect x="20" y="2" fill="#171257" width="1" height="1"/>
		<polygon fill="#171257" points="53,2 54,2 54,0 52,0 52,1 53,1 		"/>
		<rect x="51" y="1" fill="#171257" width="1" height="1"/>
		<rect x="30" y="1" fill="#171257" width="1" height="1"/>
		<polygon fill="#171257" points="21,2 22,2 22,0 20,0 20,1 21,1 		"/>
		<rect x="19" y="1" fill="#171257" width="1" height="1"/>
		<rect x="5" y="1" fill="#171257" width="1" height="1"/>
	</g>
	<rect x="16" fill="#301E61" width="1" height="1"/>
	<rect x="14" fill="#17658D" width="1" height="1"/>
</g>
</svg>
