<?xml version="1.0" encoding="utf-8"?>
<!-- Generator: Adobe Illustrator 16.0.0, SVG Export Plug-In . SVG Version: 6.00 Build 0)  -->
<!DOCTYPE svg PUBLIC "-//W3C//DTD SVG 1.1//EN" "http://www.w3.org/Graphics/SVG/1.1/DTD/svg11.dtd">
<svg version="1.1" id="Icons" xmlns="http://www.w3.org/2000/svg" xmlns:xlink="http://www.w3.org/1999/xlink" x="0px" y="0px"
	 width="64px" height="64px" viewBox="0 0 64 64" enable-background="new 0 0 64 64" xml:space="preserve">
<g>
	<rect fill="#160C1E" width="64" height="64"/>
	<g>
		<rect x="58" y="62" fill="#68386C" width="1" height="1"/>
		<rect x="42" y="62" fill="#68386C" width="1" height="1"/>
		<rect x="10" y="62" fill="#68386C" width="1" height="1"/>
		<rect x="53" y="61" fill="#321F3C" width="1" height="1"/>
		<rect x="37" y="61" fill="#321F3C" width="1" height="1"/>
		<rect x="18" y="61" fill="#4A2745" width="1" height="1"/>
		<rect x="5" y="61" fill="#321F3C" width="1" height="1"/>
		<rect x="62" y="60" fill="#4E2D55" width="1" height="1"/>
		<rect x="54" y="60" fill="#321F3C" width="1" height="1"/>
		<rect x="53" y="60" fill="#B55088" width="1" height="1"/>
		<rect x="52" y="60" fill="#321F3C" width="1" height="1"/>
		<rect x="34" y="60" fill="#68386C" width="1" height="1"/>
		<rect x="31" y="60" fill="#241A29" width="1" height="1"/>
		<rect x="19" y="60" fill="#4A2745" width="1" height="1"/>
		<rect x="18" y="60" fill="#68386C" width="1" height="1"/>
		<rect x="17" y="60" fill="#4A2745" width="1" height="1"/>
		<rect x="13" y="60" fill="#241A29" width="1" height="1"/>
		<rect x="6" y="60" fill="#321F3C" width="1" height="1"/>
		<rect x="5" y="60" fill="#B55088" width="1" height="1"/>
		<rect x="4" y="60" fill="#321F3C" width="1" height="1"/>
		<rect x="2" y="60" fill="#68386C" width="1" height="1"/>
		<rect x="56" y="59" fill="#241A29" width="1" height="1"/>
		<rect x="53" y="59" fill="#321F3C" width="1" height="1"/>
		<rect x="40" y="59" fill="#241A29" width="1" height="1"/>
		<rect x="32" y="59" fill="#241A29" width="1" height="1"/>
		<rect x="31" y="59" fill="#143151" width="1" height="1"/>
		<rect x="30" y="59" fill="#241A29" width="1" height="1"/>
		<rect x="18" y="59" fill="#4A2745" width="1" height="1"/>
		<rect x="14" y="59" fill="#241A29" width="1" height="1"/>
		<rect x="13" y="59" fill="#B55088" width="1" height="1"/>
		<rect x="12" y="59" fill="#241A29" width="1" height="1"/>
		<rect x="8" y="59" fill="#241A29" width="1" height="1"/>
		<rect x="5" y="59" fill="#321F3C" width="1" height="1"/>
		<rect x="33" y="58" fill="#241A29" width="1" height="1"/>
		<rect x="32" y="58" fill="#143151" width="1" height="1"/>
		<rect x="31" y="58" fill="#0099DB" width="1" height="1"/>
		<rect x="30" y="58" fill="#143151" width="1" height="1"/>
		<rect x="29" y="58" fill="#241A29" width="1" height="1"/>
		<rect x="25" y="58" fill="#241A29" width="1" height="1"/>
		<rect x="13" y="58" fill="#241A29" width="1" height="1"/>
		<rect x="32" y="57" fill="#241A29" width="1" height="1"/>
		<rect x="31" y="57" fill="#143151" width="1" height="1"/>
		<rect x="30" y="57" fill="#241A29" width="1" height="1"/>
		<rect x="26" y="57" fill="#441A2A" width="1" height="1"/>
		<rect x="25" y="57" fill="#59202F" width="1" height="1"/>
		<rect x="24" y="57" fill="#241A29" width="1" height="1"/>
		<rect x="31" y="56" fill="#241A29" width="1" height="1"/>
		<rect x="25" y="56" fill="#441A2A" width="1" height="1"/>
		<rect x="53" y="55" fill="#68386C" width="1" height="1"/>
		<rect x="37" y="55" fill="#68386C" width="1" height="1"/>
		<rect x="18" y="55" fill="#4E2D55" width="1" height="1"/>
		<rect x="4" y="55" fill="#261627" width="1" height="1"/>
		<rect x="1" y="55" fill="#68386C" width="1" height="1"/>
		<rect x="19" y="54" fill="#4A2745" width="1" height="1"/>
		<rect x="18" y="54" fill="#804075" width="1" height="1"/>
		<rect x="17" y="54" fill="#4E2D55" width="1" height="1"/>
		<rect x="5" y="54" fill="#261627" width="1" height="1"/>
		<rect x="4" y="54" fill="#441A2A" width="1" height="1"/>
		<rect x="3" y="54" fill="#261627" width="1" height="1"/>
		<rect x="58" y="53" fill="#4E2D55" width="1" height="1"/>
		<rect x="42" y="53" fill="#4E2D55" width="1" height="1"/>
		<rect x="18" y="53" fill="#4A2745" width="1" height="1"/>
		<rect x="10" y="53" fill="#4E2D55" width="1" height="1"/>
		<rect x="6" y="53" fill="#261627" width="1" height="1"/>
		<rect x="5" y="53" fill="#441A2A" width="1" height="1"/>
		<rect x="4" y="53" fill="#A22633" width="1" height="1"/>
		<rect x="3" y="53" fill="#441A2A" width="1" height="1"/>
		<rect x="2" y="53" fill="#261627" width="1" height="1"/>
		<rect x="7" y="52" fill="#261627" width="1" height="1"/>
		<rect x="6" y="52" fill="#441A2A" width="1" height="1"/>
		<rect x="5" y="52" fill="#A22633" width="1" height="1"/>
		<rect x="4" y="52" fill="#F6757A" width="1" height="1"/>
		<rect x="3" y="52" fill="#A22633" width="1" height="1"/>
		<rect x="2" y="52" fill="#441A2A" width="1" height="1"/>
		<rect x="1" y="52" fill="#261627" width="1" height="1"/>
		<rect x="6" y="51" fill="#261627" width="1" height="1"/>
		<rect x="5" y="51" fill="#441A2A" width="1" height="1"/>
		<rect x="4" y="51" fill="#A22633" width="1" height="1"/>
		<rect x="3" y="51" fill="#441A2A" width="1" height="1"/>
		<rect x="2" y="51" fill="#261627" width="1" height="1"/>
		<rect x="27" y="50" fill="#5A3359" width="1" height="1"/>
		<rect x="5" y="50" fill="#261627" width="1" height="1"/>
		<rect x="4" y="50" fill="#441A2A" width="1" height="1"/>
		<rect x="3" y="50" fill="#261627" width="1" height="1"/>
		<rect x="21" y="49" fill="#68386C" width="1" height="1"/>
		<rect x="4" y="49" fill="#261627" width="1" height="1"/>
		<rect x="57" y="48" fill="#321F3C" width="1" height="1"/>
		<rect x="9" y="48" fill="#321F3C" width="1" height="1"/>
		<rect x="58" y="47" fill="#321F3C" width="1" height="1"/>
		<rect x="57" y="47" fill="#B55088" width="1" height="1"/>
		<rect x="56" y="47" fill="#321F3C" width="1" height="1"/>
		<rect x="10" y="47" fill="#321F3C" width="1" height="1"/>
		<rect x="9" y="47" fill="#B55088" width="1" height="1"/>
		<rect x="8" y="47" fill="#321F3C" width="1" height="1"/>
		<rect x="57" y="46" fill="#321F3C" width="1" height="1"/>
		<rect x="44" y="46" fill="#241A29" width="1" height="1"/>
		<rect x="27" y="46" fill="#4E2D55" width="1" height="1"/>
		<rect x="9" y="46" fill="#321F3C" width="1" height="1"/>
		<rect x="60" y="45" fill="#241A29" width="1" height="1"/>
		<rect x="52" y="45" fill="#261627" width="1" height="1"/>
		<rect x="36" y="45" fill="#261627" width="1" height="1"/>
		<rect x="22" y="45" fill="#143151" width="1" height="1"/>
		<rect x="4" y="45" fill="#261627" width="1" height="1"/>
		<rect x="53" y="44" fill="#261627" width="1" height="1"/>
		<rect x="52" y="44" fill="#68386C" width="1" height="1"/>
		<rect x="51" y="44" fill="#261627" width="1" height="1"/>
		<rect x="37" y="44" fill="#261627" width="1" height="1"/>
		<rect x="36" y="44" fill="#68386C" width="1" height="1"/>
		<rect x="35" y="44" fill="#261627" width="1" height="1"/>
		<rect x="5" y="44" fill="#261627" width="1" height="1"/>
		<rect x="4" y="44" fill="#68386C" width="1" height="1"/>
		<rect x="3" y="44" fill="#261627" width="1" height="1"/>
		<rect x="52" y="43" fill="#261627" width="1" height="1"/>
		<rect x="36" y="43" fill="#261627" width="1" height="1"/>
		<rect x="29" y="43" fill="#261627" width="1" height="1"/>
		<rect x="28" y="43" fill="#261627" width="1" height="1"/>
		<rect x="18" y="43" fill="#143151" width="1" height="1"/>
		<rect x="4" y="43" fill="#261627" width="1" height="1"/>
		<rect x="56" y="42" fill="#441A2A" width="1" height="1"/>
		<rect x="42" y="42" fill="#143151" width="1" height="1"/>
		<rect x="29" y="42" fill="#261627" width="1" height="1"/>
		<rect x="28" y="42" fill="#4E2D55" width="1" height="1"/>
		<rect x="27" y="42" fill="#261627" width="1" height="1"/>
		<rect x="8" y="42" fill="#441A2A" width="1" height="1"/>
		<rect x="60" y="41" fill="#321F3C" width="1" height="1"/>
		<rect x="57" y="41" fill="#441A2A" width="1" height="1"/>
		<rect x="56" y="41" fill="#59202F" width="1" height="1"/>
		<rect x="55" y="41" fill="#441A2A" width="1" height="1"/>
		<rect x="50" y="41" fill="#321F3C" width="1" height="1"/>
		<rect x="47" y="41" fill="#261627" width="1" height="1"/>
		<rect x="39" y="41" fill="#261627" width="1" height="1"/>
		<rect x="34" y="41" fill="#321F3C" width="1" height="1"/>
		<rect x="28" y="41" fill="#261627" width="1" height="1"/>
		<rect x="27" y="41" fill="#261627" width="1" height="1"/>
		<rect x="17" y="41" fill="#171D33" width="1" height="1"/>
		<rect x="12" y="41" fill="#321F3C" width="1" height="1"/>
		<rect x="2" y="41" fill="#321F3C" width="1" height="1"/>
		<rect x="58" y="40" fill="#441A2A" width="1" height="1"/>
		<rect x="57" y="40" fill="#59202F" width="1" height="1"/>
		<rect x="56" y="40" fill="#F6757A" width="1" height="1"/>
		<rect x="55" y="40" fill="#59202F" width="1" height="1"/>
		<rect x="54" y="40" fill="#441A2A" width="1" height="1"/>
		<rect x="51" y="40" fill="#321F3C" width="1" height="1"/>
		<rect x="50" y="40" fill="#B55088" width="1" height="1"/>
		<rect x="49" y="40" fill="#321F3C" width="1" height="1"/>
		<rect x="44" y="40" fill="#143151" width="1" height="1"/>
		<rect x="6" y="40" fill="#441A2A" width="1" height="1"/>
		<rect x="3" y="40" fill="#321F3C" width="1" height="1"/>
		<rect x="2" y="40" fill="#B55088" width="1" height="1"/>
		<rect x="1" y="40" fill="#321F3C" width="1" height="1"/>
		<rect x="57" y="39" fill="#441A2A" width="1" height="1"/>
		<rect x="56" y="39" fill="#59202F" width="1" height="1"/>
		<rect x="55" y="39" fill="#441A2A" width="1" height="1"/>
		<rect x="50" y="39" fill="#321F3C" width="1" height="1"/>
		<rect x="29" y="39" fill="#261627" width="1" height="1"/>
		<rect x="28" y="39" fill="#261627" width="1" height="1"/>
		<rect x="27" y="39" fill="#261627" width="1" height="1"/>
		<rect x="9" y="39" fill="#241A29" width="1" height="1"/>
		<rect x="2" y="39" fill="#321F3C" width="1" height="1"/>
		<rect x="56" y="38" fill="#441A2A" width="1" height="1"/>
		<rect x="35" y="38" fill="#261627" width="1" height="1"/>
		<rect x="30" y="38" fill="#261627" width="1" height="1"/>
		<rect x="29" y="38" fill="#143151" width="1" height="1"/>
		<rect x="28" y="38" fill="#143151" width="1" height="1"/>
		<rect x="27" y="38" fill="#261627" width="1" height="1"/>
		<rect x="10" y="38" fill="#241A29" width="1" height="1"/>
		<rect x="9" y="38" fill="#143151" width="1" height="1"/>
		<rect x="8" y="38" fill="#241A29" width="1" height="1"/>
		<rect x="31" y="37" fill="#261627" width="1" height="1"/>
		<rect x="30" y="37" fill="#143151" width="1" height="1"/>
		<rect x="29" y="37" fill="#2CE8F5" width="1" height="1"/>
		<rect x="28" y="37" fill="#143151" width="1" height="1"/>
		<rect x="27" y="37" fill="#261627" width="1" height="1"/>
		<rect x="25" y="37" fill="#261627" width="1" height="1"/>
		<rect x="11" y="37" fill="#241A29" width="1" height="1"/>
		<rect x="10" y="37" fill="#143151" width="1" height="1"/>
		<rect x="9" y="37" fill="#0099DB" width="1" height="1"/>
		<rect x="8" y="37" fill="#143151" width="1" height="1"/>
		<rect x="7" y="37" fill="#241A29" width="1" height="1"/>
		<rect x="53" y="36" fill="#241A29" width="1" height="1"/>
		<rect x="37" y="36" fill="#241A29" width="1" height="1"/>
		<rect x="31" y="36" fill="#261627" width="1" height="1"/>
		<rect x="30" y="36" fill="#143151" width="1" height="1"/>
		<rect x="29" y="36" fill="#143151" width="1" height="1"/>
		<rect x="28" y="36" fill="#261627" width="1" height="1"/>
		<rect x="10" y="36" fill="#241A29" width="1" height="1"/>
		<rect x="9" y="36" fill="#143151" width="1" height="1"/>
		<rect x="8" y="36" fill="#241A29" width="1" height="1"/>
		<rect x="5" y="36" fill="#241A29" width="1" height="1"/>
		<rect x="60" y="35" fill="#321F3C" width="1" height="1"/>
		<rect x="47" y="35" fill="#321F3C" width="1" height="1"/>
		<rect x="31" y="35" fill="#261627" width="1" height="1"/>
		<rect x="30" y="35" fill="#261627" width="1" height="1"/>
		<rect x="29" y="35" fill="#261627" width="1" height="1"/>
		<rect x="24" y="35" fill="#5C2F57" width="1" height="1"/>
		<rect x="9" y="35" fill="#241A29" width="1" height="1"/>
		<rect x="61" y="34" fill="#321F3C" width="1" height="1"/>
		<rect x="60" y="34" fill="#B55088" width="1" height="1"/>
		<rect x="59" y="34" fill="#321F3C" width="1" height="1"/>
		<rect x="18" y="34" fill="#241A29" width="1" height="1"/>
		<rect x="13" y="34" fill="#321F3C" width="1" height="1"/>
		<rect x="60" y="33" fill="#321F3C" width="1" height="1"/>
		<rect x="32" y="33" fill="#321F3C" width="1" height="1"/>
		<rect x="33" y="32" fill="#321F3C" width="1" height="1"/>
		<rect x="32" y="32" fill="#B55088" width="1" height="1"/>
		<rect x="31" y="32" fill="#321F3C" width="1" height="1"/>
		<rect x="1" y="32" fill="#321F3C" width="1" height="1"/>
		<rect x="48" y="31" fill="#321F3C" width="1" height="1"/>
		<rect x="32" y="31" fill="#321F3C" width="1" height="1"/>
		<rect x="54" y="30" fill="#261627" width="1" height="1"/>
		<rect x="38" y="30" fill="#261627" width="1" height="1"/>
		<rect x="21" y="30" fill="#261627" width="1" height="1"/>
		<rect x="6" y="30" fill="#261627" width="1" height="1"/>
		<rect x="61" y="29" fill="#261627" width="1" height="1"/>
		<rect x="45" y="29" fill="#261627" width="1" height="1"/>
		<rect x="25" y="29" fill="#68386C" width="1" height="1"/>
		<rect x="13" y="29" fill="#261627" width="1" height="1"/>
		<rect x="53" y="28" fill="#261627" width="1" height="1"/>
		<rect x="30" y="28" fill="#261627" width="1" height="1"/>
		<rect x="20" y="28" fill="#4A2745" width="1" height="1"/>
		<rect x="59" y="27" fill="#321F3C" width="1" height="1"/>
		<rect x="36" y="27" fill="#261627" width="1" height="1"/>
		<rect x="31" y="27" fill="#261627" width="1" height="1"/>
		<rect x="30" y="27" fill="#68386C" width="1" height="1"/>
		<rect x="29" y="27" fill="#261627" width="1" height="1"/>
		<rect x="21" y="27" fill="#4A2745" width="1" height="1"/>
		<rect x="20" y="27" fill="#B55088" width="1" height="1"/>
		<rect x="19" y="27" fill="#4A2745" width="1" height="1"/>
		<rect x="11" y="27" fill="#321F3C" width="1" height="1"/>
		<rect x="39" y="26" fill="#B55088" width="1" height="1"/>
		<rect x="30" y="26" fill="#261627" width="1" height="1"/>
		<rect x="20" y="26" fill="#4A2745" width="1" height="1"/>
		<rect x="45" y="25" fill="#321F3C" width="1" height="1"/>
		<rect x="18" y="25" fill="#261627" width="1" height="1"/>
		<rect x="7" y="25" fill="#441A2A" width="1" height="1"/>
		<rect x="54" y="24" fill="#321F3C" width="1" height="1"/>
		<rect x="46" y="24" fill="#321F3C" width="1" height="1"/>
		<rect x="45" y="24" fill="#0099DB" width="1" height="1"/>
		<rect x="44" y="24" fill="#321F3C" width="1" height="1"/>
		<rect x="38" y="24" fill="#441A2A" width="1" height="1"/>
		<rect x="60" y="23" fill="#241A29" width="1" height="1"/>
		<rect x="45" y="23" fill="#321F3C" width="1" height="1"/>
		<rect x="61" y="22" fill="#241A29" width="1" height="1"/>
		<rect x="60" y="22" fill="#143151" width="1" height="1"/>
		<rect x="59" y="22" fill="#241A29" width="1" height="1"/>
		<rect x="25" y="22" fill="#59202F" width="1" height="1"/>
		<rect x="62" y="21" fill="#241A29" width="1" height="1"/>
		<rect x="61" y="21" fill="#143151" width="1" height="1"/>
		<rect x="60" y="21" fill="#0099DB" width="1" height="1"/>
		<rect x="59" y="21" fill="#143151" width="1" height="1"/>
		<rect x="58" y="21" fill="#241A29" width="1" height="1"/>
		<rect x="34" y="21" fill="#4A2745" width="1" height="1"/>
		<rect x="31" y="21" fill="#68386C" width="1" height="1"/>
		<rect x="2" y="21" fill="#4A2745" width="1" height="1"/>
		<rect x="61" y="20" fill="#241A29" width="1" height="1"/>
		<rect x="60" y="20" fill="#143151" width="1" height="1"/>
		<rect x="59" y="20" fill="#241A29" width="1" height="1"/>
		<rect x="35" y="20" fill="#4A2745" width="1" height="1"/>
		<rect x="34" y="20" fill="#68386C" width="1" height="1"/>
		<rect x="33" y="20" fill="#4A2745" width="1" height="1"/>
		<rect x="18" y="20" fill="#4A2745" width="1" height="1"/>
		<rect x="3" y="20" fill="#4A2745" width="1" height="1"/>
		<rect x="2" y="20" fill="#68386C" width="1" height="1"/>
		<rect x="1" y="20" fill="#4A2745" width="1" height="1"/>
		<rect x="60" y="19" fill="#241A29" width="1" height="1"/>
		<rect x="50" y="19" fill="#4A2745" width="1" height="1"/>
		<rect x="34" y="19" fill="#4A2745" width="1" height="1"/>
		<rect x="2" y="19" fill="#4A2745" width="1" height="1"/>
		<rect x="63" y="18" fill="#68386C" width="1" height="1"/>
		<rect x="47" y="18" fill="#68386C" width="1" height="1"/>
		<rect x="28" y="18" fill="#1E5767" width="1" height="1"/>
		<rect x="15" y="18" fill="#68386C" width="1" height="1"/>
		<rect x="8" y="18" fill="#241A29" width="1" height="1"/>
		<rect x="57" y="17" fill="#59202F" width="1" height="1"/>
		<rect x="23" y="17" fill="#321F3C" width="1" height="1"/>
		<rect x="10" y="16" fill="#441A2A" width="1" height="1"/>
		<rect x="53" y="14" fill="#68386C" width="1" height="1"/>
		<rect x="21" y="14" fill="#68386C" width="1" height="1"/>
		<rect x="5" y="14" fill="#68386C" width="1" height="1"/>
		<rect x="58" y="13" fill="#321F3C" width="1" height="1"/>
		<rect x="26" y="13" fill="#321F3C" width="1" height="1"/>
		<rect x="61" y="12" fill="#68386C" width="1" height="1"/>
		<rect x="59" y="12" fill="#321F3C" width="1" height="1"/>
		<rect x="58" y="12" fill="#B55088" width="1" height="1"/>
		<rect x="57" y="12" fill="#321F3C" width="1" height="1"/>
		<rect x="44" y="12" fill="#4A2745" width="1" height="1"/>
		<rect x="29" y="12" fill="#68386C" width="1" height="1"/>
		<rect x="27" y="12" fill="#321F3C" width="1" height="1"/>
		<rect x="26" y="12" fill="#B55088" width="1" height="1"/>
		<rect x="25" y="12" fill="#321F3C" width="1" height="1"/>
		<rect x="13" y="12" fill="#68386C" width="1" height="1"/>
		<rect x="58" y="11" fill="#321F3C" width="1" height="1"/>
		<rect x="55" y="11" fill="#241A29" width="1" height="1"/>
		<rect x="50" y="11" fill="#B55088" width="1" height="1"/>
		<rect x="26" y="11" fill="#321F3C" width="1" height="1"/>
		<rect x="23" y="11" fill="#241A29" width="1" height="1"/>
		<rect x="7" y="11" fill="#241A29" width="1" height="1"/>
		<rect x="2" y="11" fill="#B55088" width="1" height="1"/>
		<rect x="38" y="10" fill="#241A29" width="1" height="1"/>
		<rect x="32" y="10" fill="#68386C" width="1" height="1"/>
		<rect x="39" y="9" fill="#241A29" width="1" height="1"/>
		<rect x="38" y="9" fill="#59202F" width="1" height="1"/>
		<rect x="37" y="9" fill="#441A2A" width="1" height="1"/>
		<rect x="38" y="8" fill="#441A2A" width="1" height="1"/>
		<rect x="58" y="7" fill="#68386C" width="1" height="1"/>
		<rect x="45" y="7" fill="#4E2D55" width="1" height="1"/>
		<rect x="26" y="7" fill="#68386C" width="1" height="1"/>
		<rect x="10" y="7" fill="#68386C" width="1" height="1"/>
		<rect x="61" y="6" fill="#241A29" width="1" height="1"/>
		<rect x="46" y="6" fill="#4E2D55" width="1" height="1"/>
		<rect x="45" y="6" fill="#804075" width="1" height="1"/>
		<rect x="44" y="6" fill="#4A2745" width="1" height="1"/>
		<rect x="15" y="6" fill="#261627" width="1" height="1"/>
		<rect x="62" y="5" fill="#241A29" width="1" height="1"/>
		<rect x="61" y="5" fill="#143151" width="1" height="1"/>
		<rect x="60" y="5" fill="#241A29" width="1" height="1"/>
		<rect x="53" y="5" fill="#4E2D55" width="1" height="1"/>
		<rect x="45" y="5" fill="#4A2745" width="1" height="1"/>
		<rect x="21" y="5" fill="#4E2D55" width="1" height="1"/>
		<rect x="12" y="5" fill="#441A2A" width="1" height="1"/>
		<rect x="63" y="4" fill="#241A29" width="1" height="1"/>
		<rect x="62" y="4" fill="#143151" width="1" height="1"/>
		<rect x="61" y="4" fill="#0099DB" width="1" height="1"/>
		<rect x="60" y="4" fill="#143151" width="1" height="1"/>
		<rect x="59" y="4" fill="#241A29" width="1" height="1"/>
		<rect x="57" y="4" fill="#241A29" width="1" height="1"/>
		<rect x="13" y="4" fill="#441A2A" width="1" height="1"/>
		<rect x="12" y="4" fill="#A22633" width="1" height="1"/>
		<rect x="11" y="4" fill="#441A2A" width="1" height="1"/>
		<rect x="9" y="4" fill="#241A29" width="1" height="1"/>
		<rect x="62" y="3" fill="#241A29" width="1" height="1"/>
		<rect x="61" y="3" fill="#143151" width="1" height="1"/>
		<rect x="60" y="3" fill="#241A29" width="1" height="1"/>
		<rect x="12" y="3" fill="#441A2A" width="1" height="1"/>
		<rect x="61" y="2" fill="#241A29" width="1" height="1"/>
		<rect x="36" y="2" fill="#5A3359" width="1" height="1"/>
		<rect x="42" y="1" fill="#68386C" width="1" height="1"/>
		<rect x="54" fill="#321F3C" width="1" height="1"/>
	</g>
</g>
</svg>
