<?xml version="1.0" encoding="utf-8"?>
<!-- Generator: Adobe Illustrator 16.0.0, SVG Export Plug-In . SVG Version: 6.00 Build 0)  -->
<!DOCTYPE svg PUBLIC "-//W3C//DTD SVG 1.1//EN" "http://www.w3.org/Graphics/SVG/1.1/DTD/svg11.dtd">
<svg version="1.1" id="Icons" xmlns="http://www.w3.org/2000/svg" xmlns:xlink="http://www.w3.org/1999/xlink" x="0px" y="0px"
	 width="64px" height="64px" viewBox="0 0 64 64" enable-background="new 0 0 64 64" xml:space="preserve">
<g>
	<rect fill="#1E1638" width="64" height="64"/>
	<g>
		<rect x="34" y="63" fill="#453771" width="1" height="1"/>
		<rect x="62" y="61" fill="#FEE761" width="1" height="1"/>
		<rect x="6" y="61" fill="#FEE761" width="1" height="1"/>
		<rect x="57" y="59" fill="#504083" width="1" height="1"/>
		<rect x="49" y="59" fill="#8B73DA" width="1" height="1"/>
		<rect x="41" y="59" fill="#FEAE34" width="1" height="1"/>
		<rect x="33" y="59" fill="#504083" width="1" height="1"/>
		<rect x="17" y="59" fill="#8B73DA" width="1" height="1"/>
		<rect x="9" y="59" fill="#FEAE34" width="1" height="1"/>
		<rect x="1" y="59" fill="#504083" width="1" height="1"/>
		<rect x="42" y="58" fill="#FEAE34" width="1" height="1"/>
		<rect x="41" y="58" fill="#FEE761" width="1" height="1"/>
		<rect x="40" y="58" fill="#FEAE34" width="1" height="1"/>
		<rect x="38" y="58" fill="#2CE8F5" width="1" height="1"/>
		<rect x="10" y="58" fill="#FEAE34" width="1" height="1"/>
		<rect x="9" y="58" fill="#FEE761" width="1" height="1"/>
		<rect x="8" y="58" fill="#FEAE34" width="1" height="1"/>
		<rect x="54" y="57" fill="#504083" width="1" height="1"/>
		<rect x="41" y="57" fill="#FEAE34" width="1" height="1"/>
		<rect x="25" y="57" fill="#504083" width="1" height="1"/>
		<rect x="22" y="57" fill="#504083" width="1" height="1"/>
		<rect x="9" y="57" fill="#FEAE34" width="1" height="1"/>
		<rect x="52" y="54" fill="#0099DB" width="1" height="1"/>
		<rect x="20" y="54" fill="#0099DB" width="1" height="1"/>
		<rect x="58" y="53" fill="#FEE761" width="1" height="1"/>
		<rect x="53" y="53" fill="#0099DB" width="1" height="1"/>
		<rect x="52" y="53" fill="#2CE8F5" width="1" height="1"/>
		<rect x="51" y="53" fill="#0099DB" width="1" height="1"/>
		<rect x="45" y="53" fill="#504083" width="1" height="1"/>
		<rect x="38" y="53" fill="#504083" width="1" height="1"/>
		<rect x="31" y="53" fill="#453771" width="1" height="1"/>
		<rect x="24" y="53" fill="#8B73DA" width="1" height="1"/>
		<rect x="21" y="53" fill="#0099DB" width="1" height="1"/>
		<rect x="20" y="53" fill="#2CE8F5" width="1" height="1"/>
		<rect x="19" y="53" fill="#0099DB" width="1" height="1"/>
		<rect x="13" y="53" fill="#504083" width="1" height="1"/>
		<rect x="2" y="53" fill="#FEE761" width="1" height="1"/>
		<rect x="52" y="52" fill="#0099DB" width="1" height="1"/>
		<rect x="29" y="52" fill="#504083" width="1" height="1"/>
		<rect x="26" y="52" fill="#D77643" width="1" height="1"/>
		<rect x="20" y="52" fill="#0099DB" width="1" height="1"/>
		<rect x="39" y="51" fill="#2CE8F5" width="1" height="1"/>
		<rect x="27" y="51" fill="#D77643" width="1" height="1"/>
		<rect x="26" y="51" fill="#FEE761" width="1" height="1"/>
		<rect x="25" y="51" fill="#D77643" width="1" height="1"/>
		<rect x="26" y="50" fill="#D77643" width="1" height="1"/>
		<rect x="61" y="49" fill="#504083" width="1" height="1"/>
		<rect x="5" y="49" fill="#504083" width="1" height="1"/>
		<rect x="59" y="48" fill="#453771" width="1" height="1"/>
		<rect x="47" y="48" fill="#8B73DA" width="1" height="1"/>
		<rect x="32" y="48" fill="#FEE761" width="1" height="1"/>
		<rect x="15" y="48" fill="#8B73DA" width="1" height="1"/>
		<rect x="3" y="48" fill="#453771" width="1" height="1"/>
		<rect x="54" y="45" fill="#453771" width="1" height="1"/>
		<rect x="41" y="45" fill="#504083" width="1" height="1"/>
		<rect x="22" y="45" fill="#453771" width="1" height="1"/>
		<rect x="9" y="45" fill="#504083" width="1" height="1"/>
		<rect x="55" y="44" fill="#453771" width="1" height="1"/>
		<rect x="54" y="44" fill="#8B73DA" width="1" height="1"/>
		<rect x="53" y="44" fill="#453771" width="1" height="1"/>
		<rect x="50" y="44" fill="#FEE761" width="1" height="1"/>
		<rect x="34" y="44" fill="#0099DB" width="1" height="1"/>
		<rect x="30" y="44" fill="#504083" width="1" height="1"/>
		<rect x="23" y="44" fill="#453771" width="1" height="1"/>
		<rect x="22" y="44" fill="#8B73DA" width="1" height="1"/>
		<rect x="21" y="44" fill="#453771" width="1" height="1"/>
		<rect x="18" y="44" fill="#FEE761" width="1" height="1"/>
		<rect x="54" y="43" fill="#453771" width="1" height="1"/>
		<rect x="38" y="43" fill="#453771" width="1" height="1"/>
		<rect x="35" y="43" fill="#0099DB" width="1" height="1"/>
		<rect x="34" y="43" fill="#2CE8F5" width="1" height="1"/>
		<rect x="33" y="43" fill="#0099DB" width="1" height="1"/>
		<rect x="22" y="43" fill="#453771" width="1" height="1"/>
		<rect x="39" y="42" fill="#453771" width="1" height="1"/>
		<rect x="38" y="42" fill="#8B73DA" width="1" height="1"/>
		<rect x="37" y="42" fill="#453771" width="1" height="1"/>
		<rect x="34" y="42" fill="#0099DB" width="1" height="1"/>
		<rect x="41" y="41" fill="#2CE8F5" width="1" height="1"/>
		<rect x="38" y="41" fill="#453771" width="1" height="1"/>
		<rect x="9" y="41" fill="#2CE8F5" width="1" height="1"/>
		<rect x="45" y="40" fill="#453771" width="1" height="1"/>
		<rect x="13" y="40" fill="#453771" width="1" height="1"/>
		<rect x="58" y="39" fill="#453771" width="1" height="1"/>
		<rect x="26" y="39" fill="#453771" width="1" height="1"/>
		<rect x="42" y="38" fill="#504083" width="1" height="1"/>
		<rect x="10" y="38" fill="#504083" width="1" height="1"/>
		<rect x="41" y="36" fill="#453771" width="1" height="1"/>
		<rect x="22" y="36" fill="#453771" width="1" height="1"/>
		<rect x="57" y="35" fill="#504083" width="1" height="1"/>
		<rect x="45" y="35" fill="#0099DB" width="1" height="1"/>
		<rect x="42" y="35" fill="#453771" width="1" height="1"/>
		<rect x="41" y="35" fill="#8B73DA" width="1" height="1"/>
		<rect x="40" y="35" fill="#453771" width="1" height="1"/>
		<rect x="25" y="35" fill="#504083" width="1" height="1"/>
		<rect x="23" y="35" fill="#453771" width="1" height="1"/>
		<rect x="22" y="35" fill="#8B73DA" width="1" height="1"/>
		<rect x="21" y="35" fill="#453771" width="1" height="1"/>
		<rect x="18" y="35" fill="#0099DB" width="1" height="1"/>
		<rect x="62" y="34" fill="#2CE8F5" width="1" height="1"/>
		<rect x="46" y="34" fill="#0099DB" width="1" height="1"/>
		<rect x="45" y="34" fill="#2CE8F5" width="1" height="1"/>
		<rect x="44" y="34" fill="#0099DB" width="1" height="1"/>
		<rect x="41" y="34" fill="#453771" width="1" height="1"/>
		<rect x="36" y="34" fill="#453771" width="1" height="1"/>
		<rect x="30" y="34" fill="#2CE8F5" width="1" height="1"/>
		<rect x="22" y="34" fill="#453771" width="1" height="1"/>
		<rect x="19" y="34" fill="#0099DB" width="1" height="1"/>
		<rect x="18" y="34" fill="#2CE8F5" width="1" height="1"/>
		<rect x="17" y="34" fill="#0099DB" width="1" height="1"/>
		<rect x="4" y="34" fill="#453771" width="1" height="1"/>
		<rect x="49" y="33" fill="#504083" width="1" height="1"/>
		<rect x="45" y="33" fill="#0099DB" width="1" height="1"/>
		<rect x="18" y="33" fill="#0099DB" width="1" height="1"/>
		<rect x="14" y="33" fill="#504083" width="1" height="1"/>
		<rect x="33" y="32" fill="#504083" width="1" height="1"/>
		<rect x="1" y="32" fill="#504083" width="1" height="1"/>
		<rect x="47" y="29" fill="#FEE761" width="1" height="1"/>
		<rect x="16" y="29" fill="#FEE761" width="1" height="1"/>
		<rect x="62" y="28" fill="#504083" width="1" height="1"/>
		<rect x="30" y="28" fill="#504083" width="1" height="1"/>
		<rect x="59" y="27" fill="#453771" width="1" height="1"/>
		<rect x="53" y="27" fill="#D77643" width="1" height="1"/>
		<rect x="27" y="27" fill="#453771" width="1" height="1"/>
		<rect x="10" y="27" fill="#D77643" width="1" height="1"/>
		<rect x="60" y="26" fill="#453771" width="1" height="1"/>
		<rect x="59" y="26" fill="#8B73DA" width="1" height="1"/>
		<rect x="58" y="26" fill="#453771" width="1" height="1"/>
		<rect x="54" y="26" fill="#D77643" width="1" height="1"/>
		<rect x="53" y="26" fill="#FEE761" width="1" height="1"/>
		<rect x="52" y="26" fill="#D77643" width="1" height="1"/>
		<rect x="40" y="26" fill="#2CE8F5" width="1" height="1"/>
		<rect x="28" y="26" fill="#453771" width="1" height="1"/>
		<rect x="27" y="26" fill="#8B73DA" width="1" height="1"/>
		<rect x="26" y="26" fill="#453771" width="1" height="1"/>
		<rect x="23" y="26" fill="#2CE8F5" width="1" height="1"/>
		<rect x="11" y="26" fill="#D77643" width="1" height="1"/>
		<rect x="10" y="26" fill="#FEE761" width="1" height="1"/>
		<rect x="9" y="26" fill="#D77643" width="1" height="1"/>
		<rect x="59" y="25" fill="#453771" width="1" height="1"/>
		<rect x="53" y="25" fill="#D77643" width="1" height="1"/>
		<rect x="50" y="25" fill="#504083" width="1" height="1"/>
		<rect x="35" y="25" fill="#504083" width="1" height="1"/>
		<rect x="27" y="25" fill="#453771" width="1" height="1"/>
		<rect x="13" y="25" fill="#504083" width="1" height="1"/>
		<rect x="10" y="25" fill="#D77643" width="1" height="1"/>
		<rect x="3" y="25" fill="#504083" width="1" height="1"/>
		<rect x="55" y="24" fill="#8B73DA" width="1" height="1"/>
		<rect x="48" y="24" fill="#453771" width="1" height="1"/>
		<rect x="41" y="24" fill="#504083" width="1" height="1"/>
		<rect x="32" y="24" fill="#2CE8F5" width="1" height="1"/>
		<rect x="22" y="24" fill="#504083" width="1" height="1"/>
		<rect x="15" y="24" fill="#453771" width="1" height="1"/>
		<rect x="8" y="24" fill="#8B73DA" width="1" height="1"/>
		<rect y="24" fill="#2CE8F5" width="1" height="1"/>
		<rect x="39" y="22" fill="#504083" width="1" height="1"/>
		<rect x="7" y="22" fill="#504083" width="1" height="1"/>
		<rect x="62" y="21" fill="#FEE761" width="1" height="1"/>
		<rect x="30" y="21" fill="#FEE761" width="1" height="1"/>
		<g>
			<rect x="62" y="62" fill="#BE4A2F" width="1" height="1"/>
			<rect x="6" y="62" fill="#BE4A2F" width="1" height="1"/>
			<rect x="63" y="61" fill="#BE4A2F" width="1" height="1"/>
			<rect x="61" y="61" fill="#BE4A2F" width="1" height="1"/>
			<rect x="7" y="61" fill="#BE4A2F" width="1" height="1"/>
			<rect x="5" y="61" fill="#BE4A2F" width="1" height="1"/>
			<rect x="62" y="60" fill="#BE4A2F" width="1" height="1"/>
			<rect x="6" y="60" fill="#BE4A2F" width="1" height="1"/>
			<rect x="50" y="45" fill="#BE4A2F" width="1" height="1"/>
			<rect x="18" y="45" fill="#BE4A2F" width="1" height="1"/>
			<rect x="51" y="44" fill="#BE4A2F" width="1" height="1"/>
			<rect x="49" y="44" fill="#BE4A2F" width="1" height="1"/>
			<rect x="19" y="44" fill="#BE4A2F" width="1" height="1"/>
			<rect x="17" y="44" fill="#BE4A2F" width="1" height="1"/>
			<rect x="50" y="43" fill="#BE4A2F" width="1" height="1"/>
			<rect x="18" y="43" fill="#BE4A2F" width="1" height="1"/>
			<rect x="62" y="22" fill="#BE4A2F" width="1" height="1"/>
			<rect x="30" y="22" fill="#BE4A2F" width="1" height="1"/>
			<rect x="63" y="21" fill="#BE4A2F" width="1" height="1"/>
			<rect x="61" y="21" fill="#BE4A2F" width="1" height="1"/>
			<rect x="31" y="21" fill="#BE4A2F" width="1" height="1"/>
			<rect x="29" y="21" fill="#BE4A2F" width="1" height="1"/>
			<rect x="62" y="20" fill="#BE4A2F" width="1" height="1"/>
			<rect x="30" y="20" fill="#BE4A2F" width="1" height="1"/>
		</g>
		<rect x="57" y="19" fill="#504083" width="1" height="1"/>
		<rect x="43" y="19" fill="#453771" width="1" height="1"/>
		<rect x="25" y="19" fill="#504083" width="1" height="1"/>
		<rect x="11" y="19" fill="#453771" width="1" height="1"/>
		<rect x="44" y="18" fill="#453771" width="1" height="1"/>
		<rect x="43" y="18" fill="#8B73DA" width="1" height="1"/>
		<rect x="42" y="18" fill="#453771" width="1" height="1"/>
		<rect x="35" y="18" fill="#FEE761" width="1" height="1"/>
		<rect x="12" y="18" fill="#453771" width="1" height="1"/>
		<rect x="11" y="18" fill="#8B73DA" width="1" height="1"/>
		<rect x="10" y="18" fill="#453771" width="1" height="1"/>
		<rect x="3" y="18" fill="#FEE761" width="1" height="1"/>
		<rect x="43" y="17" fill="#453771" width="1" height="1"/>
		<rect x="32" y="17" fill="#8B73DA" width="1" height="1"/>
		<rect x="11" y="17" fill="#453771" width="1" height="1"/>
		<g>
			<rect x="35" y="19" fill="#F77622" width="1" height="1"/>
			<rect x="3" y="19" fill="#F77622" width="1" height="1"/>
			<rect x="36" y="18" fill="#F77622" width="1" height="1"/>
			<rect x="34" y="18" fill="#F77622" width="1" height="1"/>
			<rect x="4" y="18" fill="#F77622" width="1" height="1"/>
			<rect x="2" y="18" fill="#F77622" width="1" height="1"/>
			<rect x="35" y="17" fill="#F77622" width="1" height="1"/>
			<rect x="3" y="17" fill="#F77622" width="1" height="1"/>
		</g>
		<rect y="17" fill="#8B73DA" width="1" height="1"/>
		<rect x="54" y="14" fill="#453771" width="1" height="1"/>
		<rect x="22" y="14" fill="#453771" width="1" height="1"/>
		<rect x="58" y="13" fill="#FEE761" width="1" height="1"/>
		<rect x="55" y="13" fill="#453771" width="1" height="1"/>
		<rect x="54" y="13" fill="#8B73DA" width="1" height="1"/>
		<rect x="53" y="13" fill="#453771" width="1" height="1"/>
		<rect x="50" y="13" fill="#0099DB" width="1" height="1"/>
		<rect x="34" y="13" fill="#FEE761" width="1" height="1"/>
		<rect x="23" y="13" fill="#453771" width="1" height="1"/>
		<rect x="22" y="13" fill="#8B73DA" width="1" height="1"/>
		<rect x="21" y="13" fill="#453771" width="1" height="1"/>
		<rect x="18" y="13" fill="#0099DB" width="1" height="1"/>
		<rect x="2" y="13" fill="#FEE761" width="1" height="1"/>
		<rect x="54" y="12" fill="#453771" width="1" height="1"/>
		<rect x="51" y="12" fill="#0099DB" width="1" height="1"/>
		<rect x="50" y="12" fill="#2CE8F5" width="1" height="1"/>
		<rect x="49" y="12" fill="#0099DB" width="1" height="1"/>
		<rect x="22" y="12" fill="#453771" width="1" height="1"/>
		<rect x="19" y="12" fill="#0099DB" width="1" height="1"/>
		<rect x="18" y="12" fill="#2CE8F5" width="1" height="1"/>
		<rect x="17" y="12" fill="#0099DB" width="1" height="1"/>
		<rect x="50" y="11" fill="#0099DB" width="1" height="1"/>
		<rect x="46" y="11" fill="#504083" width="1" height="1"/>
		<rect x="18" y="11" fill="#0099DB" width="1" height="1"/>
		<rect x="14" y="11" fill="#504083" width="1" height="1"/>
		<rect x="27" y="10" fill="#2CE8F5" width="1" height="1"/>
		<rect x="61" y="9" fill="#504083" width="1" height="1"/>
		<rect x="37" y="9" fill="#504083" width="1" height="1"/>
		<rect x="5" y="9" fill="#504083" width="1" height="1"/>
		<rect x="59" y="8" fill="#453771" width="1" height="1"/>
		<rect x="35" y="8" fill="#453771" width="1" height="1"/>
		<rect x="28" y="8" fill="#504083" width="1" height="1"/>
		<rect x="3" y="8" fill="#453771" width="1" height="1"/>
		<rect x="48" y="7" fill="#FEE761" width="1" height="1"/>
		<rect x="16" y="7" fill="#FEE761" width="1" height="1"/>
		<rect x="26" y="6" fill="#504083" width="1" height="1"/>
		<rect x="42" y="5" fill="#D77643" width="1" height="1"/>
		<rect x="10" y="5" fill="#D77643" width="1" height="1"/>
		<rect x="55" y="4" fill="#2CE8F5" width="1" height="1"/>
		<rect x="43" y="4" fill="#D77643" width="1" height="1"/>
		<rect x="42" y="4" fill="#FEE761" width="1" height="1"/>
		<rect x="41" y="4" fill="#D77643" width="1" height="1"/>
		<rect x="23" y="4" fill="#2CE8F5" width="1" height="1"/>
		<rect x="11" y="4" fill="#D77643" width="1" height="1"/>
		<rect x="10" y="4" fill="#FEE761" width="1" height="1"/>
		<rect x="9" y="4" fill="#D77643" width="1" height="1"/>
		<rect x="45" y="3" fill="#504083" width="1" height="1"/>
		<rect x="42" y="3" fill="#D77643" width="1" height="1"/>
		<rect x="30" y="3" fill="#453771" width="1" height="1"/>
		<rect x="13" y="3" fill="#504083" width="1" height="1"/>
		<rect x="10" y="3" fill="#D77643" width="1" height="1"/>
		<rect x="54" y="2" fill="#504083" width="1" height="1"/>
		<rect x="47" y="2" fill="#453771" width="1" height="1"/>
		<rect x="40" y="2" fill="#8B73DA" width="1" height="1"/>
		<rect x="31" y="2" fill="#453771" width="1" height="1"/>
		<rect x="30" y="2" fill="#8B73DA" width="1" height="1"/>
		<rect x="29" y="2" fill="#453771" width="1" height="1"/>
		<rect x="22" y="2" fill="#504083" width="1" height="1"/>
		<rect x="15" y="2" fill="#453771" width="1" height="1"/>
		<rect x="8" y="2" fill="#8B73DA" width="1" height="1"/>
		<g>
			<rect x="37" y="61" fill="#32257B" width="1" height="1"/>
			<rect x="43" y="60" fill="#32257B" width="1" height="1"/>
			<rect x="11" y="60" fill="#32257B" width="1" height="1"/>
			<rect x="60" y="58" fill="#32257B" width="1" height="1"/>
			<rect x="4" y="58" fill="#32257B" width="1" height="1"/>
			<rect x="37" y="56" fill="#32257B" width="1" height="1"/>
			<rect x="54" y="54" fill="#32257B" width="1" height="1"/>
			<rect x="42" y="54" fill="#32257B" width="1" height="1"/>
			<rect x="22" y="54" fill="#32257B" width="1" height="1"/>
			<rect x="10" y="54" fill="#32257B" width="1" height="1"/>
			<rect x="56" y="51" fill="#32257B" width="1" height="1"/>
			<rect y="51" fill="#32257B" width="1" height="1"/>
			<rect x="34" y="50" fill="#32257B" width="1" height="1"/>
			<rect x="52" y="49" fill="#32257B" width="1" height="1"/>
			<rect x="26" y="49" fill="#32257B" width="1" height="1"/>
			<rect x="20" y="49" fill="#32257B" width="1" height="1"/>
			<rect x="42" y="48" fill="#32257B" width="1" height="1"/>
			<rect x="10" y="48" fill="#32257B" width="1" height="1"/>
			<rect x="37" y="46" fill="#32257B" width="1" height="1"/>
			<rect x="45" y="43" fill="#32257B" width="1" height="1"/>
			<rect x="13" y="43" fill="#32257B" width="1" height="1"/>
			<rect x="59" y="42" fill="#32257B" width="1" height="1"/>
			<rect x="3" y="42" fill="#32257B" width="1" height="1"/>
			<rect x="61" y="37" fill="#32257B" width="1" height="1"/>
			<rect x="29" y="37" fill="#32257B" width="1" height="1"/>
			<rect x="34" y="35" fill="#32257B" width="1" height="1"/>
			<rect x="2" y="35" fill="#32257B" width="1" height="1"/>
			<rect x="61" y="32" fill="#32257B" width="1" height="1"/>
			<rect x="29" y="32" fill="#32257B" width="1" height="1"/>
			<rect x="42" y="31" fill="#32257B" width="1" height="1"/>
			<rect x="21" y="31" fill="#32257B" width="1" height="1"/>
			<rect x="35" y="29" fill="#32257B" width="1" height="1"/>
			<rect x="3" y="29" fill="#32257B" width="1" height="1"/>
			<rect x="53" y="28" fill="#32257B" width="1" height="1"/>
			<rect x="10" y="28" fill="#32257B" width="1" height="1"/>
			<rect x="45" y="27" fill="#32257B" width="1" height="1"/>
			<rect x="18" y="27" fill="#32257B" width="1" height="1"/>
			<rect x="63" y="25" fill="#32257B" width="1" height="1"/>
			<rect x="31" y="25" fill="#32257B" width="1" height="1"/>
			<rect x="60" y="18" fill="#32257B" width="1" height="1"/>
			<rect x="48" y="18" fill="#32257B" width="1" height="1"/>
			<rect x="38" y="18" fill="#32257B" width="2" height="2"/>
			<rect x="28" y="18" fill="#32257B" width="1" height="1"/>
			<rect x="16" y="18" fill="#32257B" width="1" height="1"/>
			<rect x="6" y="18" fill="#32257B" width="2" height="2"/>
			<rect x="29" y="15" fill="#32257B" width="1" height="1"/>
			<rect x="56" y="11" fill="#32257B" width="1" height="1"/>
			<rect x="32" y="11" fill="#32257B" width="1" height="1"/>
			<rect y="11" fill="#32257B" width="1" height="1"/>
			<rect x="53" y="9" fill="#32257B" width="1" height="1"/>
			<rect x="21" y="9" fill="#32257B" width="1" height="1"/>
			<rect x="42" y="6" fill="#32257B" width="1" height="1"/>
			<rect x="10" y="6" fill="#32257B" width="1" height="1"/>
			<rect x="50" y="5" fill="#32257B" width="1" height="1"/>
			<rect x="18" y="5" fill="#32257B" width="1" height="1"/>
			<rect x="59" y="2" fill="#32257B" width="1" height="1"/>
			<rect x="35" y="2" fill="#32257B" width="1" height="1"/>
			<rect x="25" y="2" fill="#32257B" width="2" height="2"/>
			<rect x="3" y="2" fill="#32257B" width="1" height="1"/>
		</g>
		<rect x="30" y="1" fill="#453771" width="1" height="1"/>
		<g>
			<rect x="28" y="63" fill="#2A1B5D" width="2" height="1"/>
			<rect x="59" y="62" fill="#2A1B5D" width="1" height="1"/>
			<rect x="3" y="62" fill="#2A1B5D" width="1" height="1"/>
			<polygon fill="#2A1B5D" points="61,59 60,59 60,58 59,58 59,60 62,60 62,58 61,58 			"/>
			<rect x="52" y="58" fill="#2A1B5D" width="2" height="2"/>
			<rect x="20" y="58" fill="#2A1B5D" width="2" height="2"/>
			<polygon fill="#2A1B5D" points="5,59 4,59 4,58 3,58 3,60 6,60 6,58 5,58 			"/>
			<rect x="28" y="57" fill="#2A1B5D" width="2" height="2"/>
			<rect x="38" y="56" fill="#2A1B5D" width="1" height="1"/>
			<polygon fill="#2A1B5D" points="37,56 36,56 36,58 38,58 38,57 37,57 			"/>
			<polygon fill="#2A1B5D" points="43,55 42,55 42,56 44,56 44,54 43,54 			"/>
			<rect x="33" y="54" fill="#2A1B5D" width="1" height="1"/>
			<polygon fill="#2A1B5D" points="11,55 10,55 10,56 12,56 12,54 11,54 			"/>
			<polygon fill="#2A1B5D" points="43,54 43,53 41,53 41,55 42,55 42,54 			"/>
			<polygon fill="#2A1B5D" points="11,54 11,53 9,53 9,55 10,55 10,54 			"/>
			<rect x="39" y="50" fill="#2A1B5D" width="1" height="1"/>
			<rect x="27" y="49" fill="#2A1B5D" width="1" height="2"/>
			<polygon fill="#2A1B5D" points="25,48 25,50 26,50 26,49 27,49 27,48 			"/>
			<rect x="57" y="47" fill="#2A1B5D" width="1" height="1"/>
			<path fill="#2A1B5D" d="M53,47v1h-2v2h-1v2h2v-1h2v-2h1v-2H53z M53,50h-1v-1h1V50z"/>
			<path fill="#2A1B5D" d="M21,47v1h-2v2h-1v2h2v-1h2v-2h1v-2H21z M21,50h-1v-1h1V50z"/>
			<rect x="1" y="47" fill="#2A1B5D" width="1" height="1"/>
			<polygon fill="#2A1B5D" points="37,46 36,46 36,48 38,48 38,47 37,47 			"/>
			<polygon fill="#2A1B5D" points="37,45 37,46 38,46 38,47 39,47 39,45 			"/>
			<polygon fill="#2A1B5D" points="60,44 60,43 59,43 59,42 58,42 58,44 			"/>
			<polygon fill="#2A1B5D" points="46,44 45,44 45,45 47,45 47,43 46,43 			"/>
			<rect x="26" y="43" fill="#2A1B5D" width="2" height="2"/>
			<polygon fill="#2A1B5D" points="14,44 13,44 13,45 15,45 15,43 14,43 			"/>
			<polygon fill="#2A1B5D" points="4,44 4,43 3,43 3,42 2,42 2,44 			"/>
			<polygon fill="#2A1B5D" points="60,43 61,43 61,41 59,41 59,42 60,42 			"/>
			<polygon fill="#2A1B5D" points="46,43 46,42 44,42 44,44 45,44 45,43 			"/>
			<polygon fill="#2A1B5D" points="14,43 14,42 12,42 12,44 13,44 13,43 			"/>
			<polygon fill="#2A1B5D" points="4,43 5,43 5,41 3,41 3,42 4,42 			"/>
			<rect x="52" y="39" fill="#2A1B5D" width="2" height="2"/>
			<rect x="20" y="39" fill="#2A1B5D" width="2" height="2"/>
			<rect x="52" y="33" fill="#2A1B5D" width="2" height="2"/>
			<rect x="10" y="33" fill="#2A1B5D" width="2" height="2"/>
			<polygon fill="#2A1B5D" points="61,32 60,32 60,34 62,34 62,33 61,33 			"/>
			<polygon fill="#2A1B5D" points="29,32 28,32 28,34 30,34 30,33 29,33 			"/>
			<polygon fill="#2A1B5D" points="61,31 61,32 62,32 62,33 63,33 63,31 			"/>
			<polygon fill="#2A1B5D" points="42,31 41,31 41,33 43,33 43,32 42,32 			"/>
			<path fill="#2A1B5D" d="M36,32h2v-2h-1v-2h-2v-1h-2v2h1v2h2V32z M35,30v-1h1v1H35z"/>
			<polygon fill="#2A1B5D" points="29,31 29,32 30,32 30,33 31,33 31,31 			"/>
			<polygon fill="#2A1B5D" points="22,32 21,32 21,33 23,33 23,31 22,31 			"/>
			<polygon fill="#2A1B5D" points="42,30 42,31 43,31 43,32 44,32 44,30 			"/>
			<polygon fill="#2A1B5D" points="22,31 22,30 20,30 20,32 21,32 21,31 			"/>
			<path fill="#2A1B5D" d="M5,28H3v-1H1v2h1v2h2v1h2v-2H5V28z M3,30v-1h1v1H3z"/>
			<polygon fill="#2A1B5D" points="54,29 53,29 53,30 55,30 55,28 54,28 			"/>
			<rect x="11" y="27" fill="#2A1B5D" width="1" height="2"/>
			<polygon fill="#2A1B5D" points="10,28 9,28 9,30 11,30 11,29 10,29 			"/>
			<rect x="56" y="26" fill="#2A1B5D" width="1" height="2"/>
			<rect x="52" y="27" fill="#2A1B5D" width="1" height="2"/>
			<rect x="40" y="27" fill="#2A1B5D" width="1" height="1"/>
			<polygon fill="#2A1B5D" points="25,26 24,26 24,27 23,27 23,28 25,28 			"/>
			<rect x="46" y="23" fill="#2A1B5D" width="1" height="1"/>
			<rect x="17" y="23" fill="#2A1B5D" width="1" height="1"/>
			<rect x="59" y="22" fill="#2A1B5D" width="1" height="1"/>
			<polygon fill="#2A1B5D" points="34,23 34,20 33,20 33,19 32,19 32,23 			"/>
			<rect x="27" y="22" fill="#2A1B5D" width="1" height="1"/>
			<polygon fill="#2A1B5D" points="2,23 2,20 1,20 1,19 0,19 0,23 			"/>
			<polygon fill="#2A1B5D" points="62,20 62,18 61,18 61,19 60,19 60,18 59,18 59,20 			"/>
			<polygon fill="#2A1B5D" points="37,19 37,21 39,21 39,20 38,20 38,19 			"/>
			<polygon fill="#2A1B5D" points="17,19 16,19 16,18 15,18 15,20 17,20 			"/>
			<polygon fill="#2A1B5D" points="6,19 5,19 5,21 7,21 7,20 6,20 			"/>
			<polygon fill="#2A1B5D" points="50,17 48,17 48,18 49,18 49,19 50,19 			"/>
			<polygon fill="#2A1B5D" points="48,18 47,18 47,20 49,20 49,19 48,19 			"/>
			<polygon fill="#2A1B5D" points="40,19 41,19 41,17 39,17 39,18 40,18 			"/>
			<polygon fill="#2A1B5D" points="27,18 27,20 30,20 30,18 29,18 29,19 28,19 28,18 			"/>
			<polygon fill="#2A1B5D" points="17,19 18,19 18,17 16,17 16,18 17,18 			"/>
			<polygon fill="#2A1B5D" points="9,19 9,17 7,17 7,18 8,18 8,19 			"/>
			<rect x="28" y="15" fill="#2A1B5D" width="1" height="1"/>
			<polygon fill="#2A1B5D" points="29,14 29,15 30,15 30,16 31,16 31,14 			"/>
			<rect x="24" y="14" fill="#2A1B5D" width="1" height="2"/>
			<rect x="42" y="11" fill="#2A1B5D" width="2" height="2"/>
			<rect x="10" y="11" fill="#2A1B5D" width="2" height="2"/>
			<rect x="27" y="11" fill="#2A1B5D" width="1" height="1"/>
			<polygon fill="#2A1B5D" points="21,10 21,11 23,11 23,9 22,9 22,10 			"/>
			<polygon fill="#2A1B5D" points="54,10 53,10 53,11 55,11 55,9 54,9 			"/>
			<polygon fill="#2A1B5D" points="21,9 22,9 22,8 20,8 20,10 21,10 			"/>
			<polygon fill="#2A1B5D" points="54,9 54,8 52,8 52,10 53,10 53,9 			"/>
			<rect x="57" y="7" fill="#2A1B5D" width="1" height="1"/>
			<polygon fill="#2A1B5D" points="43,8 43,7 42,7 42,6 41,6 41,8 			"/>
			<rect x="33" y="7" fill="#2A1B5D" width="1" height="1"/>
			<polygon fill="#2A1B5D" points="11,8 11,7 10,7 10,6 9,6 9,8 			"/>
			<rect x="1" y="7" fill="#2A1B5D" width="1" height="1"/>
			<rect x="43" y="5" fill="#2A1B5D" width="1" height="2"/>
			<rect x="11" y="5" fill="#2A1B5D" width="1" height="2"/>
			<rect x="55" y="5" fill="#2A1B5D" width="1" height="1"/>
			<rect x="23" y="5" fill="#2A1B5D" width="1" height="1"/>
			<polygon fill="#2A1B5D" points="26,5 26,4 25,4 25,3 24,3 24,5 			"/>
			<polygon fill="#2A1B5D" points="60,4 60,3 59,3 59,2 58,2 58,4 			"/>
			<polygon fill="#2A1B5D" points="36,4 36,3 35,3 35,2 34,2 34,4 			"/>
			<polygon fill="#2A1B5D" points="4,4 4,3 3,3 3,2 2,2 2,4 			"/>
			<polygon fill="#2A1B5D" points="60,3 61,3 61,1 59,1 59,2 60,2 			"/>
			<polygon fill="#2A1B5D" points="36,3 37,3 37,1 35,1 35,2 36,2 			"/>
			<polygon fill="#2A1B5D" points="27,3 28,3 28,1 26,1 26,2 27,2 			"/>
			<polygon fill="#2A1B5D" points="4,3 5,3 5,1 3,1 3,2 4,2 			"/>
			<rect x="49" y="1" fill="#2A1B5D" width="1" height="1"/>
			<rect x="17" y="1" fill="#2A1B5D" width="1" height="1"/>
		</g>
		<g>
			<rect x="60" y="62" fill="#24194C" width="1" height="1"/>
			<rect x="4" y="62" fill="#24194C" width="1" height="1"/>
			<rect x="59" y="60" fill="#24194C" width="3" height="1"/>
			<polygon fill="#24194C" points="52,60 52,59 51,59 51,61 54,61 54,60 			"/>
			<polygon fill="#24194C" points="20,60 20,59 19,59 19,61 22,61 22,60 			"/>
			<rect x="3" y="60" fill="#24194C" width="3" height="1"/>
			<polygon fill="#24194C" points="30,59 29,59 29,60 31,60 31,58 30,58 			"/>
			<rect x="59" y="57" fill="#24194C" width="3" height="1"/>
			<rect x="3" y="57" fill="#24194C" width="3" height="1"/>
			<polygon fill="#24194C" points="29,56 27,56 27,58 28,58 28,57 29,57 			"/>
			<polygon fill="#24194C" points="44,56 43,56 43,57 45,57 45,55 44,55 			"/>
			<polygon fill="#24194C" points="12,56 11,56 11,57 13,57 13,55 12,55 			"/>
			<polygon fill="#24194C" points="51,52 50,52 50,51 49,51 49,53 51,53 			"/>
			<polygon fill="#24194C" points="19,52 18,52 18,51 17,51 17,53 19,53 			"/>
			<rect x="52" y="51" fill="#24194C" width="2" height="1"/>
			<rect x="20" y="51" fill="#24194C" width="2" height="1"/>
			<rect x="54" y="49" fill="#24194C" width="1" height="2"/>
			<rect x="22" y="49" fill="#24194C" width="1" height="2"/>
			<rect x="50" y="48" fill="#24194C" width="1" height="2"/>
			<rect x="18" y="48" fill="#24194C" width="1" height="2"/>
			<rect x="51" y="47" fill="#24194C" width="2" height="1"/>
			<rect x="19" y="47" fill="#24194C" width="2" height="1"/>
			<polygon fill="#24194C" points="54,46 54,47 55,47 55,48 56,48 56,46 			"/>
			<polygon fill="#24194C" points="22,46 22,47 23,47 23,48 24,48 24,46 			"/>
			<polygon fill="#24194C" points="59,44 58,44 58,43 57,43 57,45 59,45 			"/>
			<polygon fill="#24194C" points="28,45 27,45 27,46 29,46 29,44 28,44 			"/>
			<polygon fill="#24194C" points="3,44 2,44 2,43 1,43 1,45 3,45 			"/>
			<polygon fill="#24194C" points="27,42 25,42 25,44 26,44 26,43 27,43 			"/>
			<polygon fill="#24194C" points="60,40 60,41 61,41 61,42 62,42 62,40 			"/>
			<polygon fill="#24194C" points="4,40 4,41 5,41 5,42 6,42 6,40 			"/>
			<rect x="34" y="36" fill="#24194C" width="1" height="1"/>
			<rect x="2" y="36" fill="#24194C" width="1" height="1"/>
			<polygon fill="#24194C" points="53,36 55,36 55,34 54,34 54,35 53,35 			"/>
			<rect x="39" y="35" fill="#24194C" width="1" height="2"/>
			<rect x="35" y="35" fill="#24194C" width="1" height="1"/>
			<rect x="33" y="35" fill="#24194C" width="1" height="1"/>
			<polygon fill="#24194C" points="11,35 10,35 10,34 9,34 9,36 11,36 			"/>
			<rect x="7" y="35" fill="#24194C" width="1" height="2"/>
			<rect x="3" y="35" fill="#24194C" width="1" height="1"/>
			<rect x="1" y="35" fill="#24194C" width="1" height="1"/>
			<rect x="34" y="34" fill="#24194C" width="1" height="1"/>
			<rect x="2" y="34" fill="#24194C" width="1" height="1"/>
			<polygon fill="#24194C" points="51,34 52,34 52,33 53,33 53,32 51,32 			"/>
			<polygon fill="#24194C" points="11,32 11,33 12,33 12,34 13,34 13,32 			"/>
			<rect x="56" y="28" fill="#24194C" width="1" height="1"/>
			<rect x="24" y="28" fill="#24194C" width="1" height="1"/>
			<polygon fill="#24194C" points="58,25 56,25 56,26 57,26 57,28 58,28 			"/>
			<polygon fill="#24194C" points="26,25 24,25 24,26 25,26 25,28 26,28 			"/>
			<rect x="60" y="22" fill="#24194C" width="1" height="1"/>
			<rect x="28" y="22" fill="#24194C" width="1" height="1"/>
			<rect x="59" y="20" fill="#24194C" width="3" height="1"/>
			<polygon fill="#24194C" points="37,20 36,20 36,22 38,22 38,21 37,21 			"/>
			<rect x="27" y="20" fill="#24194C" width="3" height="1"/>
			<polygon fill="#24194C" points="5,20 4,20 4,22 6,22 6,21 5,21 			"/>
			<polygon fill="#24194C" points="47,19 46,19 46,21 48,21 48,20 47,20 			"/>
			<polygon fill="#24194C" points="15,19 14,19 14,21 16,21 16,20 15,20 			"/>
			<rect x="59" y="17" fill="#24194C" width="3" height="1"/>
			<polygon fill="#24194C" points="50,18 51,18 51,16 49,16 49,17 50,17 			"/>
			<rect x="27" y="17" fill="#24194C" width="3" height="1"/>
			<polygon fill="#24194C" points="18,18 19,18 19,16 17,16 17,17 18,17 			"/>
			<polygon fill="#24194C" points="9,18 10,18 10,16 8,16 8,17 9,17 			"/>
			<polygon fill="#24194C" points="40,16 40,17 41,17 41,18 42,18 42,16 			"/>
			<polygon fill="#24194C" points="43,13 42,13 42,12 41,12 41,14 43,14 			"/>
			<polygon fill="#24194C" points="11,14 11,13 10,13 10,12 9,12 9,14 			"/>
			<polygon fill="#24194C" points="43,10 43,11 44,11 44,12 45,12 45,10 			"/>
			<polygon fill="#24194C" points="11,10 11,11 12,11 12,12 13,12 13,10 			"/>
			<rect x="24" y="5" fill="#24194C" width="1" height="1"/>
			<polygon fill="#24194C" points="59,5 59,4 58,4 58,3 57,3 57,5 			"/>
			<polygon fill="#24194C" points="35,5 35,4 34,4 34,3 33,3 33,5 			"/>
			<polygon fill="#24194C" points="3,5 3,4 2,4 2,3 1,3 1,5 			"/>
			<polygon fill="#24194C" points="28,2 29,2 29,0 27,0 27,1 28,1 			"/>
			<polygon fill="#24194C" points="60,0 60,1 61,1 61,2 62,2 62,0 			"/>
			<polygon fill="#24194C" points="36,0 36,1 37,1 37,2 38,2 38,0 			"/>
			<polygon fill="#24194C" points="4,0 4,1 5,1 5,2 6,2 6,0 			"/>
		</g>
		<g>
			<rect x="51" y="52" fill="#1E1638" width="1" height="1"/>
			<rect x="19" y="52" fill="#1E1638" width="1" height="1"/>
			<rect x="36" y="19" fill="#1E1638" width="1" height="1"/>
			<rect x="4" y="19" fill="#1E1638" width="1" height="1"/>
		</g>
	</g>
</g>
</svg>
