<?xml version="1.0" encoding="utf-8"?>
<!-- Generator: Adobe Illustrator 16.0.0, SVG Export Plug-In . SVG Version: 6.00 Build 0)  -->
<!DOCTYPE svg PUBLIC "-//W3C//DTD SVG 1.1//EN" "http://www.w3.org/Graphics/SVG/1.1/DTD/svg11.dtd">
<svg version="1.1" id="Icons" xmlns="http://www.w3.org/2000/svg" xmlns:xlink="http://www.w3.org/1999/xlink" x="0px" y="0px"
	 width="64px" height="64px" viewBox="0 0 64 64" enable-background="new 0 0 64 64" xml:space="preserve">
<g>
	<rect fill="#181425" width="64" height="64"/>
	<g>
		<rect x="33" y="62" fill="#216B7A" width="1" height="1"/>
		<rect x="10" y="62" fill="#776B3D" width="1" height="1"/>
		<rect x="52" y="61" fill="#0099DB" width="1" height="1"/>
		<rect x="36" y="61" fill="#0B6FAE" width="1" height="1"/>
		<rect x="59" y="60" fill="#0099DB" width="1" height="1"/>
		<rect x="53" y="60" fill="#0099DB" width="1" height="1"/>
		<rect x="52" y="60" fill="#2CE8F5" width="1" height="1"/>
		<rect x="51" y="60" fill="#0099DB" width="1" height="1"/>
		<rect x="37" y="60" fill="#0099DB" width="1" height="1"/>
		<rect x="36" y="60" fill="#2CE8F5" width="1" height="1"/>
		<rect x="35" y="60" fill="#0099DB" width="1" height="1"/>
		<rect x="28" y="60" fill="#2CE8F5" width="1" height="1"/>
		<rect x="12" y="60" fill="#0099DB" width="1" height="1"/>
		<rect x="52" y="59" fill="#0099DB" width="1" height="1"/>
		<rect x="47" y="59" fill="#FEE761" width="1" height="1"/>
		<rect x="38" y="59" fill="#0B6FAE" width="1" height="1"/>
		<rect x="37" y="59" fill="#2CE8F5" width="1" height="1"/>
		<rect x="36" y="59" fill="#E9E5E1" width="1" height="1"/>
		<rect x="35" y="59" fill="#2CE8F5" width="1" height="1"/>
		<rect x="34" y="59" fill="#0B6FAE" width="1" height="1"/>
		<rect x="20" y="59" fill="#592D4F" width="1" height="1"/>
		<rect x="13" y="59" fill="#0099DB" width="1" height="1"/>
		<rect x="12" y="59" fill="#2CE8F5" width="1" height="1"/>
		<rect x="11" y="59" fill="#0099DB" width="1" height="1"/>
		<rect x="37" y="58" fill="#0099DB" width="1" height="1"/>
		<rect x="36" y="58" fill="#2CE8F5" width="1" height="1"/>
		<rect x="35" y="58" fill="#0099DB" width="1" height="1"/>
		<rect x="12" y="58" fill="#0099DB" width="1" height="1"/>
		<rect x="58" y="57" fill="#2CE8F5" width="1" height="1"/>
		<rect x="36" y="57" fill="#0B6FAE" width="1" height="1"/>
		<rect x="62" y="56" fill="#216B7A" width="1" height="1"/>
		<rect x="25" y="56" fill="#776B3D" width="1" height="1"/>
		<rect x="46" y="54" fill="#776B3D" width="1" height="1"/>
		<rect x="43" y="54" fill="#0099DB" width="1" height="1"/>
		<rect x="34" y="54" fill="#FEE761" width="1" height="1"/>
		<rect x="12" y="54" fill="#592D4F" width="1" height="1"/>
		<rect x="44" y="53" fill="#0099DB" width="1" height="1"/>
		<rect x="43" y="53" fill="#2CE8F5" width="1" height="1"/>
		<rect x="42" y="53" fill="#0099DB" width="1" height="1"/>
		<rect x="54" y="52" fill="#2CE8F5" width="1" height="1"/>
		<rect x="43" y="52" fill="#0099DB" width="1" height="1"/>
		<rect x="9" y="52" fill="#216B7A" width="1" height="1"/>
		<rect x="50" y="51" fill="#592D4F" width="1" height="1"/>
		<rect x="39" y="51" fill="#216B7A" width="1" height="1"/>
		<rect x="28" y="51" fill="#0B6FAE" width="1" height="1"/>
		<rect x="29" y="50" fill="#0099DB" width="1" height="1"/>
		<rect x="28" y="50" fill="#2CE8F5" width="1" height="1"/>
		<rect x="27" y="50" fill="#0099DB" width="1" height="1"/>
		<rect x="36" y="49" fill="#592D4F" width="1" height="1"/>
		<rect x="30" y="49" fill="#0B6FAE" width="1" height="1"/>
		<rect x="29" y="49" fill="#2CE8F5" width="1" height="1"/>
		<rect x="28" y="49" fill="#E9E5E1" width="1" height="1"/>
		<rect x="27" y="49" fill="#2CE8F5" width="1" height="1"/>
		<rect x="26" y="49" fill="#0B6FAE" width="1" height="1"/>
		<rect x="14" y="49" fill="#FEE761" width="1" height="1"/>
		<rect x="1" y="49" fill="#216B7A" width="1" height="1"/>
		<rect x="61" y="48" fill="#776B3D" width="1" height="1"/>
		<rect x="29" y="48" fill="#0099DB" width="1" height="1"/>
		<rect x="28" y="48" fill="#2CE8F5" width="1" height="1"/>
		<rect x="27" y="48" fill="#0099DB" width="1" height="1"/>
		<rect x="28" y="47" fill="#0B6FAE" width="1" height="1"/>
		<rect x="23" y="47" fill="#776B3D" width="1" height="1"/>
		<rect x="12" y="46" fill="#BE4A2F" width="1" height="1"/>
		<rect x="52" y="45" fill="#216B7A" width="1" height="1"/>
		<rect x="13" y="45" fill="#BE4A2F" width="1" height="1"/>
		<rect x="12" y="45" fill="#FEAE34" width="1" height="1"/>
		<rect x="11" y="45" fill="#BE4A2F" width="1" height="1"/>
		<rect x="62" y="44" fill="#0099DB" width="1" height="1"/>
		<rect x="53" y="44" fill="#592D4F" width="1" height="1"/>
		<rect x="28" y="44" fill="#592D4F" width="1" height="1"/>
		<rect x="14" y="44" fill="#BE4A2F" width="1" height="1"/>
		<rect x="13" y="44" fill="#FEAE34" width="1" height="1"/>
		<rect x="12" y="44" fill="#FEE761" width="1" height="1"/>
		<rect x="11" y="44" fill="#FEAE34" width="1" height="1"/>
		<rect x="10" y="44" fill="#BE4A2F" width="1" height="1"/>
		<rect x="40" y="43" fill="#776B3D" width="1" height="1"/>
		<rect x="13" y="43" fill="#BE4A2F" width="1" height="1"/>
		<rect x="12" y="43" fill="#FEAE34" width="1" height="1"/>
		<rect x="11" y="43" fill="#BE4A2F" width="1" height="1"/>
		<rect x="58" y="42" fill="#124E89" width="1" height="1"/>
		<rect x="12" y="42" fill="#BE4A2F" width="1" height="1"/>
		<rect x="43" y="41" fill="#2CE8F5" width="1" height="1"/>
		<rect x="38" y="41" fill="#776B3D" width="1" height="1"/>
		<rect x="4" y="41" fill="#592D4F" width="1" height="1"/>
		<rect x="33" y="38" fill="#216B7A" width="1" height="1"/>
		<rect x="19" y="38" fill="#2CE8F5" width="1" height="1"/>
		<rect x="60" y="37" fill="#216B7A" width="1" height="1"/>
		<rect x="53" y="37" fill="#2CE8F5" width="1" height="1"/>
		<rect x="41" y="37" fill="#FEE761" width="1" height="1"/>
		<rect x="28" y="36" fill="#2CE8F5" width="1" height="1"/>
		<rect x="62" y="35" fill="#BE4A2F" width="1" height="1"/>
		<rect x="47" y="35" fill="#BE4A2F" width="1" height="1"/>
		<rect x="20" y="35" fill="#776B3D" width="1" height="1"/>
		<rect x="11" y="35" fill="#216B7A" width="1" height="1"/>
		<rect x="48" y="34" fill="#BE4A2F" width="1" height="1"/>
		<rect x="47" y="34" fill="#FEAE34" width="1" height="1"/>
		<rect x="46" y="34" fill="#BE4A2F" width="1" height="1"/>
		<rect x="45" y="34" fill="#592D4F" width="1" height="1"/>
		<rect x="18" y="34" fill="#592D4F" width="1" height="1"/>
		<rect x="49" y="33" fill="#BE4A2F" width="1" height="1"/>
		<rect x="48" y="33" fill="#FEAE34" width="1" height="1"/>
		<rect x="47" y="33" fill="#FEE761" width="1" height="1"/>
		<rect x="46" y="33" fill="#FEAE34" width="1" height="1"/>
		<rect x="45" y="33" fill="#BE4A2F" width="1" height="1"/>
		<rect x="48" y="32" fill="#BE4A2F" width="1" height="1"/>
		<rect x="47" y="32" fill="#FEAE34" width="1" height="1"/>
		<rect x="46" y="32" fill="#BE4A2F" width="1" height="1"/>
		<rect x="25" y="32" fill="#776B3D" width="1" height="1"/>
		<rect x="47" y="31" fill="#BE4A2F" width="1" height="1"/>
		<rect x="34" y="30" fill="#FEE761" width="1" height="1"/>
		<rect x="16" y="30" fill="#2CE8F5" width="1" height="1"/>
		<rect x="61" y="29" fill="#776B3D" width="1" height="1"/>
		<rect x="54" y="29" fill="#216B7A" width="1" height="1"/>
		<rect x="7" y="29" fill="#776B3D" width="1" height="1"/>
		<rect x="39" y="27" fill="#216B7A" width="1" height="1"/>
		<rect x="28" y="27" fill="#0B6FAE" width="1" height="1"/>
		<rect x="46" y="26" fill="#2CE8F5" width="1" height="1"/>
		<rect x="29" y="26" fill="#0099DB" width="1" height="1"/>
		<rect x="28" y="26" fill="#2CE8F5" width="1" height="1"/>
		<rect x="27" y="26" fill="#0099DB" width="1" height="1"/>
		<rect x="19" y="26" fill="#216B7A" width="1" height="1"/>
		<rect x="2" y="26" fill="#BE4A2F" width="1" height="1"/>
		<rect x="36" y="25" fill="#592D4F" width="1" height="1"/>
		<rect x="30" y="25" fill="#0B6FAE" width="1" height="1"/>
		<rect x="29" y="25" fill="#2CE8F5" width="1" height="1"/>
		<rect x="28" y="25" fill="#E9E5E1" width="1" height="1"/>
		<rect x="27" y="25" fill="#2CE8F5" width="1" height="1"/>
		<rect x="26" y="25" fill="#0B6FAE" width="1" height="1"/>
		<rect x="54" y="24" fill="#776B3D" width="1" height="1"/>
		<rect x="51" y="24" fill="#0099DB" width="1" height="1"/>
		<rect x="29" y="24" fill="#0099DB" width="1" height="1"/>
		<rect x="28" y="24" fill="#2CE8F5" width="1" height="1"/>
		<rect x="27" y="24" fill="#0099DB" width="1" height="1"/>
		<rect x="52" y="23" fill="#0099DB" width="1" height="1"/>
		<rect x="51" y="23" fill="#2CE8F5" width="1" height="1"/>
		<rect x="50" y="23" fill="#0099DB" width="1" height="1"/>
		<rect x="47" y="23" fill="#216B7A" width="1" height="1"/>
		<rect x="28" y="23" fill="#0B6FAE" width="1" height="1"/>
		<rect y="23" fill="#124E89" width="1" height="1"/>
		<rect x="62" y="22" fill="#2CE8F5" width="1" height="1"/>
		<rect x="51" y="22" fill="#0099DB" width="1" height="1"/>
		<rect x="58" y="21" fill="#592D4F" width="1" height="1"/>
		<rect x="16" y="21" fill="#0B6FAE" width="1" height="1"/>
		<rect x="8" y="21" fill="#216B7A" width="1" height="1"/>
		<rect x="45" y="20" fill="#592D4F" width="1" height="1"/>
		<rect x="44" y="20" fill="#0099DB" width="1" height="1"/>
		<rect x="28" y="20" fill="#592D4F" width="1" height="1"/>
		<rect x="17" y="20" fill="#0B6FAE" width="1" height="1"/>
		<rect x="16" y="20" fill="#2CE8F5" width="1" height="1"/>
		<rect x="15" y="20" fill="#0B6FAE" width="1" height="1"/>
		<rect x="3" y="20" fill="#0099DB" width="1" height="1"/>
		<rect x="45" y="19" fill="#0099DB" width="1" height="1"/>
		<rect x="44" y="19" fill="#2CE8F5" width="1" height="1"/>
		<rect x="43" y="19" fill="#0099DB" width="1" height="1"/>
		<rect x="21" y="19" fill="#FEE761" width="1" height="1"/>
		<rect x="16" y="19" fill="#0B6FAE" width="1" height="1"/>
		<rect x="44" y="18" fill="#0099DB" width="1" height="1"/>
		<rect x="26" y="18" fill="#2CE8F5" width="1" height="1"/>
		<rect x="4" y="18" fill="#2CE8F5" width="1" height="1"/>
		<rect x="38" y="17" fill="#776B3D" width="1" height="1"/>
		<rect x="42" y="16" fill="#776B3D" width="1" height="1"/>
		<rect x="28" y="16" fill="#216B7A" width="1" height="1"/>
		<rect x="60" y="15" fill="#216B7A" width="1" height="1"/>
		<rect x="61" y="14" fill="#592D4F" width="1" height="1"/>
		<rect x="33" y="14" fill="#F77622" width="1" height="1"/>
		<rect x="27" y="14" fill="#2CE8F5" width="1" height="1"/>
		<rect x="6" y="14" fill="#776B3D" width="1" height="1"/>
		<rect x="48" y="13" fill="#776B3D" width="1" height="1"/>
		<rect x="34" y="13" fill="#F77622" width="1" height="1"/>
		<rect x="33" y="13" fill="#FEE761" width="1" height="1"/>
		<rect x="32" y="13" fill="#F77622" width="1" height="1"/>
		<rect x="33" y="12" fill="#F77622" width="1" height="1"/>
		<rect x="24" y="12" fill="#776B3D" width="1" height="1"/>
		<rect x="14" y="12" fill="#2CE8F5" width="1" height="1"/>
		<rect x="51" y="11" fill="#2CE8F5" width="1" height="1"/>
		<rect x="37" y="11" fill="#592D4F" width="1" height="1"/>
		<rect x="17" y="11" fill="#BE4A2F" width="1" height="1"/>
		<rect x="10" y="11" fill="#592D4F" width="1" height="1"/>
		<rect x="59" y="10" fill="#776B3D" width="1" height="1"/>
		<rect x="36" y="10" fill="#216B7A" width="1" height="1"/>
		<rect x="47" y="7" fill="#592D4F" width="1" height="1"/>
		<rect x="4" y="7" fill="#F77622" width="1" height="1"/>
		<rect x="5" y="6" fill="#F77622" width="1" height="1"/>
		<rect x="4" y="6" fill="#FEE761" width="1" height="1"/>
		<rect x="3" y="6" fill="#F77622" width="1" height="1"/>
		<rect x="12" y="5" fill="#216B7A" width="1" height="1"/>
		<rect x="4" y="5" fill="#F77622" width="1" height="1"/>
		<rect x="34" y="4" fill="#592D4F" width="1" height="1"/>
		<rect x="13" y="4" fill="#592D4F" width="1" height="1"/>
		<rect x="38" y="3" fill="#2CE8F5" width="1" height="1"/>
		<rect x="27" y="3" fill="#0099DB" width="1" height="1"/>
		<rect y="3" fill="#776B3D" width="1" height="1"/>
		<rect x="28" y="2" fill="#0099DB" width="1" height="1"/>
		<rect x="27" y="2" fill="#2CE8F5" width="1" height="1"/>
		<rect x="26" y="2" fill="#0099DB" width="1" height="1"/>
		<rect x="30" y="1" fill="#776B3D" width="1" height="1"/>
		<rect x="27" y="1" fill="#0099DB" width="1" height="1"/>
		<rect x="18" y="1" fill="#592D4F" width="1" height="1"/>
		<rect x="3" y="1" fill="#2CE8F5" width="1" height="1"/>
		<g>
			<polygon fill="#251A32" points="13,61 13,63 14,63 14,62 15,62 15,61 			"/>
			<polygon fill="#251A32" points="21,60 20,60 20,61 22,61 22,59 21,59 			"/>
			<rect x="35" y="57" fill="#251A32" width="1" height="1"/>
			<rect x="27" y="56" fill="#251A32" width="1" height="1"/>
			<rect x="28" y="55" fill="#251A32" width="1" height="1"/>
			<rect x="12" y="55" fill="#251A32" width="1" height="1"/>
			<rect x="11" y="54" fill="#251A32" width="1" height="1"/>
			<rect x="50" y="53" fill="#251A32" width="1" height="1"/>
			<rect x="49" y="52" fill="#251A32" width="1" height="1"/>
			<polygon fill="#251A32" points="13,52 13,53 14,53 14,54 15,54 15,52 			"/>
			<rect x="52" y="51" fill="#251A32" width="1" height="1"/>
			<rect x="4" y="51" fill="#251A32" width="1" height="1"/>
			<rect x="51" y="50" fill="#251A32" width="1" height="1"/>
			<polygon fill="#251A32" points="35,50 34,50 34,52 36,52 36,51 35,51 			"/>
			<rect x="5" y="50" fill="#251A32" width="1" height="1"/>
			<rect x="37" y="49" fill="#251A32" width="1" height="1"/>
			<rect x="36" y="48" fill="#251A32" width="1" height="1"/>
			<rect x="20" y="48" fill="#251A32" width="1" height="1"/>
			<rect x="21" y="47" fill="#251A32" width="1" height="1"/>
			<rect x="13" y="46" fill="#251A32" width="1" height="1"/>
			<rect x="54" y="45" fill="#251A32" width="1" height="1"/>
			<rect x="55" y="44" fill="#251A32" width="1" height="1"/>
			<rect x="52" y="43" fill="#251A32" width="1" height="1"/>
			<polygon fill="#251A32" points="43,43 43,44 44,44 44,45 45,45 45,43 			"/>
			<polygon fill="#251A32" points="27,43 27,45 28,45 28,44 29,44 29,43 			"/>
			<rect x="53" y="42" fill="#251A32" width="1" height="1"/>
			<polygon fill="#251A32" points="35,42 34,42 34,43 36,43 36,41 35,41 			"/>
			<polygon fill="#251A32" points="5,42 4,42 4,43 6,43 6,41 5,41 			"/>
			<rect x="45" y="36" fill="#251A32" width="1" height="1"/>
			<rect x="46" y="35" fill="#251A32" width="1" height="1"/>
			<rect x="43" y="34" fill="#251A32" width="1" height="1"/>
			<polygon fill="#251A32" points="20,35 20,33 18,33 18,34 19,34 19,35 			"/>
			<rect x="44" y="33" fill="#251A32" width="1" height="1"/>
			<rect x="35" y="33" fill="#251A32" width="1" height="1"/>
			<rect x="27" y="32" fill="#251A32" width="1" height="1"/>
			<rect x="28" y="31" fill="#251A32" width="1" height="1"/>
			<rect x="4" y="30" fill="#251A32" width="1" height="1"/>
			<rect x="5" y="29" fill="#251A32" width="1" height="1"/>
			<polygon fill="#251A32" points="36,27 35,27 35,26 34,26 34,28 36,28 			"/>
			<rect x="37" y="25" fill="#251A32" width="1" height="1"/>
			<rect x="36" y="24" fill="#251A32" width="1" height="1"/>
			<rect x="58" y="23" fill="#251A32" width="1" height="1"/>
			<rect x="57" y="22" fill="#251A32" width="1" height="1"/>
			<rect x="45" y="22" fill="#251A32" width="1" height="1"/>
			<rect x="60" y="21" fill="#251A32" width="1" height="1"/>
			<rect x="44" y="21" fill="#251A32" width="1" height="1"/>
			<rect x="59" y="20" fill="#251A32" width="1" height="1"/>
			<rect x="47" y="20" fill="#251A32" width="1" height="1"/>
			<rect x="46" y="19" fill="#251A32" width="1" height="1"/>
			<polygon fill="#251A32" points="27,19 27,21 28,21 28,20 29,20 29,19 			"/>
			<polygon fill="#251A32" points="36,17 35,17 35,18 34,18 34,19 36,19 			"/>
			<rect x="62" y="15" fill="#251A32" width="1" height="1"/>
			<rect x="63" y="14" fill="#251A32" width="1" height="1"/>
			<polygon fill="#251A32" points="52,15 53,15 53,13 51,13 51,14 52,14 			"/>
			<rect x="60" y="13" fill="#251A32" width="1" height="1"/>
			<rect x="37" y="13" fill="#251A32" width="1" height="1"/>
			<rect x="10" y="13" fill="#251A32" width="1" height="1"/>
			<rect x="61" y="12" fill="#251A32" width="1" height="1"/>
			<rect x="36" y="12" fill="#251A32" width="1" height="1"/>
			<rect x="9" y="12" fill="#251A32" width="1" height="1"/>
			<rect x="39" y="11" fill="#251A32" width="1" height="1"/>
			<polygon fill="#251A32" points="28,12 27,12 27,13 29,13 29,11 28,11 			"/>
			<rect x="12" y="11" fill="#251A32" width="1" height="1"/>
			<rect x="38" y="10" fill="#251A32" width="1" height="1"/>
			<rect x="11" y="10" fill="#251A32" width="1" height="1"/>
			<rect x="59" y="8" fill="#251A32" width="1" height="1"/>
			<rect x="58" y="7" fill="#251A32" width="1" height="1"/>
			<polygon fill="#251A32" points="47,7 46,7 46,9 48,9 48,8 47,8 			"/>
			<rect x="35" y="5" fill="#251A32" width="1" height="1"/>
			<rect x="14" y="5" fill="#251A32" width="1" height="1"/>
			<rect x="36" y="4" fill="#251A32" width="1" height="1"/>
			<rect x="15" y="4" fill="#251A32" width="1" height="1"/>
			<polygon fill="#251A32" points="4,5 5,5 5,3 3,3 3,4 4,4 			"/>
			<rect x="33" y="3" fill="#251A32" width="1" height="1"/>
			<rect x="12" y="3" fill="#251A32" width="1" height="1"/>
			<rect x="34" y="2" fill="#251A32" width="1" height="1"/>
			<rect x="17" y="2" fill="#251A32" width="1" height="1"/>
			<rect x="13" y="2" fill="#251A32" width="1" height="1"/>
			<rect x="16" y="1" fill="#251A32" width="1" height="1"/>
			<rect x="19" fill="#251A32" width="1" height="1"/>
		</g>
		<g>
			<rect x="20" y="63" fill="#392343" width="1" height="1"/>
			<rect x="14" y="62" fill="#392343" width="1" height="1"/>
			<rect x="22" y="61" fill="#392343" width="1" height="1"/>
			<rect x="18" y="60" fill="#392343" width="1" height="1"/>
			<rect x="57" y="59" fill="#392343" width="1" height="1"/>
			<polygon fill="#392343" points="19,58 19,60 20,60 20,59 21,59 21,58 			"/>
			<rect x="21" y="57" fill="#392343" width="1" height="1"/>
			<rect x="28" y="56" fill="#392343" width="1" height="1"/>
			<rect x="10" y="55" fill="#392343" width="2" height="2"/>
			<rect x="26" y="54" fill="#392343" width="2" height="2"/>
			<rect x="19" y="54" fill="#392343" width="1" height="1"/>
			<polygon fill="#392343" points="14,55 14,53 12,53 12,54 13,54 13,55 			"/>
			<rect x="49" y="53" fill="#392343" width="1" height="1"/>
			<polygon fill="#392343" points="51,52 50,52 50,53 52,53 52,51 51,51 			"/>
			<rect x="40" y="51" fill="#392343" width="1" height="1"/>
			<rect x="5" y="51" fill="#392343" width="2" height="2"/>
			<rect x="52" y="50" fill="#392343" width="1" height="1"/>
			<rect x="4" y="50" fill="#392343" width="1" height="1"/>
			<polygon fill="#392343" points="36,49 35,49 35,51 37,51 37,50 36,50 			"/>
			<rect x="47" y="48" fill="#392343" width="1" height="1"/>
			<rect x="21" y="48" fill="#392343" width="2" height="2"/>
			<rect x="37" y="47" fill="#392343" width="2" height="2"/>
			<rect x="20" y="47" fill="#392343" width="1" height="1"/>
			<rect x="27" y="46" fill="#392343" width="1" height="1"/>
			<rect x="55" y="45" fill="#392343" width="1" height="1"/>
			<rect x="4" y="45" fill="#392343" width="1" height="1"/>
			<rect x="42" y="44" fill="#392343" width="2" height="2"/>
			<polygon fill="#392343" points="29,45 28,45 28,46 30,46 30,44 29,44 			"/>
			<polygon fill="#392343" points="55,43 53,43 53,44 54,44 54,45 55,45 			"/>
			<rect x="30" y="43" fill="#392343" width="1" height="1"/>
			<rect x="6" y="43" fill="#392343" width="1" height="1"/>
			<rect x="52" y="42" fill="#392343" width="1" height="1"/>
			<rect x="2" y="42" fill="#392343" width="1" height="1"/>
			<rect x="34" y="41" fill="#392343" width="1" height="1"/>
			<rect x="15" y="41" fill="#392343" width="1" height="1"/>
			<polygon fill="#392343" points="4,41 5,41 5,40 3,40 3,42 4,42 			"/>
			<rect x="5" y="39" fill="#392343" width="1" height="1"/>
			<rect x="46" y="36" fill="#392343" width="1" height="1"/>
			<rect x="19" y="36" fill="#392343" width="1" height="1"/>
			<rect x="3" y="36" fill="#392343" width="1" height="1"/>
			<polygon fill="#392343" points="44,36 46,36 46,35 45,35 45,34 44,34 			"/>
			<polygon fill="#392343" points="19,36 19,35 18,35 18,34 17,34 17,36 			"/>
			<rect x="43" y="33" fill="#392343" width="1" height="1"/>
			<rect x="28" y="32" fill="#392343" width="1" height="1"/>
			<rect x="26" y="30" fill="#392343" width="2" height="2"/>
			<rect x="5" y="30" fill="#392343" width="2" height="2"/>
			<rect x="4" y="29" fill="#392343" width="1" height="1"/>
			<polygon fill="#392343" points="35,25 35,27 37,27 37,26 36,26 36,25 			"/>
			<rect x="18" y="25" fill="#392343" width="1" height="1"/>
			<rect x="57" y="23" fill="#392343" width="1" height="1"/>
			<rect x="37" y="23" fill="#392343" width="2" height="2"/>
			<rect x="44" y="22" fill="#392343" width="1" height="1"/>
			<rect x="27" y="22" fill="#392343" width="1" height="1"/>
			<polygon fill="#392343" points="59,22 58,22 58,23 60,23 60,21 59,21 			"/>
			<rect x="48" y="21" fill="#392343" width="1" height="1"/>
			<polygon fill="#392343" points="47,22 47,20 46,20 46,21 45,21 45,22 			"/>
			<rect x="60" y="20" fill="#392343" width="1" height="1"/>
			<polygon fill="#392343" points="29,21 28,21 28,22 30,22 30,20 29,20 			"/>
			<rect x="55" y="19" fill="#392343" width="1" height="1"/>
			<rect x="47" y="19" fill="#392343" width="1" height="1"/>
			<rect x="30" y="19" fill="#392343" width="1" height="1"/>
			<rect x="34" y="17" fill="#392343" width="1" height="1"/>
			<rect x="63" y="15" fill="#392343" width="1" height="1"/>
			<rect x="50" y="14" fill="#392343" width="2" height="2"/>
			<polygon fill="#392343" points="63,13 61,13 61,14 62,14 62,15 63,15 			"/>
			<rect x="36" y="13" fill="#392343" width="1" height="1"/>
			<rect x="9" y="13" fill="#392343" width="1" height="1"/>
			<rect x="60" y="12" fill="#392343" width="1" height="1"/>
			<polygon fill="#392343" points="12,13 12,11 11,11 11,12 10,12 10,13 			"/>
			<polygon fill="#392343" points="38,12 37,12 37,13 39,13 39,11 38,11 			"/>
			<rect x="26" y="10" fill="#392343" width="2" height="2"/>
			<rect y="11" fill="#392343" width="1" height="1"/>
			<rect x="39" y="10" fill="#392343" width="1" height="1"/>
			<rect x="12" y="10" fill="#392343" width="1" height="1"/>
			<rect x="57" y="8" fill="#392343" width="2" height="2"/>
			<rect x="45" y="9" fill="#392343" width="1" height="1"/>
			<rect x="49" y="8" fill="#392343" width="1" height="1"/>
			<rect x="59" y="7" fill="#392343" width="1" height="1"/>
			<rect x="43" y="7" fill="#392343" width="1" height="1"/>
			<rect x="52" y="6" fill="#392343" width="1" height="1"/>
			<polygon fill="#392343" points="48,7 48,8 49,8 49,6 47,6 47,7 			"/>
			<rect x="46" y="5" fill="#392343" width="1" height="1"/>
			<rect x="36" y="5" fill="#392343" width="1" height="1"/>
			<rect x="15" y="5" fill="#392343" width="1" height="1"/>
			<rect x="2" y="4" fill="#392343" width="2" height="2"/>
			<rect x="24" y="4" fill="#392343" width="1" height="1"/>
			<polygon fill="#392343" points="43,4 44,4 44,3 45,3 45,2 44,2 44,1 43,1 43,2 42,2 42,3 43,3 			"/>
			<polygon fill="#392343" points="35,4 35,5 36,5 36,3 34,3 34,4 			"/>
			<polygon fill="#392343" points="15,3 13,3 13,4 14,4 14,5 15,5 			"/>
			<rect x="59" y="2" fill="#392343" width="1" height="1"/>
			<rect x="33" y="2" fill="#392343" width="1" height="1"/>
			<rect x="16" y="2" fill="#392343" width="1" height="1"/>
			<rect x="12" y="2" fill="#392343" width="1" height="1"/>
			<polygon fill="#392343" points="18,1 19,1 19,0 17,0 17,2 18,2 			"/>
		</g>
		<g>
			<rect x="47" y="47" fill="#181425" width="1" height="1"/>
			<rect x="19" y="35" fill="#181425" width="1" height="1"/>
		</g>
	</g>
</g>
</svg>
