<?xml version="1.0" encoding="utf-8"?>
<!-- Generator: Adobe Illustrator 16.0.0, SVG Export Plug-In . SVG Version: 6.00 Build 0)  -->
<!DOCTYPE svg PUBLIC "-//W3C//DTD SVG 1.1//EN" "http://www.w3.org/Graphics/SVG/1.1/DTD/svg11.dtd">
<svg version="1.1" id="Icons" xmlns="http://www.w3.org/2000/svg" xmlns:xlink="http://www.w3.org/1999/xlink" x="0px" y="0px"
	 width="64px" height="64px" viewBox="0 0 64 64" enable-background="new 0 0 64 64" xml:space="preserve">
<g>
	<rect fill="none" width="64" height="64"/>
	<rect fill="#0A194D" width="64" height="64"/>
	<rect x="28" y="62" fill="#115E86" width="1" height="1"/>
	<rect x="4" y="62" fill="#115E86" width="1" height="1"/>
	<rect x="43" y="61" fill="#54B7EA" width="1" height="1"/>
	<rect x="11" y="61" fill="#54B7EA" width="1" height="1"/>
	<rect x="53" y="60" fill="#BE4A2F" width="1" height="1"/>
	<rect x="50" y="60" fill="#358BB7" width="1" height="1"/>
	<rect x="35" y="60" fill="#145A81" width="1" height="1"/>
	<rect x="21" y="60" fill="#BE4A2F" width="1" height="1"/>
	<rect x="18" y="60" fill="#358BB7" width="1" height="1"/>
	<rect x="54" y="59" fill="#BE4A2F" width="1" height="1"/>
	<rect x="53" y="59" fill="#FEAE34" width="1" height="1"/>
	<rect x="52" y="59" fill="#BE4A2F" width="1" height="1"/>
	<rect x="36" y="59" fill="#145A81" width="1" height="1"/>
	<rect x="35" y="59" fill="#358BB7" width="1" height="1"/>
	<rect x="34" y="59" fill="#145A81" width="1" height="1"/>
	<rect x="22" y="59" fill="#BE4A2F" width="1" height="1"/>
	<rect x="21" y="59" fill="#FEAE34" width="1" height="1"/>
	<rect x="20" y="59" fill="#BE4A2F" width="1" height="1"/>
	<rect x="63" y="58" fill="#115E86" width="1" height="1"/>
	<rect x="53" y="58" fill="#BE4A2F" width="1" height="1"/>
	<rect x="39" y="58" fill="#115E86" width="1" height="1"/>
	<rect x="35" y="58" fill="#145A81" width="1" height="1"/>
	<rect x="28" y="58" fill="#54B7EA" width="1" height="1"/>
	<rect x="21" y="58" fill="#BE4A2F" width="1" height="1"/>
	<rect x="15" y="58" fill="#54365B" width="1" height="1"/>
	<rect x="16" y="57" fill="#54365B" width="1" height="1"/>
	<rect x="15" y="57" fill="#F6757A" width="1" height="1"/>
	<rect x="14" y="57" fill="#54365B" width="1" height="1"/>
	<rect x="45" y="56" fill="#358BB7" width="1" height="1"/>
	<rect x="15" y="56" fill="#54365B" width="1" height="1"/>
	<rect x="9" y="53" fill="#358BB7" width="1" height="1"/>
	<rect x="27" y="55" fill="#115E86" width="1" height="1"/>
	<rect x="53" y="53" fill="#115E86" width="1" height="1"/>
	<rect x="21" y="53" fill="#115E86" width="1" height="1"/>
	<rect x="58" y="52" fill="#358BB7" width="1" height="1"/>
	<rect x="50" y="52" fill="#145A81" width="1" height="1"/>
	<rect x="34" y="52" fill="#358BB7" width="1" height="1"/>
	<rect x="18" y="52" fill="#145A81" width="1" height="1"/>
	<rect x="12" y="52" fill="#115E86" width="1" height="1"/>
	<rect x="51" y="51" fill="#145A81" width="1" height="1"/>
	<rect x="50" y="51" fill="#54B7EA" width="1" height="1"/>
	<rect x="49" y="51" fill="#145A81" width="1" height="1"/>
	<rect x="25" y="51" fill="#54B7EA" width="1" height="1"/>
	<rect x="19" y="51" fill="#145A81" width="1" height="1"/>
	<rect x="18" y="51" fill="#54B7EA" width="1" height="1"/>
	<rect x="17" y="51" fill="#145A81" width="1" height="1"/>
	<rect x="1" y="51" fill="#54B7EA" width="1" height="1"/>
	<rect x="50" y="50" fill="#145A81" width="1" height="1"/>
	<rect x="45" y="50" fill="#115E86" width="1" height="1"/>
	<rect x="18" y="50" fill="#145A81" width="1" height="1"/>
	<rect x="13" y="50" fill="#115E86" width="1" height="1"/>
	<rect x="28" y="48" fill="#358BB7" width="1" height="1"/>
	<rect x="4" y="48" fill="#358BB7" width="1" height="1"/>
	<rect x="62" y="46" fill="#115E86" width="1" height="1"/>
	<rect x="57" y="46" fill="#358BB7" width="1" height="1"/>
	<rect x="54" y="46" fill="#54B7EA" width="1" height="1"/>
	<rect x="46" y="46" fill="#54B7EA" width="1" height="1"/>
	<rect x="30" y="46" fill="#115E86" width="1" height="1"/>
	<rect x="25" y="46" fill="#358BB7" width="1" height="1"/>
	<rect x="20" y="46" fill="#115E86" width="1" height="1"/>
	<rect x="2" y="46" fill="#BE4A2F" width="1" height="1"/>
	<rect x="41" y="45" fill="#145A81" width="1" height="1"/>
	<rect x="37" y="45" fill="#115E86" width="1" height="1"/>
	<rect x="5" y="45" fill="#115E86" width="1" height="1"/>
	<rect x="3" y="45" fill="#BE4A2F" width="1" height="1"/>
	<rect x="2" y="45" fill="#FEAE34" width="1" height="1"/>
	<rect x="1" y="45" fill="#BE4A2F" width="1" height="1"/>
	<rect x="42" y="44" fill="#145A81" width="1" height="1"/>
	<rect x="41" y="44" fill="#54B7EA" width="1" height="1"/>
	<rect x="40" y="44" fill="#145A81" width="1" height="1"/>
	<rect x="2" y="44" fill="#BE4A2F" width="1" height="1"/>
	<rect x="41" y="43" fill="#145A81" width="1" height="1"/>
	<rect x="33" y="43" fill="#115E86" width="1" height="1"/>
	<rect x="60" y="42" fill="#54365B" width="1" height="1"/>
	<rect x="28" y="42" fill="#54365B" width="1" height="1"/>
	<rect x="61" y="41" fill="#54365B" width="1" height="1"/>
	<rect x="60" y="41" fill="#F6757A" width="1" height="1"/>
	<rect x="59" y="41" fill="#54365B" width="1" height="1"/>
	<rect x="43" y="41" fill="#115E86" width="1" height="1"/>
	<rect x="37" y="41" fill="#115E86" width="1" height="1"/>
	<rect x="29" y="41" fill="#54365B" width="1" height="1"/>
	<rect x="28" y="41" fill="#F6757A" width="1" height="1"/>
	<rect x="27" y="41" fill="#54365B" width="1" height="1"/>
	<rect x="19" y="41" fill="#54B7EA" width="1" height="1"/>
	<rect x="13" y="41" fill="#115E86" width="1" height="1"/>
	<rect x="60" y="40" fill="#54365B" width="1" height="1"/>
	<rect x="28" y="40" fill="#54365B" width="1" height="1"/>
	<rect x="3" y="40" fill="#145A81" width="1" height="1"/>
	<rect x="57" y="39" fill="#145A81" width="1" height="1"/>
	<rect x="30" y="39" fill="#115E86" width="1" height="1"/>
	<rect x="4" y="39" fill="#145A81" width="1" height="1"/>
	<rect x="3" y="39" fill="#54B7EA" width="1" height="1"/>
	<rect x="2" y="39" fill="#145A81" width="1" height="1"/>
	<rect x="3" y="38" fill="#145A81" width="1" height="1"/>
	<rect x="51" y="37" fill="#115E86" width="1" height="1"/>
	<rect x="41" y="37" fill="#54B7EA" width="1" height="1"/>
	<rect x="19" y="37" fill="#115E86" width="1" height="1"/>
	<rect x="9" y="37" fill="#54B7EA" width="1" height="1"/>
	<rect x="37" y="36" fill="#358BB7" width="1" height="1"/>
	<rect x="18" y="36" fill="#358BB7" width="1" height="1"/>
	<rect x="5" y="36" fill="#358BB7" width="1" height="1"/>
	<rect x="59" y="35" fill="#115E86" width="1" height="1"/>
	<rect x="27" y="35" fill="#115E86" width="1" height="1"/>
	<rect x="44" y="34" fill="#358BB7" width="1" height="1"/>
	<rect x="57" y="33" fill="#358BB7" width="1" height="1"/>
	<rect x="51" y="33" fill="#54B7EA" width="1" height="1"/>
	<rect x="35" y="33" fill="#115E86" width="1" height="1"/>
	<rect x="11" y="33" fill="#115E86" width="1" height="1"/>
	<rect x="3" y="33" fill="#115E86" width="1" height="1"/>
	<rect x="62" y="31" fill="#358BB7" width="1" height="1"/>
	<rect x="59" y="31" fill="#BE4A2F" width="1" height="1"/>
	<rect x="32" y="31" fill="#54B7EA" width="1" height="1"/>
	<rect x="27" y="31" fill="#BE4A2F" width="1" height="1"/>
	<rect x="60" y="30" fill="#BE4A2F" width="1" height="1"/>
	<rect x="59" y="30" fill="#FEAE34" width="1" height="1"/>
	<rect x="58" y="30" fill="#BE4A2F" width="1" height="1"/>
	<rect x="28" y="30" fill="#BE4A2F" width="1" height="1"/>
	<rect x="27" y="30" fill="#FEAE34" width="1" height="1"/>
	<rect x="26" y="30" fill="#BE4A2F" width="1" height="1"/>
	<rect x="4" y="30" fill="#54365B" width="1" height="1"/>
	<rect x="59" y="29" fill="#BE4A2F" width="1" height="1"/>
	<rect x="27" y="29" fill="#BE4A2F" width="1" height="1"/>
	<rect x="5" y="29" fill="#54365B" width="1" height="1"/>
	<rect x="4" y="29" fill="#F6757A" width="1" height="1"/>
	<rect x="3" y="29" fill="#54365B" width="1" height="1"/>
	<rect x="61" y="28" fill="#115E86" width="1" height="1"/>
	<rect x="57" y="28" fill="#115E86" width="1" height="1"/>
	<rect x="29" y="28" fill="#115E86" width="1" height="1"/>
	<rect x="4" y="28" fill="#54365B" width="1" height="1"/>
	<rect x="52" y="27" fill="#145A81" width="1" height="1"/>
	<rect x="33" y="27" fill="#115E86" width="1" height="1"/>
	<rect x="1" y="27" fill="#115E86" width="1" height="1"/>
	<rect x="53" y="26" fill="#145A81" width="1" height="1"/>
	<rect x="52" y="26" fill="#54B7EA" width="1" height="1"/>
	<rect x="51" y="26" fill="#145A81" width="1" height="1"/>
	<rect x="43" y="26" fill="#115E86" width="1" height="1"/>
	<rect x="11" y="26" fill="#115E86" width="1" height="1"/>
	<rect x="60" y="25" fill="#54B7EA" width="1" height="1"/>
	<rect x="52" y="25" fill="#145A81" width="1" height="1"/>
	<rect x="36" y="25" fill="#358BB7" width="1" height="1"/>
	<rect x="29" y="23" fill="#54365B" width="1" height="1"/>
	<rect x="5" y="23" fill="#54365B" width="1" height="1"/>
	<rect x="46" y="22" fill="#358BB7" width="1" height="1"/>
	<rect x="27" y="22" fill="#115E86" width="1" height="1"/>
	<rect x="3" y="22" fill="#115E86" width="1" height="1"/>
	<rect x="52" y="21" fill="#115E86" width="1" height="1"/>
	<rect x="20" y="21" fill="#115E86" width="1" height="1"/>
	<rect x="25" y="20" fill="#145A81" width="1" height="1"/>
	<rect x="9" y="20" fill="#145A81" width="1" height="1"/>
	<rect x="26" y="19" fill="#145A81" width="1" height="1"/>
	<rect x="25" y="19" fill="#54B7EA" width="1" height="1"/>
	<rect x="24" y="19" fill="#145A81" width="1" height="1"/>
	<rect x="10" y="19" fill="#145A81" width="1" height="1"/>
	<rect x="9" y="19" fill="#54B7EA" width="1" height="1"/>
	<rect x="8" y="19" fill="#1B688F" width="1" height="1"/>
	<rect x="25" y="18" fill="#145A81" width="1" height="1"/>
	<rect x="9" y="18" fill="#1B688F" width="1" height="1"/>
	<rect x="62" y="17" fill="#54B7EA" width="1" height="1"/>
	<rect x="38" y="17" fill="#54B7EA" width="1" height="1"/>
	<rect x="30" y="17" fill="#54B7EA" width="1" height="1"/>
	<rect x="6" y="17" fill="#54B7EA" width="1" height="1"/>
	<rect x="45" y="16" fill="#115E86" width="1" height="1"/>
	<rect x="19" y="16" fill="#54B7EA" width="1" height="1"/>
	<rect x="12" y="15" fill="#358BB7" width="1" height="1"/>
	<rect x="34" y="13" fill="#145A81" width="1" height="1"/>
	<rect x="29" y="13" fill="#115E86" width="1" height="1"/>
	<rect x="5" y="13" fill="#115E86" width="1" height="1"/>
	<rect x="41" y="12" fill="#54B7EA" width="1" height="1"/>
	<rect x="35" y="12" fill="#145A81" width="1" height="1"/>
	<rect x="34" y="12" fill="#54B7EA" width="1" height="1"/>
	<rect x="33" y="12" fill="#145A81" width="1" height="1"/>
	<rect x="9" y="12" fill="#54B7EA" width="1" height="1"/>
	<rect x="34" y="11" fill="#145A81" width="1" height="1"/>
	<rect x="28" y="11" fill="#115E86" width="1" height="1"/>
	<rect x="4" y="11" fill="#115E86" width="1" height="1"/>
	<rect x="61" y="10" fill="#115E86" width="1" height="1"/>
	<rect x="37" y="10" fill="#115E86" width="1" height="1"/>
	<rect x="52" y="9" fill="#BE4A2F" width="1" height="1"/>
	<rect x="53" y="8" fill="#BE4A2F" width="1" height="1"/>
	<rect x="52" y="8" fill="#FEAE34" width="1" height="1"/>
	<rect x="51" y="8" fill="#BE4A2F" width="1" height="1"/>
	<rect x="43" y="8" fill="#115E86" width="1" height="1"/>
	<rect x="11" y="8" fill="#115E86" width="1" height="1"/>
	<rect x="52" y="7" fill="#BE4A2F" width="1" height="1"/>
	<rect x="31" y="7" fill="#54365B" width="1" height="1"/>
	<rect x="5" y="7" fill="#358BB7" width="1" height="1"/>
	<rect x="56" y="6" fill="#54365B" width="1" height="1"/>
	<rect x="32" y="6" fill="#54365B" width="1" height="1"/>
	<rect x="31" y="6" fill="#F6757A" width="1" height="1"/>
	<rect x="30" y="6" fill="#54365B" width="1" height="1"/>
	<rect x="51" y="5" fill="#145A81" width="1" height="1"/>
	<rect x="44" y="5" fill="#54B7EA" width="1" height="1"/>
	<rect x="37" y="5" fill="#BE4A2F" width="1" height="1"/>
	<rect x="31" y="5" fill="#54365B" width="1" height="1"/>
	<rect x="23" y="5" fill="#115E86" width="1" height="1"/>
	<rect x="19" y="5" fill="#145A81" width="1" height="1"/>
	<rect x="12" y="5" fill="#54B7EA" width="1" height="1"/>
	<rect x="52" y="4" fill="#145A81" width="1" height="1"/>
	<rect x="51" y="4" fill="#358BB7" width="1" height="1"/>
	<rect x="50" y="4" fill="#145A81" width="1" height="1"/>
	<rect x="38" y="4" fill="#BE4A2F" width="1" height="1"/>
	<rect x="37" y="4" fill="#FEAE34" width="1" height="1"/>
	<rect x="36" y="4" fill="#BE4A2F" width="1" height="1"/>
	<rect x="20" y="4" fill="#145A81" width="1" height="1"/>
	<rect x="19" y="4" fill="#358BB7" width="1" height="1"/>
	<rect x="18" y="4" fill="#145A81" width="1" height="1"/>
	<rect x="58" y="3" fill="#358BB7" width="1" height="1"/>
	<rect x="51" y="3" fill="#145A81" width="1" height="1"/>
	<rect x="37" y="3" fill="#BE4A2F" width="1" height="1"/>
	<rect x="34" y="3" fill="#358BB7" width="1" height="1"/>
	<rect x="19" y="3" fill="#145A81" width="1" height="1"/>
	<rect x="2" y="3" fill="#115E86" width="1" height="1"/>
	<rect x="61" y="2" fill="#115E86" width="1" height="1"/>
	<rect x="44" y="1" fill="#115E86" width="1" height="1"/>
	<rect x="12" y="1" fill="#115E86" width="1" height="1"/>
</g>
</svg>
