<?xml version="1.0" encoding="utf-8"?>
<!-- Generator: Adobe Illustrator 16.0.0, SVG Export Plug-In . SVG Version: 6.00 Build 0)  -->
<!DOCTYPE svg PUBLIC "-//W3C//DTD SVG 1.1//EN" "http://www.w3.org/Graphics/SVG/1.1/DTD/svg11.dtd">
<svg version="1.1" id="Icons" xmlns="http://www.w3.org/2000/svg" xmlns:xlink="http://www.w3.org/1999/xlink" x="0px" y="0px"
	 width="64px" height="64px" viewBox="0 0 64 64" enable-background="new 0 0 64 64" xml:space="preserve">
<g>
	<rect fill="#181425" width="64" height="64"/>
	<rect x="49" y="56" fill="#133B5F" width="1" height="1"/>
	<rect x="14" y="56" fill="#0B6FAE" width="1" height="1"/>
	<rect x="8" y="54" fill="#133B5F" width="1" height="1"/>
	<rect x="53" y="53" fill="#133B5F" width="1" height="1"/>
	<rect x="25" y="52" fill="#0B6FAE" width="1" height="1"/>
	<rect x="48" y="46" fill="#133B5F" width="1" height="1"/>
	<rect x="10" y="46" fill="#0099DB" width="1" height="1"/>
	<rect x="11" y="45" fill="#0B6FAE" width="1" height="1"/>
	<rect x="10" y="45" fill="#2CE8F5" width="1" height="1"/>
	<rect x="9" y="45" fill="#0B6FAE" width="1" height="1"/>
	<rect x="61" y="44" fill="#133B5F" width="1" height="1"/>
	<rect x="10" y="44" fill="#0099DB" width="1" height="1"/>
	<rect x="57" y="43" fill="#0099DB" width="1" height="1"/>
	<rect x="39" y="43" fill="#0099DB" width="1" height="1"/>
	<rect x="23" y="43" fill="#133B5F" width="1" height="1"/>
	<rect x="52" y="41" fill="#0B6FAE" width="1" height="1"/>
	<rect x="52" y="40" fill="#0099DB" width="1" height="1"/>
	<rect x="53" y="39" fill="#0099DB" width="1" height="1"/>
	<rect x="52" y="39" fill="#2CE8F5" width="1" height="1"/>
	<rect x="51" y="39" fill="#0099DB" width="1" height="1"/>
	<rect x="47" y="39" fill="#0B6FAE" width="1" height="1"/>
	<rect x="52" y="38" fill="#0B6FAE" width="1" height="1"/>
	<rect x="18" y="38" fill="#0B6FAE" width="1" height="1"/>
	<rect x="52" y="37" fill="#0B6FAE" width="1" height="1"/>
	<rect x="54" y="36" fill="#133B5F" width="1" height="1"/>
	<rect x="4" y="36" fill="#133B5F" width="1" height="1"/>
	<rect x="58" y="34" fill="#0B6FAE" width="1" height="1"/>
	<rect x="22" y="34" fill="#0099DB" width="1" height="1"/>
	<rect x="58" y="29" fill="#133B5F" width="1" height="1"/>
	<rect x="52" y="29" fill="#0099DB" width="1" height="1"/>
	<rect x="33" y="28" fill="#133B5F" width="1" height="1"/>
	<rect x="25" y="27" fill="#0B6FAE" width="1" height="1"/>
	<rect x="16" y="27" fill="#133B5F" width="1" height="1"/>
	<rect x="61" y="26" fill="#133B5F" width="1" height="1"/>
	<rect x="45" y="26" fill="#133B5F" width="1" height="1"/>
	<rect x="36" y="23" fill="#0099DB" width="1" height="1"/>
	<rect x="31" y="23" fill="#0B6FAE" width="1" height="1"/>
	<rect x="51" y="22" fill="#133B5F" width="1" height="1"/>
	<rect x="31" y="22" fill="#0099DB" width="1" height="1"/>
	<rect x="62" y="21" fill="#0B6FAE" width="1" height="1"/>
	<rect x="33" y="21" fill="#0B6FAE" width="1" height="1"/>
	<rect x="32" y="21" fill="#0099DB" width="1" height="1"/>
	<rect x="31" y="21" fill="#2CE8F5" width="1" height="1"/>
	<rect x="30" y="21" fill="#0099DB" width="1" height="1"/>
	<rect x="29" y="21" fill="#0B6FAE" width="1" height="1"/>
	<rect x="31" y="20" fill="#0099DB" width="1" height="1"/>
	<rect x="21" y="20" fill="#0B6FAE" width="1" height="1"/>
	<rect x="31" y="19" fill="#0B6FAE" width="1" height="1"/>
	<rect x="45" y="18" fill="#0B6FAE" width="1" height="1"/>
	<rect x="35" y="18" fill="#133B5F" width="1" height="1"/>
	<rect x="27" y="18" fill="#0099DB" width="1" height="1"/>
	<rect x="54" y="15" fill="#0B6FAE" width="1" height="1"/>
	<rect x="25" y="13" fill="#0B6FAE" width="1" height="1"/>
	<rect x="17" y="12" fill="#0B6FAE" width="1" height="1"/>
	<rect x="12" y="12" fill="#133B5F" width="1" height="1"/>
	<rect x="42" y="11" fill="#0099DB" width="1" height="1"/>
	<rect x="14" y="9" fill="#133B5F" width="1" height="1"/>
	<rect x="54" y="8" fill="#133B5F" width="1" height="1"/>
	<g>
		<rect x="43" y="62" fill="#171E33" width="1" height="1"/>
		<rect x="12" y="59" fill="#171E33" width="3" height="1"/>
		<rect x="15" y="58" fill="#171E33" width="1" height="1"/>
		<rect x="16" y="57" fill="#171E33" width="1" height="1"/>
		<rect x="11" y="56" fill="#171E33" width="1" height="3"/>
		<rect x="29" y="56" fill="#171E33" width="1" height="1"/>
		<rect x="28" y="55" fill="#171E33" width="1" height="1"/>
		<rect x="22" y="55" fill="#171E33" width="1" height="1"/>
		<rect x="12" y="55" fill="#171E33" width="1" height="1"/>
		<polygon fill="#171E33" points="24,54 24,51 23,51 23,55 27,55 27,54 		"/>
		<rect x="17" y="54" fill="#171E33" width="1" height="3"/>
		<rect x="13" y="54" fill="#171E33" width="1" height="1"/>
		<rect x="27" y="51" fill="#171E33" width="1" height="3"/>
		<rect x="14" y="53" fill="#171E33" width="3" height="1"/>
		<rect x="38" y="50" fill="#171E33" width="1" height="1"/>
		<rect x="24" y="50" fill="#171E33" width="3" height="1"/>
		<rect x="28" y="49" fill="#171E33" width="1" height="1"/>
		<rect x="22" y="49" fill="#171E33" width="1" height="1"/>
		<rect x="29" y="48" fill="#171E33" width="1" height="1"/>
		<rect x="21" y="48" fill="#171E33" width="1" height="1"/>
		<rect x="20" y="47" fill="#171E33" width="1" height="1"/>
		<rect x="47" y="42" fill="#171E33" width="3" height="1"/>
		<rect x="46" y="41" fill="#171E33" width="1" height="1"/>
		<rect x="5" y="41" fill="#171E33" width="1" height="1"/>
		<rect x="45" y="40" fill="#171E33" width="1" height="1"/>
		<rect x="50" y="39" fill="#171E33" width="1" height="3"/>
		<rect x="34" y="39" fill="#171E33" width="1" height="1"/>
		<rect x="49" y="38" fill="#171E33" width="1" height="1"/>
		<rect x="44" y="37" fill="#171E33" width="1" height="3"/>
		<rect x="48" y="37" fill="#171E33" width="1" height="1"/>
		<rect x="45" y="36" fill="#171E33" width="3" height="1"/>
		<rect x="25" y="30" fill="#171E33" width="3" height="1"/>
		<rect x="2" y="30" fill="#171E33" width="1" height="1"/>
		<rect x="24" y="29" fill="#171E33" width="1" height="1"/>
		<rect x="28" y="27" fill="#171E33" width="1" height="3"/>
		<rect x="23" y="28" fill="#171E33" width="1" height="1"/>
		<rect x="39" y="27" fill="#171E33" width="1" height="1"/>
		<rect x="22" y="25" fill="#171E33" width="1" height="3"/>
		<rect x="27" y="26" fill="#171E33" width="1" height="1"/>
		<rect x="26" y="25" fill="#171E33" width="1" height="1"/>
		<rect x="23" y="24" fill="#171E33" width="3" height="1"/>
		<rect x="54" y="18" fill="#171E33" width="3" height="1"/>
		<rect x="53" y="17" fill="#171E33" width="1" height="1"/>
		<rect x="52" y="16" fill="#171E33" width="1" height="1"/>
		<rect x="57" y="15" fill="#171E33" width="1" height="3"/>
		<rect x="56" y="14" fill="#171E33" width="1" height="1"/>
		<rect x="51" y="13" fill="#171E33" width="1" height="3"/>
		<rect x="30" y="14" fill="#171E33" width="1" height="1"/>
		<rect x="55" y="13" fill="#171E33" width="1" height="1"/>
		<rect x="52" y="12" fill="#171E33" width="3" height="1"/>
		<rect x="26" y="8" fill="#171E33" width="1" height="1"/>
		<rect x="6" y="8" fill="#171E33" width="1" height="1"/>
	</g>
	<rect x="60" y="6" fill="#0099DB" width="1" height="1"/>
	<g>
		<polygon fill="#152742" points="14,58 13,58 13,59 15,59 15,57 14,57 		"/>
		<polygon fill="#152742" points="14,57 14,56 12,56 12,58 13,58 13,57 		"/>
		<rect x="27" y="54" fill="#152742" width="1" height="1"/>
		<polygon fill="#152742" points="14,54 14,56 15,56 15,55 16,55 16,56 15,56 15,57 17,57 17,54 		"/>
		<path fill="#152742" d="M24,51v3h3v-3H24z M26,53h-1v-1h1V53z"/>
		<rect x="27" y="50" fill="#152742" width="1" height="1"/>
		<rect x="23" y="50" fill="#152742" width="1" height="1"/>
		<rect x="46" y="40" fill="#152742" width="1" height="1"/>
		<polygon fill="#152742" points="49,41 47,41 47,42 50,42 50,39 49,39 		"/>
		<rect x="48" y="38" fill="#152742" width="1" height="1"/>
		<polygon fill="#152742" points="46,38 48,38 48,37 45,37 45,40 46,40 		"/>
		<rect x="10" y="32" fill="#152742" width="1" height="1"/>
		<rect x="42" y="29" fill="#152742" width="1" height="1"/>
		<rect x="24" y="28" fill="#152742" width="1" height="1"/>
		<polygon fill="#152742" points="27,29 25,29 25,30 28,30 28,27 27,27 		"/>
		<rect x="26" y="26" fill="#152742" width="1" height="1"/>
		<polygon fill="#152742" points="24,26 26,26 26,25 23,25 23,28 24,28 		"/>
		<rect x="9" y="19" fill="#152742" width="1" height="1"/>
		<rect x="53" y="16" fill="#152742" width="1" height="1"/>
		<polygon fill="#152742" points="56,15 56,17 54,17 54,18 57,18 57,15 		"/>
		<rect x="55" y="14" fill="#152742" width="1" height="1"/>
		<polygon fill="#152742" points="53,14 55,14 55,13 52,13 52,16 53,16 		"/>
		<rect x="23" y="6" fill="#152742" width="1" height="1"/>
	</g>
	<rect x="51" y="4" fill="#0B6FAE" width="1" height="1"/>
	<rect x="38" y="4" fill="#0B6FAE" width="1" height="1"/>
	<rect x="30" y="4" fill="#0099DB" width="1" height="1"/>
	<rect x="58" y="3" fill="#0099DB" width="1" height="1"/>
	<rect x="31" y="3" fill="#0B6FAE" width="1" height="1"/>
	<rect x="30" y="3" fill="#2CE8F5" width="1" height="1"/>
	<rect x="29" y="3" fill="#0B6FAE" width="1" height="1"/>
	<g>
		<rect x="12" y="58" fill="#123A5F" width="1" height="1"/>
		<rect x="55" y="57" fill="#123A5F" width="1" height="1"/>
		<rect x="15" y="57" fill="#123A5F" width="1" height="1"/>
		<rect x="13" y="57" fill="#123A5F" width="1" height="1"/>
		<rect x="15" y="55" fill="#123A5F" width="1" height="1"/>
		<rect x="13" y="55" fill="#123A5F" width="1" height="1"/>
		<rect x="33" y="54" fill="#123A5F" width="1" height="1"/>
		<rect x="44" y="51" fill="#123A5F" width="1" height="1"/>
		<rect x="33" y="46" fill="#123A5F" width="1" height="1"/>
		<polygon fill="#123A5F" points="48,40 47,40 47,41 49,41 49,39 48,39 		"/>
		<polygon fill="#123A5F" points="48,39 48,38 46,38 46,40 47,40 47,39 		"/>
		<rect x="29" y="33" fill="#123A5F" width="1" height="1"/>
		<polygon fill="#123A5F" points="26,28 25,28 25,29 27,29 27,27 26,27 		"/>
		<polygon fill="#123A5F" points="26,27 26,26 24,26 24,28 25,28 25,27 		"/>
		<rect x="7" y="21" fill="#123A5F" width="1" height="1"/>
		<polygon fill="#123A5F" points="55,15 55,16 54,16 54,17 56,17 56,15 		"/>
		<polygon fill="#123A5F" points="55,15 55,14 53,14 53,16 54,16 54,15 		"/>
		<rect x="32" y="12" fill="#123A5F" width="1" height="1"/>
		<rect x="4" y="3" fill="#123A5F" width="1" height="1"/>
	</g>
	<rect x="30" y="2" fill="#0099DB" width="1" height="1"/>
	<rect x="19" y="2" fill="#133B5F" width="1" height="1"/>
	<rect x="45" y="1" fill="#133B5F" width="1" height="1"/>
	<rect x="36" fill="#172634" width="1" height="1"/>
	<rect x="35" fill="#172634" width="1" height="1"/>
</g>
</svg>
