<?xml version="1.0" encoding="utf-8"?>
<!-- Generator: Adobe Illustrator 16.0.0, SVG Export Plug-In . SVG Version: 6.00 Build 0)  -->
<!DOCTYPE svg PUBLIC "-//W3C//DTD SVG 1.1//EN" "http://www.w3.org/Graphics/SVG/1.1/DTD/svg11.dtd">
<svg version="1.1" id="Icons" xmlns="http://www.w3.org/2000/svg" xmlns:xlink="http://www.w3.org/1999/xlink" x="0px" y="0px"
	 width="64px" height="64px" viewBox="0 0 64 64" enable-background="new 0 0 64 64" xml:space="preserve">
<g>
	<rect fill="#3E2731" width="64" height="64"/>
	<g>
		<rect x="54" y="63" fill="#783B5B" width="1" height="1"/>
		<rect x="6" y="63" fill="#783B5B" width="1" height="1"/>
		<rect x="58" y="62" fill="#2CE8F5" width="1" height="1"/>
		<rect x="45" y="62" fill="#2CE8F5" width="1" height="1"/>
		<rect x="29" y="62" fill="#2CE8F5" width="1" height="1"/>
		<rect x="10" y="62" fill="#2CE8F5" width="1" height="1"/>
		<rect x="27" y="60" fill="#B55088" width="1" height="1"/>
		<rect x="50" y="59" fill="#783B5B" width="1" height="1"/>
		<rect x="28" y="59" fill="#B55088" width="1" height="1"/>
		<rect x="27" y="59" fill="#F6757A" width="1" height="1"/>
		<rect x="26" y="59" fill="#B55088" width="1" height="1"/>
		<rect x="2" y="59" fill="#783B5B" width="1" height="1"/>
		<rect x="62" y="58" fill="#783B5B" width="1" height="1"/>
		<rect x="57" y="58" fill="#68386C" width="1" height="1"/>
		<rect x="52" y="58" fill="#68386C" width="1" height="1"/>
		<rect x="37" y="58" fill="#823965" width="1" height="1"/>
		<rect x="34" y="58" fill="#0B6FAE" width="1" height="1"/>
		<rect x="29" y="58" fill="#823965" width="1" height="1"/>
		<rect x="27" y="58" fill="#B55088" width="1" height="1"/>
		<rect x="21" y="58" fill="#823965" width="1" height="1"/>
		<rect x="14" y="58" fill="#783B5B" width="1" height="1"/>
		<rect x="9" y="58" fill="#68386C" width="1" height="1"/>
		<rect x="4" y="58" fill="#68386C" width="1" height="1"/>
		<rect x="58" y="57" fill="#B55088" width="1" height="1"/>
		<rect x="57" y="57" fill="#F6757A" width="1" height="1"/>
		<rect x="56" y="57" fill="#B55088" width="1" height="1"/>
		<rect x="35" y="57" fill="#0B6FAE" width="1" height="1"/>
		<rect x="34" y="57" fill="#2CE8F5" width="1" height="1"/>
		<rect x="33" y="57" fill="#0B6FAE" width="1" height="1"/>
		<rect x="10" y="57" fill="#B55088" width="1" height="1"/>
		<rect x="9" y="57" fill="#F6757A" width="1" height="1"/>
		<rect x="8" y="57" fill="#B55088" width="1" height="1"/>
		<rect x="62" y="56" fill="#8B9BB4" width="1" height="1"/>
		<rect x="57" y="56" fill="#B55088" width="1" height="1"/>
		<rect x="50" y="56" fill="#2CE8F5" width="1" height="1"/>
		<rect x="34" y="56" fill="#0B6FAE" width="1" height="1"/>
		<rect x="14" y="56" fill="#8B9BB4" width="1" height="1"/>
		<rect x="9" y="56" fill="#B55088" width="1" height="1"/>
		<rect x="2" y="56" fill="#2CE8F5" width="1" height="1"/>
		<rect x="63" y="55" fill="#8B9BB4" width="1" height="1"/>
		<rect x="62" y="55" fill="#E9E5E1" width="1" height="1"/>
		<rect x="61" y="55" fill="#8B9BB4" width="1" height="1"/>
		<rect x="39" y="55" fill="#2CE8F5" width="1" height="1"/>
		<rect x="15" y="55" fill="#8B9BB4" width="1" height="1"/>
		<rect x="14" y="55" fill="#E9E5E1" width="1" height="1"/>
		<rect x="13" y="55" fill="#8B9BB4" width="1" height="1"/>
		<rect x="62" y="54" fill="#8B9BB4" width="1" height="1"/>
		<rect x="43" y="54" fill="#68386C" width="1" height="1"/>
		<rect x="27" y="54" fill="#68386C" width="1" height="1"/>
		<rect x="14" y="54" fill="#8B9BB4" width="1" height="1"/>
		<rect x="52" y="53" fill="#B55088" width="1" height="1"/>
		<rect x="34" y="53" fill="#68386C" width="1" height="1"/>
		<rect x="18" y="53" fill="#68386C" width="1" height="1"/>
		<rect x="4" y="53" fill="#B55088" width="1" height="1"/>
		<rect x="59" y="52" fill="#672A51" width="1" height="1"/>
		<rect x="29" y="52" fill="#E9E5E1" width="1" height="1"/>
		<rect x="11" y="52" fill="#672A51" width="1" height="1"/>
		<rect x="2" y="49" fill="#E9E5E1" width="1" height="1"/>
		<rect x="58" y="47" fill="#823965" width="1" height="1"/>
		<rect x="39" y="47" fill="#823965" width="1" height="1"/>
		<rect x="23" y="47" fill="#823965" width="1" height="1"/>
		<rect x="10" y="47" fill="#823965" width="1" height="1"/>
		<rect x="4" y="47" fill="#68386C" width="1" height="1"/>
		<rect x="20" y="46" fill="#2CE8F5" width="1" height="1"/>
		<rect x="5" y="46" fill="#68386C" width="1" height="1"/>
		<rect x="4" y="46" fill="#B55088" width="1" height="1"/>
		<rect x="3" y="46" fill="#68386C" width="1" height="1"/>
		<rect x="48" y="45" fill="#672A51" width="1" height="1"/>
		<rect x="41" y="45" fill="#68386C" width="1" height="1"/>
		<rect x="6" y="45" fill="#68386C" width="1" height="1"/>
		<rect x="5" y="45" fill="#B55088" width="1" height="1"/>
		<rect x="4" y="45" fill="#F6757A" width="1" height="1"/>
		<rect x="3" y="45" fill="#B55088" width="1" height="1"/>
		<rect x="2" y="45" fill="#68386C" width="1" height="1"/>
		<rect x="5" y="44" fill="#68386C" width="1" height="1"/>
		<rect x="4" y="44" fill="#B55088" width="1" height="1"/>
		<rect x="3" y="44" fill="#68386C" width="1" height="1"/>
		<rect x="50" y="43" fill="#2CE8F5" width="1" height="1"/>
		<rect x="29" y="43" fill="#68386C" width="1" height="1"/>
		<rect x="25" y="43" fill="#823965" width="1" height="1"/>
		<rect x="4" y="43" fill="#68386C" width="1" height="1"/>
		<rect x="1" y="43" fill="#672A51" width="1" height="1"/>
		<rect x="30" y="42" fill="#68386C" width="1" height="1"/>
		<rect x="29" y="42" fill="#F6757A" width="1" height="1"/>
		<rect x="28" y="42" fill="#68386C" width="1" height="1"/>
		<rect x="52" y="41" fill="#823965" width="1" height="1"/>
		<rect x="40" y="41" fill="#672A51" width="1" height="1"/>
		<rect x="29" y="41" fill="#68386C" width="1" height="1"/>
		<rect x="58" y="40" fill="#68386C" width="1" height="1"/>
		<rect x="30" y="40" fill="#68386C" width="1" height="1"/>
		<rect x="10" y="40" fill="#68386C" width="1" height="1"/>
		<rect x="37" y="39" fill="#823965" width="1" height="1"/>
		<rect x="26" y="39" fill="#0099DB" width="1" height="1"/>
		<rect x="61" y="38" fill="#B55088" width="1" height="1"/>
		<rect x="51" y="38" fill="#68386C" width="1" height="1"/>
		<rect x="27" y="38" fill="#0099DB" width="1" height="1"/>
		<rect x="26" y="38" fill="#2CE8F5" width="1" height="1"/>
		<rect x="25" y="38" fill="#0099DB" width="1" height="1"/>
		<rect x="13" y="38" fill="#B55088" width="1" height="1"/>
		<rect x="62" y="37" fill="#B55088" width="1" height="1"/>
		<rect x="61" y="37" fill="#F6757A" width="1" height="1"/>
		<rect x="60" y="37" fill="#B55088" width="1" height="1"/>
		<rect x="52" y="37" fill="#0099DB" width="1" height="1"/>
		<rect x="26" y="37" fill="#0099DB" width="1" height="1"/>
		<rect x="18" y="37" fill="#2CE8F5" width="1" height="1"/>
		<rect x="14" y="37" fill="#B55088" width="1" height="1"/>
		<rect x="13" y="37" fill="#F6757A" width="1" height="1"/>
		<rect x="12" y="37" fill="#B55088" width="1" height="1"/>
		<rect x="61" y="36" fill="#B55088" width="1" height="1"/>
		<rect x="54" y="36" fill="#68386C" width="1" height="1"/>
		<rect x="53" y="36" fill="#0099DB" width="1" height="1"/>
		<rect x="52" y="36" fill="#E9E5E1" width="1" height="1"/>
		<rect x="51" y="36" fill="#0099DB" width="1" height="1"/>
		<rect x="48" y="36" fill="#672A51" width="1" height="1"/>
		<rect x="29" y="36" fill="#823965" width="1" height="1"/>
		<rect x="13" y="36" fill="#B55088" width="1" height="1"/>
		<rect x="6" y="36" fill="#68386C" width="1" height="1"/>
		<rect x="55" y="35" fill="#68386C" width="1" height="1"/>
		<rect x="54" y="35" fill="#B55088" width="1" height="1"/>
		<rect x="53" y="35" fill="#68386C" width="1" height="1"/>
		<rect x="52" y="35" fill="#0099DB" width="1" height="1"/>
		<rect x="20" y="35" fill="#823965" width="1" height="1"/>
		<rect x="55" y="34" fill="#B55088" width="1" height="1"/>
		<rect x="54" y="34" fill="#F6757A" width="1" height="1"/>
		<rect x="53" y="34" fill="#B55088" width="1" height="1"/>
		<rect x="52" y="34" fill="#68386C" width="1" height="1"/>
		<rect x="37" y="34" fill="#68386C" width="1" height="1"/>
		<rect x="25" y="34" fill="#922D73" width="1" height="1"/>
		<rect x="55" y="33" fill="#68386C" width="1" height="1"/>
		<rect x="54" y="33" fill="#B55088" width="1" height="1"/>
		<rect x="53" y="33" fill="#68386C" width="1" height="1"/>
		<rect x="41" y="33" fill="#823965" width="1" height="1"/>
		<rect x="54" y="32" fill="#68386C" width="1" height="1"/>
		<rect x="26" y="32" fill="#68386C" width="1" height="1"/>
		<rect x="28" y="31" fill="#124E89" width="1" height="1"/>
		<rect x="22" y="31" fill="#68386C" width="1" height="1"/>
		<rect x="57" y="30" fill="#823965" width="1" height="1"/>
		<rect x="30" y="30" fill="#783B5B" width="1" height="1"/>
		<rect x="29" y="30" fill="#124E89" width="1" height="1"/>
		<rect x="28" y="30" fill="#0099DB" width="1" height="1"/>
		<rect x="27" y="30" fill="#124E89" width="1" height="1"/>
		<rect x="23" y="30" fill="#68386C" width="1" height="1"/>
		<rect x="22" y="30" fill="#B55088" width="1" height="1"/>
		<rect x="21" y="30" fill="#68386C" width="1" height="1"/>
		<rect x="9" y="30" fill="#823965" width="1" height="1"/>
		<rect x="30" y="29" fill="#124E89" width="1" height="1"/>
		<rect x="29" y="29" fill="#0099DB" width="1" height="1"/>
		<rect x="28" y="29" fill="#2CE8F5" width="1" height="1"/>
		<rect x="27" y="29" fill="#0099DB" width="1" height="1"/>
		<rect x="26" y="29" fill="#124E89" width="1" height="1"/>
		<rect x="23" y="29" fill="#B55088" width="1" height="1"/>
		<rect x="22" y="29" fill="#F6757A" width="1" height="1"/>
		<rect x="21" y="29" fill="#B55088" width="1" height="1"/>
		<rect x="20" y="29" fill="#68386C" width="1" height="1"/>
		<rect x="7" y="29" fill="#2CE8F5" width="1" height="1"/>
		<rect x="5" y="29" fill="#68386C" width="1" height="1"/>
		<rect x="52" y="28" fill="#823965" width="1" height="1"/>
		<rect x="29" y="28" fill="#124E89" width="1" height="1"/>
		<rect x="28" y="28" fill="#0099DB" width="1" height="1"/>
		<rect x="27" y="28" fill="#124E89" width="1" height="1"/>
		<rect x="23" y="28" fill="#68386C" width="1" height="1"/>
		<rect x="22" y="28" fill="#B55088" width="1" height="1"/>
		<rect x="21" y="28" fill="#68386C" width="1" height="1"/>
		<rect x="20" y="28" fill="#0099DB" width="1" height="1"/>
		<rect x="45" y="27" fill="#B55088" width="1" height="1"/>
		<rect x="38" y="27" fill="#68386C" width="1" height="1"/>
		<rect x="28" y="27" fill="#124E89" width="1" height="1"/>
		<rect x="22" y="27" fill="#68386C" width="1" height="1"/>
		<rect x="21" y="27" fill="#0099DB" width="1" height="1"/>
		<rect x="20" y="27" fill="#E9E5E1" width="1" height="1"/>
		<rect x="19" y="27" fill="#0099DB" width="1" height="1"/>
		<rect x="16" y="27" fill="#672A51" width="1" height="1"/>
		<rect x="50" y="26" fill="#2CE8F5" width="1" height="1"/>
		<rect x="46" y="26" fill="#B55088" width="1" height="1"/>
		<rect x="45" y="26" fill="#F6757A" width="1" height="1"/>
		<rect x="44" y="26" fill="#B55088" width="1" height="1"/>
		<rect x="26" y="26" fill="#68386C" width="1" height="1"/>
		<rect x="20" y="26" fill="#0099DB" width="1" height="1"/>
		<rect x="45" y="25" fill="#B55088" width="1" height="1"/>
		<rect x="34" y="25" fill="#2CE8F5" width="1" height="1"/>
		<rect x="19" y="25" fill="#68386C" width="1" height="1"/>
		<rect x="5" y="24" fill="#823965" width="1" height="1"/>
		<rect x="42" y="23" fill="#68386C" width="1" height="1"/>
		<rect x="56" y="22" fill="#672A51" width="1" height="1"/>
		<rect x="20" y="22" fill="#823965" width="1" height="1"/>
		<rect x="8" y="22" fill="#672A51" width="1" height="1"/>
		<rect x="36" y="20" fill="#68386C" width="1" height="1"/>
		<rect x="33" y="20" fill="#672A51" width="1" height="1"/>
		<rect x="18" y="20" fill="#2CE8F5" width="1" height="1"/>
		<rect x="37" y="19" fill="#68386C" width="1" height="1"/>
		<rect x="36" y="19" fill="#B55088" width="1" height="1"/>
		<rect x="35" y="19" fill="#68386C" width="1" height="1"/>
		<rect x="57" y="18" fill="#68386C" width="1" height="1"/>
		<rect x="38" y="18" fill="#68386C" width="1" height="1"/>
		<rect x="37" y="18" fill="#B55088" width="1" height="1"/>
		<rect x="36" y="18" fill="#F6757A" width="1" height="1"/>
		<rect x="35" y="18" fill="#B55088" width="1" height="1"/>
		<rect x="34" y="18" fill="#68386C" width="1" height="1"/>
		<rect x="16" y="18" fill="#672A51" width="1" height="1"/>
		<rect x="9" y="18" fill="#68386C" width="1" height="1"/>
		<rect x="37" y="17" fill="#68386C" width="1" height="1"/>
		<rect x="36" y="17" fill="#B55088" width="1" height="1"/>
		<rect x="35" y="17" fill="#68386C" width="1" height="1"/>
		<rect x="55" y="16" fill="#823965" width="1" height="1"/>
		<rect x="42" y="16" fill="#823965" width="1" height="1"/>
		<rect x="36" y="16" fill="#68386C" width="1" height="1"/>
		<rect x="26" y="16" fill="#823965" width="1" height="1"/>
		<rect x="7" y="16" fill="#823965" width="1" height="1"/>
		<rect x="44" y="14" fill="#2CE8F5" width="1" height="1"/>
		<rect x="28" y="14" fill="#2CE8F5" width="1" height="1"/>
		<rect x="2" y="14" fill="#2CE8F5" width="1" height="1"/>
		<rect x="61" y="11" fill="#E9E5E1" width="1" height="1"/>
		<rect x="43" y="11" fill="#672A51" width="1" height="1"/>
		<rect x="27" y="11" fill="#672A51" width="1" height="1"/>
		<rect x="13" y="11" fill="#E9E5E1" width="1" height="1"/>
		<rect x="50" y="10" fill="#68386C" width="1" height="1"/>
		<rect x="36" y="10" fill="#B55088" width="1" height="1"/>
		<rect x="20" y="10" fill="#B55088" width="1" height="1"/>
		<rect x="2" y="10" fill="#68386C" width="1" height="1"/>
		<rect x="59" y="9" fill="#68386C" width="1" height="1"/>
		<rect x="30" y="9" fill="#8B9BB4" width="1" height="1"/>
		<rect x="11" y="9" fill="#68386C" width="1" height="1"/>
		<rect x="55" y="8" fill="#2CE8F5" width="1" height="1"/>
		<rect x="31" y="8" fill="#8B9BB4" width="1" height="1"/>
		<rect x="30" y="8" fill="#E9E5E1" width="1" height="1"/>
		<rect x="29" y="8" fill="#8B9BB4" width="1" height="1"/>
		<rect x="41" y="7" fill="#B55088" width="1" height="1"/>
		<rect x="34" y="7" fill="#2CE8F5" width="1" height="1"/>
		<rect x="30" y="7" fill="#8B9BB4" width="1" height="1"/>
		<rect x="18" y="7" fill="#2CE8F5" width="1" height="1"/>
		<rect x="2" y="7" fill="#0B6FAE" width="1" height="1"/>
		<rect x="42" y="6" fill="#B55088" width="1" height="1"/>
		<rect x="41" y="6" fill="#F6757A" width="1" height="1"/>
		<rect x="40" y="6" fill="#B55088" width="1" height="1"/>
		<rect x="3" y="6" fill="#0B6FAE" width="1" height="1"/>
		<rect x="2" y="6" fill="#2CE8F5" width="1" height="1"/>
		<rect x="1" y="6" fill="#0B6FAE" width="1" height="1"/>
		<rect x="61" y="5" fill="#823965" width="1" height="1"/>
		<rect x="53" y="5" fill="#823965" width="1" height="1"/>
		<rect x="50" y="5" fill="#0B6FAE" width="1" height="1"/>
		<rect x="46" y="5" fill="#783B5B" width="1" height="1"/>
		<rect x="41" y="5" fill="#68386C" width="1" height="1"/>
		<rect x="36" y="5" fill="#68386C" width="1" height="1"/>
		<rect x="30" y="5" fill="#783B5B" width="1" height="1"/>
		<rect x="20" y="5" fill="#68386C" width="1" height="1"/>
		<rect x="11" y="5" fill="#B55088" width="1" height="1"/>
		<rect x="5" y="5" fill="#823965" width="1" height="1"/>
		<rect x="2" y="5" fill="#0B6FAE" width="1" height="1"/>
		<rect x="34" y="4" fill="#783B5B" width="1" height="1"/>
		<rect x="18" y="4" fill="#783B5B" width="1" height="1"/>
		<rect x="12" y="4" fill="#B55088" width="1" height="1"/>
		<rect x="11" y="4" fill="#F6757A" width="1" height="1"/>
		<rect x="10" y="4" fill="#B55088" width="1" height="1"/>
		<g>
			<polygon fill="#532445" points="38,59 37,59 37,60 39,60 39,58 38,58 			"/>
			<polygon fill="#532445" points="22,59 21,59 21,60 23,60 23,58 22,58 			"/>
			<polygon fill="#532445" points="28,57 28,59 29,59 29,58 30,58 30,57 			"/>
			<rect x="60" y="55" fill="#532445" width="1" height="1"/>
			<rect x="12" y="55" fill="#532445" width="1" height="1"/>
			<polygon fill="#532445" points="52,53 51,53 51,55 53,55 53,54 52,54 			"/>
			<polygon fill="#532445" points="4,53 3,53 3,55 5,55 5,54 4,54 			"/>
			<rect x="46" y="52" fill="#532445" width="1" height="1"/>
			<rect x="30" y="52" fill="#532445" width="1" height="1"/>
			<rect x="23" y="48" fill="#532445" width="2" height="1"/>
			<polygon fill="#532445" points="58,47 57,47 57,49 59,49 59,48 58,48 			"/>
			<polygon fill="#532445" points="40,48 39,48 39,49 41,49 41,47 40,47 			"/>
			<polygon fill="#532445" points="10,47 9,47 9,49 11,49 11,48 10,48 			"/>
			<rect x="43" y="45" fill="#532445" width="1" height="1"/>
			<rect x="33" y="44" fill="#532445" width="1" height="1"/>
			<rect x="17" y="44" fill="#532445" width="1" height="1"/>
			<rect x="59" y="42" fill="#532445" width="1" height="1"/>
			<polygon fill="#532445" points="25,42 25,43 26,43 26,44 27,44 27,42 			"/>
			<rect x="11" y="42" fill="#532445" width="1" height="1"/>
			<polygon fill="#532445" points="51,40 51,42 52,42 52,41 53,41 53,40 			"/>
			<rect x="47" y="40" fill="#532445" width="1" height="1"/>
			<polygon fill="#532445" points="37,41 39,41 39,39 38,39 38,40 37,40 			"/>
			<rect x="3" y="37" fill="#532445" width="2" height="2"/>
			<polygon fill="#532445" points="28,36 28,38 30,38 30,37 29,37 29,36 			"/>
			<polygon fill="#532445" points="21,36 20,36 20,35 19,35 19,37 21,37 			"/>
			<rect x="61" y="34" fill="#532445" width="1" height="1"/>
			<rect x="50" y="34" fill="#532445" width="1" height="1"/>
			<rect x="13" y="34" fill="#532445" width="1" height="1"/>
			<polygon fill="#532445" points="40,32 40,34 41,34 41,33 42,33 42,32 			"/>
			<polygon fill="#532445" points="58,32 58,31 57,31 57,30 56,30 56,32 			"/>
			<polygon fill="#532445" points="10,32 10,31 9,31 9,30 8,30 8,32 			"/>
			<rect x="45" y="29" fill="#532445" width="1" height="1"/>
			<rect x="31" y="29" fill="#532445" width="1" height="1"/>
			<rect x="24" y="28" fill="#532445" width="2" height="2"/>
			<rect x="18" y="29" fill="#532445" width="1" height="1"/>
			<polygon fill="#532445" points="51,27 51,29 52,29 52,28 53,28 53,27 			"/>
			<rect x="35" y="25" fill="#532445" width="2" height="2"/>
			<rect x="63" y="23" fill="#532445" width="1" height="1"/>
			<polygon fill="#532445" points="21,24 21,23 20,23 20,22 19,22 19,24 			"/>
			<rect x="15" y="23" fill="#532445" width="1" height="1"/>
			<polygon fill="#532445" points="5,23 5,24 6,24 6,25 7,25 7,23 			"/>
			<rect x="43" y="21" fill="#532445" width="1" height="1"/>
			<rect x="27" y="21" fill="#532445" width="1" height="1"/>
			<rect x="49" y="19" fill="#532445" width="1" height="1"/>
			<rect x="1" y="19" fill="#532445" width="1" height="1"/>
			<rect x="59" y="18" fill="#532445" width="1" height="1"/>
			<rect x="11" y="18" fill="#532445" width="1" height="1"/>
			<polygon fill="#532445" points="56,17 57,17 57,15 55,15 55,16 56,16 			"/>
			<polygon fill="#532445" points="26,16 27,16 27,15 25,15 25,17 26,17 			"/>
			<polygon fill="#532445" points="8,17 9,17 9,15 7,15 7,16 8,16 			"/>
			<polygon fill="#532445" points="43,15 41,15 41,17 42,17 42,16 43,16 			"/>
			<rect x="62" y="11" fill="#532445" width="1" height="1"/>
			<rect x="14" y="11" fill="#532445" width="1" height="1"/>
			<polygon fill="#532445" points="36,10 37,10 37,9 35,9 35,11 36,11 			"/>
			<polygon fill="#532445" points="20,10 21,10 21,9 19,9 19,11 20,11 			"/>
			<rect x="44" y="8" fill="#532445" width="1" height="1"/>
			<rect x="28" y="8" fill="#532445" width="1" height="1"/>
			<polygon fill="#532445" points="62,7 62,6 61,6 61,5 60,5 60,7 			"/>
			<polygon fill="#532445" points="14,7 14,6 13,6 13,5 12,5 12,7 			"/>
			<polygon fill="#532445" points="55,6 55,4 53,4 53,5 54,5 54,6 			"/>
			<polygon fill="#532445" points="6,6 7,6 7,4 5,4 5,5 6,5 			"/>
		</g>
		<rect x="11" y="3" fill="#B55088" width="1" height="1"/>
		<rect x="51" y="2" fill="#8B9BB4" width="1" height="1"/>
		<rect x="3" y="2" fill="#8B9BB4" width="1" height="1"/>
		<rect x="61" y="1" fill="#2CE8F5" width="1" height="1"/>
		<rect x="52" y="1" fill="#8B9BB4" width="1" height="1"/>
		<rect x="51" y="1" fill="#E9E5E1" width="1" height="1"/>
		<rect x="50" y="1" fill="#8B9BB4" width="1" height="1"/>
		<g>
			<rect x="39" y="62" fill="#53304E" width="1" height="1"/>
			<rect x="23" y="62" fill="#53304E" width="1" height="1"/>
			<rect x="60" y="61" fill="#53304E" width="1" height="1"/>
			<rect x="44" y="61" fill="#53304E" width="1" height="1"/>
			<rect x="28" y="61" fill="#53304E" width="1" height="1"/>
			<rect x="12" y="61" fill="#53304E" width="1" height="1"/>
			<rect x="33" y="60" fill="#53304E" width="1" height="1"/>
			<rect x="17" y="60" fill="#53304E" width="1" height="1"/>
			<polygon fill="#53304E" points="50,59 49,59 49,61 51,61 51,60 50,60 			"/>
			<polygon fill="#53304E" points="2,59 1,59 1,61 3,61 3,60 2,60 			"/>
			<polygon fill="#53304E" points="36,57 36,59 37,59 37,58 38,58 38,57 			"/>
			<polygon fill="#53304E" points="20,57 20,59 21,59 21,58 22,58 22,57 			"/>
			<polygon fill="#53304E" points="52,52 52,53 53,53 53,54 54,54 54,52 			"/>
			<polygon fill="#53304E" points="4,52 4,53 5,53 5,54 6,54 6,52 			"/>
			<rect x="62" y="51" fill="#53304E" width="1" height="1"/>
			<rect x="37" y="51" fill="#53304E" width="1" height="1"/>
			<rect x="21" y="51" fill="#53304E" width="1" height="1"/>
			<rect x="14" y="51" fill="#53304E" width="1" height="1"/>
			<rect x="49" y="50" fill="#53304E" width="1" height="1"/>
			<rect x="44" y="50" fill="#53304E" width="1" height="1"/>
			<rect x="28" y="50" fill="#53304E" width="1" height="1"/>
			<rect x="1" y="50" fill="#53304E" width="1" height="1"/>
			<polygon fill="#53304E" points="60,48 60,46 58,46 58,47 59,47 59,48 			"/>
			<polygon fill="#53304E" points="12,48 12,46 10,46 10,47 11,47 11,48 			"/>
			<polygon fill="#53304E" points="38,46 38,48 39,48 39,47 40,47 40,46 			"/>
			<polygon fill="#53304E" points="22,46 22,48 23,48 23,47 24,47 24,46 			"/>
			<rect x="52" y="45" fill="#53304E" width="1" height="1"/>
			<rect x="28" y="45" fill="#53304E" width="1" height="1"/>
			<polygon fill="#53304E" points="25,43 24,43 24,45 26,45 26,44 25,44 			"/>
			<rect x="6" y="42" fill="#53304E" width="1" height="1"/>
			<rect x="44" y="39" fill="#53304E" width="1" height="1"/>
			<polygon fill="#53304E" points="37,39 38,39 38,38 36,38 36,40 37,40 			"/>
			<rect x="25" y="39" fill="#53304E" width="1" height="1"/>
			<rect x="17" y="39" fill="#53304E" width="1" height="1"/>
			<rect x="54" y="38" fill="#53304E" width="1" height="1"/>
			<rect x="32" y="38" fill="#53304E" width="1" height="1"/>
			<polygon fill="#53304E" points="29,35 29,36 30,36 30,37 31,37 31,35 			"/>
			<rect x="45" y="34" fill="#53304E" width="1" height="1"/>
			<rect x="2" y="34" fill="#53304E" width="1" height="1"/>
			<rect x="47" y="32" fill="#53304E" width="1" height="1"/>
			<rect x="63" y="31" fill="#53304E" width="1" height="1"/>
			<rect x="15" y="31" fill="#53304E" width="1" height="1"/>
			<rect x="61" y="29" fill="#53304E" width="1" height="1"/>
			<rect x="34" y="29" fill="#53304E" width="1" height="1"/>
			<rect x="13" y="29" fill="#53304E" width="1" height="1"/>
			<rect x="30" y="25" fill="#53304E" width="1" height="1"/>
			<rect x="22" y="25" fill="#53304E" width="1" height="1"/>
			<polygon fill="#53304E" points="6,26 6,25 5,25 5,24 4,24 4,26 			"/>
			<rect y="25" fill="#53304E" width="1" height="1"/>
			<rect x="60" y="24" fill="#53304E" width="1" height="1"/>
			<rect x="49" y="24" fill="#53304E" width="1" height="1"/>
			<rect x="12" y="24" fill="#53304E" width="1" height="1"/>
			<rect x="38" y="21" fill="#53304E" width="1" height="1"/>
			<rect x="20" y="18" fill="#53304E" width="1" height="1"/>
			<polygon fill="#53304E" points="44,16 43,16 43,17 42,17 42,18 44,18 			"/>
			<polygon fill="#53304E" points="28,16 27,16 27,17 26,17 26,18 28,18 			"/>
			<polygon fill="#53304E" points="55,16 54,16 54,18 56,18 56,17 55,17 			"/>
			<polygon fill="#53304E" points="7,16 6,16 6,18 8,18 8,17 7,17 			"/>
			<rect x="60" y="13" fill="#53304E" width="1" height="1"/>
			<rect x="33" y="13" fill="#53304E" width="1" height="1"/>
			<rect x="17" y="13" fill="#53304E" width="1" height="1"/>
			<rect x="12" y="13" fill="#53304E" width="1" height="1"/>
			<rect x="53" y="12" fill="#53304E" width="1" height="1"/>
			<rect x="46" y="12" fill="#53304E" width="1" height="1"/>
			<rect x="30" y="12" fill="#53304E" width="1" height="1"/>
			<rect x="5" y="12" fill="#53304E" width="1" height="1"/>
			<polygon fill="#53304E" points="38,12 38,10 37,10 37,11 36,11 36,12 			"/>
			<polygon fill="#53304E" points="22,12 22,10 21,10 21,11 20,11 20,12 			"/>
			<polygon fill="#53304E" points="54,7 54,6 53,6 53,5 52,5 52,7 			"/>
			<polygon fill="#53304E" points="6,7 6,6 5,6 5,5 4,5 4,7 			"/>
			<rect x="49" y="3" fill="#53304E" width="1" height="1"/>
			<polygon fill="#53304E" points="33,3 33,5 34,5 34,4 35,4 35,3 			"/>
			<polygon fill="#53304E" points="17,3 17,5 18,5 18,4 19,4 19,3 			"/>
			<rect x="1" y="3" fill="#53304E" width="1" height="1"/>
			<rect x="60" y="2" fill="#53304E" width="1" height="1"/>
			<rect x="44" y="2" fill="#53304E" width="1" height="1"/>
			<rect x="28" y="2" fill="#53304E" width="1" height="1"/>
			<rect x="12" y="2" fill="#53304E" width="1" height="1"/>
			<rect x="55" y="1" fill="#53304E" width="1" height="1"/>
			<rect x="7" y="1" fill="#53304E" width="1" height="1"/>
		</g>
		<rect x="4" y="1" fill="#8B9BB4" width="1" height="1"/>
		<rect x="3" y="1" fill="#E9E5E1" width="1" height="1"/>
		<rect x="2" y="1" fill="#8B9BB4" width="1" height="1"/>
		<rect x="51" fill="#8B9BB4" width="1" height="1"/>
		<rect x="38" fill="#783B5B" width="1" height="1"/>
		<rect x="22" fill="#783B5B" width="1" height="1"/>
		<rect x="3" fill="#8B9BB4" width="1" height="1"/>
	</g>
</g>
</svg>
