<?xml version="1.0" encoding="utf-8"?>
<!-- Generator: Adobe Illustrator 16.0.0, SVG Export Plug-In . SVG Version: 6.00 Build 0)  -->
<!DOCTYPE svg PUBLIC "-//W3C//DTD SVG 1.1//EN" "http://www.w3.org/Graphics/SVG/1.1/DTD/svg11.dtd">
<svg version="1.1" id="Icons" xmlns="http://www.w3.org/2000/svg" xmlns:xlink="http://www.w3.org/1999/xlink" x="0px" y="0px"
	 width="64px" height="64px" viewBox="0 0 64 64" enable-background="new 0 0 64 64" xml:space="preserve">
<g>
	<rect fill="#162D3A" width="64" height="64"/>
	<rect x="36" y="63" fill="#01A3DB" width="1" height="1"/>
	<rect x="22" y="63" fill="#0B7DB3" width="1" height="1"/>
	<rect x="57" y="62" fill="#0B7DB3" width="1" height="1"/>
	<rect x="48" y="62" fill="#1A5250" width="1" height="1"/>
	<rect x="53" y="61" fill="#143E53" width="1" height="1"/>
	<rect x="52" y="61" fill="#143E53" width="1" height="1"/>
	<rect x="48" y="61" fill="#226663" width="1" height="1"/>
	<rect x="14" y="61" fill="#01A3DB" width="1" height="1"/>
	<rect x="9" y="61" fill="#143E53" width="1" height="1"/>
	<rect x="53" y="60" fill="#143E53" width="1" height="1"/>
	<rect x="49" y="60" fill="#226663" width="1" height="1"/>
	<rect x="48" y="60" fill="#65E8ED" width="1" height="1"/>
	<rect x="47" y="60" fill="#226663" width="1" height="1"/>
	<rect x="48" y="59" fill="#226663" width="1" height="1"/>
	<rect x="33" y="59" fill="#143E53" width="1" height="1"/>
	<rect x="40" y="58" fill="#138EA8" width="1" height="1"/>
	<rect x="20" y="58" fill="#0B7DB3" width="1" height="1"/>
	<rect x="17" y="58" fill="#143E53" width="1" height="1"/>
	<rect x="1" y="58" fill="#0B7DB3" width="1" height="1"/>
	<rect x="40" y="57" fill="#26C3CE" width="1" height="1"/>
	<rect x="6" y="57" fill="#28E9F2" width="1" height="1"/>
	<rect x="54" y="56" fill="#143E53" width="1" height="1"/>
	<rect x="42" y="56" fill="#138EA8" width="1" height="1"/>
	<rect x="41" y="56" fill="#26BECC" width="1" height="1"/>
	<rect x="40" y="56" fill="#65E8ED" width="1" height="1"/>
	<rect x="39" y="56" fill="#26C3CE" width="1" height="1"/>
	<rect x="38" y="56" fill="#1C8192" width="1" height="1"/>
	<rect x="35" y="56" fill="#143E53" width="1" height="1"/>
	<rect x="11" y="56" fill="#0B7DB3" width="1" height="1"/>
	<rect x="63" y="55" fill="#143E53" width="1" height="1"/>
	<rect x="57" y="55" fill="#01A3DB" width="1" height="1"/>
	<rect x="40" y="55" fill="#26C3CE" width="1" height="1"/>
	<rect x="34" y="55" fill="#143E53" width="1" height="1"/>
	<rect x="28" y="55" fill="#143E53" width="1" height="1"/>
	<rect x="40" y="54" fill="#1C8192" width="1" height="1"/>
	<rect x="36" y="54" fill="#0B7DB3" width="1" height="1"/>
	<rect x="9" y="54" fill="#01A3DB" width="1" height="1"/>
	<rect x="20" y="53" fill="#143E53" width="1" height="1"/>
	<rect x="19" y="53" fill="#143E53" width="1" height="1"/>
	<rect x="18" y="53" fill="#143E53" width="1" height="1"/>
	<rect x="61" y="52" fill="#01A3DB" width="1" height="1"/>
	<rect x="20" y="52" fill="#143E53" width="1" height="1"/>
	<rect x="17" y="52" fill="#143E53" width="1" height="1"/>
	<rect x="43" y="51" fill="#0B7DB3" width="1" height="1"/>
	<rect x="20" y="51" fill="#143E53" width="1" height="1"/>
	<rect x="18" y="51" fill="#0B7DB3" width="1" height="1"/>
	<rect x="16" y="51" fill="#143E53" width="1" height="1"/>
	<rect x="56" y="50" fill="#0B7DB3" width="1" height="1"/>
	<rect x="26" y="50" fill="#0B7DB3" width="1" height="1"/>
	<rect x="19" y="50" fill="#143E53" width="1" height="1"/>
	<rect x="17" y="50" fill="#0B7DB3" width="1" height="1"/>
	<rect x="15" y="50" fill="#143E53" width="1" height="1"/>
	<rect x="3" y="50" fill="#0B7DB3" width="1" height="1"/>
	<rect x="18" y="49" fill="#143E53" width="1" height="1"/>
	<rect x="15" y="49" fill="#143E53" width="1" height="1"/>
	<rect x="53" y="48" fill="#143E53" width="1" height="1"/>
	<rect x="44" y="48" fill="#143E53" width="1" height="1"/>
	<rect x="29" y="48" fill="#01A3DB" width="1" height="1"/>
	<rect x="20" y="48" fill="#01A3DB" width="1" height="1"/>
	<rect x="17" y="48" fill="#143E53" width="1" height="1"/>
	<rect x="16" y="48" fill="#143E53" width="1" height="1"/>
	<rect x="15" y="48" fill="#143E53" width="1" height="1"/>
	<rect x="59" y="47" fill="#01A3DB" width="1" height="1"/>
	<rect x="50" y="47" fill="#01A3DB" width="1" height="1"/>
	<rect x="23" y="46" fill="#0B7DB3" width="1" height="1"/>
	<rect x="61" y="45" fill="#143E53" width="1" height="1"/>
	<rect x="60" y="45" fill="#143E53" width="1" height="1"/>
	<rect x="53" y="45" fill="#0B7DB3" width="1" height="1"/>
	<rect x="2" y="45" fill="#0B7DB3" width="1" height="1"/>
	<rect x="62" y="44" fill="#143E53" width="1" height="1"/>
	<rect x="59" y="44" fill="#143E53" width="1" height="1"/>
	<rect x="43" y="44" fill="#0B7DB3" width="1" height="1"/>
	<rect x="19" y="44" fill="#143E53" width="1" height="1"/>
	<rect x="18" y="44" fill="#143E53" width="1" height="1"/>
	<rect x="17" y="44" fill="#143E53" width="1" height="1"/>
	<rect x="13" y="44" fill="#28E9F2" width="1" height="1"/>
	<rect x="62" y="43" fill="#143E53" width="1" height="1"/>
	<rect x="60" y="43" fill="#0B7DB3" width="1" height="1"/>
	<rect x="32" y="43" fill="#28E9F2" width="1" height="1"/>
	<rect x="20" y="43" fill="#143E53" width="1" height="1"/>
	<rect x="17" y="43" fill="#143E53" width="1" height="1"/>
	<rect x="4" y="43" fill="#143E53" width="1" height="1"/>
	<rect x="61" y="42" fill="#143E53" width="1" height="1"/>
	<rect x="36" y="42" fill="#143E53" width="1" height="1"/>
	<rect x="21" y="42" fill="#143E53" width="1" height="1"/>
	<rect x="19" y="42" fill="#0B7DB3" width="1" height="1"/>
	<rect x="17" y="42" fill="#143E53" width="1" height="1"/>
	<rect x="34" y="41" fill="#0B7DB3" width="1" height="1"/>
	<rect x="22" y="41" fill="#143E53" width="1" height="1"/>
	<rect x="20" y="41" fill="#0B7DB3" width="1" height="1"/>
	<rect x="18" y="41" fill="#143E53" width="1" height="1"/>
	<rect x="7" y="41" fill="#01A3DB" width="1" height="1"/>
	<rect x="51" y="40" fill="#143E53" width="1" height="1"/>
	<rect x="28" y="40" fill="#01A3DB" width="1" height="1"/>
	<rect x="22" y="40" fill="#143E53" width="1" height="1"/>
	<rect x="19" y="40" fill="#143E53" width="1" height="1"/>
	<rect x="22" y="39" fill="#143E53" width="1" height="1"/>
	<rect x="21" y="39" fill="#143E53" width="1" height="1"/>
	<rect x="20" y="39" fill="#143E53" width="1" height="1"/>
	<rect x="38" y="38" fill="#143E53" width="1" height="1"/>
	<rect x="25" y="38" fill="#01A3DB" width="1" height="1"/>
	<rect x="62" y="37" fill="#143E53" width="1" height="1"/>
	<rect x="59" y="37" fill="#0B7DB3" width="1" height="1"/>
	<rect x="44" y="37" fill="#28E9F2" width="1" height="1"/>
	<rect x="14" y="37" fill="#0B7DB3" width="1" height="1"/>
	<rect x="38" y="36" fill="#1C8192" width="1" height="1"/>
	<rect x="10" y="36" fill="#143E53" width="1" height="1"/>
	<rect x="9" y="36" fill="#143E53" width="1" height="1"/>
	<rect x="8" y="36" fill="#143E53" width="1" height="1"/>
	<rect x="44" y="35" fill="#143E53" width="1" height="1"/>
	<rect x="42" y="35" fill="#0B7DB3" width="1" height="1"/>
	<rect x="38" y="35" fill="#1EB4C0" width="1" height="1"/>
	<rect x="19" y="35" fill="#0B7DB3" width="1" height="1"/>
	<rect x="10" y="35" fill="#143E53" width="1" height="1"/>
	<rect x="7" y="35" fill="#143E53" width="1" height="1"/>
	<rect x="40" y="34" fill="#138EA8" width="1" height="1"/>
	<rect x="39" y="34" fill="#26C3CE" width="1" height="1"/>
	<rect x="38" y="34" fill="#65E8ED" width="1" height="1"/>
	<rect x="37" y="34" fill="#26C3CE" width="1" height="1"/>
	<rect x="36" y="34" fill="#1C8192" width="1" height="1"/>
	<rect x="35" y="34" fill="#143E53" width="1" height="1"/>
	<rect x="34" y="34" fill="#143E53" width="1" height="1"/>
	<rect x="33" y="34" fill="#143E53" width="1" height="1"/>
	<rect x="10" y="34" fill="#143E53" width="1" height="1"/>
	<rect x="8" y="34" fill="#0B7DB3" width="1" height="1"/>
	<rect x="6" y="34" fill="#143E53" width="1" height="1"/>
	<rect x="3" y="34" fill="#01A3DB" width="1" height="1"/>
	<rect x="38" y="33" fill="#26C3CE" width="1" height="1"/>
	<rect x="37" y="33" fill="#195D5D" width="1" height="1"/>
	<rect x="36" y="33" fill="#143E53" width="1" height="1"/>
	<rect x="33" y="33" fill="#143E53" width="1" height="1"/>
	<rect x="21" y="33" fill="#143E53" width="1" height="1"/>
	<rect x="9" y="33" fill="#143E53" width="1" height="1"/>
	<rect x="7" y="33" fill="#0B7DB3" width="1" height="1"/>
	<rect x="5" y="33" fill="#143E53" width="1" height="1"/>
	<rect x="57" y="32" fill="#0B7DB3" width="1" height="1"/>
	<rect x="48" y="32" fill="#0B7DB3" width="1" height="1"/>
	<rect x="38" y="32" fill="#138EA8" width="1" height="1"/>
	<rect x="37" y="32" fill="#143E53" width="1" height="1"/>
	<rect x="35" y="32" fill="#0B7DB3" width="1" height="1"/>
	<rect x="33" y="32" fill="#143E53" width="1" height="1"/>
	<rect x="8" y="32" fill="#143E53" width="1" height="1"/>
	<rect x="5" y="32" fill="#143E53" width="1" height="1"/>
	<rect x="38" y="31" fill="#196366" width="1" height="1"/>
	<rect x="36" y="31" fill="#0B7DB3" width="1" height="1"/>
	<rect x="34" y="31" fill="#143E53" width="1" height="1"/>
	<rect x="25" y="31" fill="#0B7DB3" width="1" height="1"/>
	<rect x="16" y="31" fill="#0B7DB3" width="1" height="1"/>
	<rect x="11" y="31" fill="#01A3DB" width="1" height="1"/>
	<rect x="7" y="31" fill="#143E53" width="1" height="1"/>
	<rect x="6" y="31" fill="#143E53" width="1" height="1"/>
	<rect x="5" y="31" fill="#143E53" width="1" height="1"/>
	<rect x="53" y="30" fill="#143E53" width="1" height="1"/>
	<rect x="38" y="30" fill="#143E53" width="1" height="1"/>
	<rect x="35" y="30" fill="#143E53" width="1" height="1"/>
	<rect x="38" y="29" fill="#143E53" width="1" height="1"/>
	<rect x="37" y="29" fill="#143E53" width="1" height="1"/>
	<rect x="36" y="29" fill="#143E53" width="1" height="1"/>
	<rect x="33" y="29" fill="#01A3DB" width="1" height="1"/>
	<rect x="51" y="28" fill="#0B7DB3" width="1" height="1"/>
	<rect x="14" y="27" fill="#143E53" width="1" height="1"/>
	<rect x="1" y="27" fill="#0B7DB3" width="1" height="1"/>
	<rect x="46" y="26" fill="#0B7DB3" width="1" height="1"/>
	<rect x="30" y="26" fill="#143E53" width="1" height="1"/>
	<rect x="27" y="26" fill="#0B7DB3" width="1" height="1"/>
	<rect x="7" y="26" fill="#138EA8" width="1" height="1"/>
	<rect x="57" y="25" fill="#01A3DB" width="1" height="1"/>
	<rect x="41" y="25" fill="#28E9F2" width="1" height="1"/>
	<rect x="7" y="25" fill="#26C3CE" width="1" height="1"/>
	<rect x="54" y="24" fill="#143E53" width="1" height="1"/>
	<rect x="53" y="24" fill="#143E53" width="1" height="1"/>
	<rect x="52" y="24" fill="#143E53" width="1" height="1"/>
	<rect x="36" y="24" fill="#0B7DB3" width="1" height="1"/>
	<rect x="12" y="24" fill="#143E53" width="1" height="1"/>
	<rect x="9" y="24" fill="#1C8192" width="1" height="1"/>
	<rect x="8" y="24" fill="#26C3CE" width="1" height="1"/>
	<rect x="7" y="24" fill="#65E8ED" width="1" height="1"/>
	<rect x="6" y="24" fill="#26BECC" width="1" height="1"/>
	<rect x="5" y="24" fill="#138EA8" width="1" height="1"/>
	<rect x="60" y="23" fill="#01A3DB" width="1" height="1"/>
	<rect x="54" y="23" fill="#143E53" width="1" height="1"/>
	<rect x="51" y="23" fill="#143E53" width="1" height="1"/>
	<rect x="19" y="23" fill="#143E53" width="1" height="1"/>
	<rect x="13" y="23" fill="#143E53" width="1" height="1"/>
	<rect x="7" y="23" fill="#26C3CE" width="1" height="1"/>
	<rect x="54" y="22" fill="#143E53" width="1" height="1"/>
	<rect x="52" y="22" fill="#0B7DB3" width="1" height="1"/>
	<rect x="50" y="22" fill="#143E53" width="1" height="1"/>
	<rect x="38" y="22" fill="#01A3DB" width="1" height="1"/>
	<rect x="11" y="22" fill="#0B7DB3" width="1" height="1"/>
	<rect x="7" y="22" fill="#1C8192" width="1" height="1"/>
	<rect x="53" y="21" fill="#143E53" width="1" height="1"/>
	<rect x="51" y="21" fill="#0B7DB3" width="1" height="1"/>
	<rect x="49" y="21" fill="#143E53" width="1" height="1"/>
	<rect x="29" y="21" fill="#143E53" width="1" height="1"/>
	<rect x="28" y="21" fill="#143E53" width="1" height="1"/>
	<rect x="27" y="21" fill="#143E53" width="1" height="1"/>
	<rect x="52" y="20" fill="#143E53" width="1" height="1"/>
	<rect x="49" y="20" fill="#143E53" width="1" height="1"/>
	<rect x="30" y="20" fill="#143E53" width="1" height="1"/>
	<rect x="27" y="20" fill="#143E53" width="1" height="1"/>
	<rect x="51" y="19" fill="#143E53" width="1" height="1"/>
	<rect x="50" y="19" fill="#143E53" width="1" height="1"/>
	<rect x="49" y="19" fill="#143E53" width="1" height="1"/>
	<rect x="31" y="19" fill="#143E53" width="1" height="1"/>
	<rect x="29" y="19" fill="#0B7DB3" width="1" height="1"/>
	<rect x="27" y="19" fill="#143E53" width="1" height="1"/>
	<rect x="4" y="19" fill="#0B7DB3" width="1" height="1"/>
	<rect x="44" y="18" fill="#0B7DB3" width="1" height="1"/>
	<rect x="32" y="18" fill="#143E53" width="1" height="1"/>
	<rect x="30" y="18" fill="#0B7DB3" width="1" height="1"/>
	<rect x="28" y="18" fill="#143E53" width="1" height="1"/>
	<rect x="21" y="18" fill="#0B7DB3" width="1" height="1"/>
	<rect x="55" y="17" fill="#0B7DB3" width="1" height="1"/>
	<rect x="32" y="17" fill="#143E53" width="1" height="1"/>
	<rect x="29" y="17" fill="#143E53" width="1" height="1"/>
	<rect x="32" y="16" fill="#143E53" width="1" height="1"/>
	<rect x="31" y="16" fill="#143E53" width="1" height="1"/>
	<rect x="30" y="16" fill="#143E53" width="1" height="1"/>
	<rect x="27" y="16" fill="#01A3DB" width="1" height="1"/>
	<rect x="18" y="16" fill="#01A3DB" width="1" height="1"/>
	<rect x="3" y="16" fill="#143E53" width="1" height="1"/>
	<rect x="61" y="15" fill="#01A3DB" width="1" height="1"/>
	<rect x="52" y="15" fill="#01A3DB" width="1" height="1"/>
	<rect x="49" y="15" fill="#143E53" width="1" height="1"/>
	<rect x="21" y="15" fill="#143E53" width="1" height="1"/>
	<rect x="10" y="15" fill="#28E9F2" width="1" height="1"/>
	<rect x="41" y="14" fill="#0594CC" width="1" height="1"/>
	<rect x="40" y="14" fill="#01A3DB" width="1" height="1"/>
	<rect x="39" y="14" fill="#01A3DB" width="1" height="1"/>
	<rect x="38" y="14" fill="#0B7DB3" width="1" height="1"/>
	<rect x="14" y="14" fill="#143E53" width="1" height="1"/>
	<rect x="13" y="14" fill="#143E53" width="1" height="1"/>
	<rect x="12" y="14" fill="#143E53" width="1" height="1"/>
	<rect x="1" y="14" fill="#0B7DB3" width="1" height="1"/>
	<rect x="58" y="13" fill="#0B7DB3" width="1" height="1"/>
	<rect x="42" y="13" fill="#0594CC" width="1" height="1"/>
	<rect x="39" y="13" fill="#01A3DB" width="1" height="1"/>
	<rect x="38" y="13" fill="#0AB3E0" width="1" height="1"/>
	<rect x="24" y="13" fill="#0B7DB3" width="1" height="1"/>
	<rect x="14" y="13" fill="#143E53" width="1" height="1"/>
	<rect x="11" y="13" fill="#143E53" width="1" height="1"/>
	<rect x="43" y="12" fill="#0B7DB3" width="1" height="1"/>
	<rect x="39" y="12" fill="#01A3DB" width="1" height="1"/>
	<rect x="38" y="12" fill="#1CD4EB" width="1" height="1"/>
	<rect x="14" y="12" fill="#143E53" width="1" height="1"/>
	<rect x="12" y="12" fill="#147390" width="1" height="1"/>
	<rect x="11" y="12" fill="#185360" width="1" height="1"/>
	<rect x="10" y="12" fill="#143E53" width="1" height="1"/>
	<rect x="40" y="11" fill="#1CD4EB" width="1" height="1"/>
	<rect x="39" y="11" fill="#28E9F2" width="1" height="1"/>
	<rect x="38" y="11" fill="#01A3DB" width="1" height="1"/>
	<rect x="29" y="11" fill="#01A3DB" width="1" height="1"/>
	<rect x="13" y="11" fill="#143E53" width="1" height="1"/>
	<rect x="12" y="11" fill="#185360" width="1" height="1"/>
	<rect x="11" y="11" fill="#1B9DB6" width="1" height="1"/>
	<rect x="9" y="11" fill="#143E53" width="1" height="1"/>
	<rect x="41" y="10" fill="#01A3DB" width="1" height="1"/>
	<rect x="40" y="10" fill="#28E9F2" width="1" height="1"/>
	<rect x="39" y="10" fill="#1CD4EB" width="1" height="1"/>
	<rect x="12" y="10" fill="#143E53" width="1" height="1"/>
	<rect x="9" y="10" fill="#143E53" width="1" height="1"/>
	<rect x="42" y="9" fill="#01A3DB" width="1" height="1"/>
	<rect x="41" y="9" fill="#1CD4EB" width="1" height="1"/>
	<rect x="40" y="9" fill="#01A3DB" width="1" height="1"/>
	<rect x="11" y="9" fill="#143E53" width="1" height="1"/>
	<rect x="10" y="9" fill="#143E53" width="1" height="1"/>
	<rect x="9" y="9" fill="#143E53" width="1" height="1"/>
	<rect x="4" y="9" fill="#28E9F2" width="1" height="1"/>
	<rect x="60" y="8" fill="#143E53" width="1" height="1"/>
	<rect x="42" y="8" fill="#0AB3E0" width="1" height="1"/>
	<rect x="41" y="8" fill="#01A3DB" width="1" height="1"/>
	<rect x="37" y="8" fill="#0B7DB3" width="1" height="1"/>
	<rect x="31" y="8" fill="#143E53" width="1" height="1"/>
	<rect x="25" y="8" fill="#01A3DB" width="1" height="1"/>
	<rect x="42" y="7" fill="#0AB3E0" width="1" height="1"/>
	<rect x="41" y="7" fill="#01A3DB" width="1" height="1"/>
	<rect x="38" y="7" fill="#0594CC" width="1" height="1"/>
	<rect x="22" y="7" fill="#143E53" width="1" height="1"/>
	<rect x="42" y="6" fill="#0B7DB3" width="1" height="1"/>
	<rect x="41" y="6" fill="#01A3DB" width="1" height="1"/>
	<rect x="40" y="6" fill="#01A3DB" width="1" height="1"/>
	<rect x="39" y="6" fill="#0594CC" width="1" height="1"/>
	<rect x="5" y="6" fill="#0B7DB3" width="1" height="1"/>
	<rect x="52" y="5" fill="#0B7DB3" width="1" height="1"/>
	<rect x="49" y="5" fill="#143E53" width="1" height="1"/>
	<g>
		<rect x="38" y="15" fill="#0A6D92" width="4" height="1"/>
		<rect x="42" y="14" fill="#0A6D92" width="1" height="1"/>
		<rect x="43" y="13" fill="#0A6D92" width="1" height="1"/>
		<polygon fill="#0A6D92" points="41,13 41,12 40,12 40,14 42,14 42,13 		"/>
		<rect x="37" y="12" fill="#0A6D92" width="1" height="3"/>
		<rect x="42" y="12" fill="#0A6D92" width="1" height="1"/>
		<polygon fill="#0A6D92" points="43,11 43,12 44,12 44,13 45,13 45,11 		"/>
		<rect x="41" y="11" fill="#0A6D92" width="1" height="1"/>
		<rect x="42" y="10" fill="#0A6D92" width="1" height="1"/>
		<rect x="38" y="10" fill="#0A6D92" width="1" height="1"/>
		<rect x="39" y="9" fill="#0A6D92" width="1" height="1"/>
		<polygon fill="#0A6D92" points="38,10 38,9 37,9 37,8 36,8 36,10 		"/>
		<rect x="38" y="8" fill="#0A6D92" width="1" height="1"/>
		<rect x="43" y="6" fill="#0A6D92" width="1" height="3"/>
		<polygon fill="#0A6D92" points="40,8 40,9 41,9 41,7 39,7 39,8 		"/>
		<rect x="37" y="7" fill="#0A6D92" width="1" height="1"/>
		<rect x="38" y="6" fill="#0A6D92" width="1" height="1"/>
		<rect x="39" y="5" fill="#0A6D92" width="4" height="1"/>
	</g>
	<rect x="13" y="5" fill="#01A3DB" width="1" height="1"/>
	<rect x="33" y="4" fill="#28E9F2" width="1" height="1"/>
	<rect x="16" y="4" fill="#226663" width="1" height="1"/>
	<rect x="3" y="4" fill="#143E53" width="1" height="1"/>
	<rect x="21" y="3" fill="#143E53" width="1" height="1"/>
	<rect x="17" y="3" fill="#226663" width="1" height="1"/>
	<rect x="16" y="3" fill="#65E8ED" width="1" height="1"/>
	<rect x="15" y="3" fill="#226663" width="1" height="1"/>
	<g>
		<rect x="50" y="60" fill="#1A5755" width="1" height="1"/>
		<rect x="46" y="60" fill="#1A5755" width="1" height="1"/>
		<rect x="40" y="59" fill="#1A5755" width="1" height="1"/>
		<rect x="48" y="58" fill="#1A5755" width="1" height="1"/>
		<rect x="41" y="57" fill="#1A5755" width="1" height="1"/>
		<rect x="39" y="57" fill="#1A5755" width="1" height="1"/>
		<rect x="43" y="56" fill="#1A5755" width="1" height="1"/>
		<rect x="37" y="56" fill="#1A5755" width="1" height="1"/>
		<rect x="41" y="55" fill="#1A5755" width="1" height="1"/>
		<rect x="39" y="55" fill="#1A5755" width="1" height="1"/>
		<rect x="40" y="53" fill="#1A5755" width="1" height="1"/>
		<rect x="38" y="37" fill="#1A5755" width="1" height="1"/>
		<rect x="39" y="35" fill="#1A5755" width="1" height="1"/>
		<rect x="37" y="35" fill="#1A5755" width="1" height="1"/>
		<rect x="39" y="33" fill="#1A5755" width="1" height="1"/>
		<rect x="10" y="27" fill="#1A5755" width="1" height="1"/>
		<rect x="7" y="27" fill="#1A5755" width="1" height="2"/>
		<rect x="9" y="26" fill="#1A5755" width="1" height="1"/>
		<rect x="8" y="25" fill="#1A5755" width="1" height="1"/>
		<rect x="6" y="25" fill="#1A5755" width="1" height="1"/>
		<rect x="10" y="24" fill="#1A5755" width="1" height="1"/>
		<rect x="4" y="24" fill="#1A5755" width="1" height="1"/>
		<rect x="8" y="23" fill="#1A5755" width="1" height="1"/>
		<rect x="6" y="23" fill="#1A5755" width="1" height="1"/>
		<rect x="5" y="22" fill="#1A5755" width="1" height="1"/>
		<rect x="7" y="20" fill="#1A5755" width="1" height="2"/>
		<rect x="4" y="21" fill="#1A5755" width="1" height="1"/>
		<rect x="16" y="5" fill="#1A5755" width="1" height="1"/>
		<rect x="18" y="3" fill="#1A5755" width="1" height="1"/>
		<rect x="14" y="3" fill="#1A5755" width="1" height="1"/>
	</g>
	<rect x="11" y="3" fill="#0B7DB3" width="1" height="1"/>
	<rect x="35" y="2" fill="#0B7DB3" width="1" height="1"/>
	<rect x="21" y="2" fill="#143E53" width="1" height="1"/>
	<rect x="20" y="2" fill="#143E53" width="1" height="1"/>
	<rect x="16" y="2" fill="#226663" width="1" height="1"/>
	<rect x="44" y="1" fill="#01A3DB" width="1" height="1"/>
	<g>
		<rect x="52" y="60" fill="#114E6D" width="1" height="1"/>
		<rect x="60" y="58" fill="#114E6D" width="1" height="1"/>
		<rect x="50" y="58" fill="#114E6D" width="1" height="1"/>
		<rect x="28" y="58" fill="#114E6D" width="1" height="1"/>
		<rect x="4" y="55" fill="#114E6D" width="1" height="1"/>
		<rect x="30" y="53" fill="#114E6D" width="1" height="1"/>
		<polygon fill="#114E6D" points="19,52 18,52 18,53 20,53 20,51 19,51 		"/>
		<rect x="17" y="51" fill="#114E6D" width="1" height="1"/>
		<rect x="18" y="50" fill="#114E6D" width="1" height="1"/>
		<polygon fill="#114E6D" points="18,50 18,49 16,49 16,51 17,51 17,50 		"/>
		<rect x="34" y="47" fill="#114E6D" width="1" height="1"/>
		<rect x="9" y="46" fill="#114E6D" width="1" height="1"/>
		<polygon fill="#114E6D" points="61,44 60,44 60,45 62,45 62,43 61,43 		"/>
		<rect x="29" y="43" fill="#114E6D" width="1" height="1"/>
		<polygon fill="#114E6D" points="61,43 61,42 59,42 59,44 60,44 60,43 		"/>
		<rect x="49" y="42" fill="#114E6D" width="1" height="1"/>
		<rect x="20" y="42" fill="#114E6D" width="1" height="1"/>
		<polygon fill="#114E6D" points="19,42 18,42 18,44 20,44 20,43 19,43 		"/>
		<rect x="11" y="42" fill="#114E6D" width="1" height="1"/>
		<rect x="19" y="41" fill="#114E6D" width="1" height="1"/>
		<polygon fill="#114E6D" points="20,40 20,41 21,41 21,42 22,42 22,40 		"/>
		<rect x="41" y="39" fill="#114E6D" width="1" height="1"/>
		<rect x="2" y="38" fill="#114E6D" width="1" height="1"/>
		<rect x="51" y="37" fill="#114E6D" width="1" height="1"/>
		<rect x="27" y="34" fill="#114E6D" width="1" height="1"/>
		<polygon fill="#114E6D" points="9,35 8,35 8,36 10,36 10,34 9,34 		"/>
		<rect x="7" y="34" fill="#114E6D" width="1" height="1"/>
		<rect x="8" y="33" fill="#114E6D" width="1" height="1"/>
		<rect x="47" y="32" fill="#114E6D" width="1" height="1"/>
		<rect x="36" y="32" fill="#114E6D" width="1" height="1"/>
		<polygon fill="#114E6D" points="35,32 34,32 34,34 36,34 36,33 35,33 		"/>
		<polygon fill="#114E6D" points="8,33 8,32 6,32 6,34 7,34 7,33 		"/>
		<rect x="35" y="31" fill="#114E6D" width="1" height="1"/>
		<polygon fill="#114E6D" points="36,30 36,31 37,31 37,32 38,32 38,30 		"/>
		<rect x="59" y="29" fill="#114E6D" width="1" height="1"/>
		<rect x="19" y="26" fill="#114E6D" width="1" height="1"/>
		<rect x="43" y="23" fill="#114E6D" width="1" height="1"/>
		<polygon fill="#114E6D" points="53,23 52,23 52,24 54,24 54,22 53,22 		"/>
		<rect x="51" y="22" fill="#114E6D" width="1" height="1"/>
		<rect x="52" y="21" fill="#114E6D" width="1" height="1"/>
		<rect x="17" y="21" fill="#114E6D" width="1" height="1"/>
		<rect x="61" y="20" fill="#114E6D" width="1" height="1"/>
		<polygon fill="#114E6D" points="52,21 52,20 50,20 50,22 51,22 51,21 		"/>
		<rect x="30" y="19" fill="#114E6D" width="1" height="1"/>
		<polygon fill="#114E6D" points="29,19 28,19 28,21 30,21 30,20 29,20 		"/>
		<rect x="29" y="18" fill="#114E6D" width="1" height="1"/>
		<polygon fill="#114E6D" points="30,17 30,18 31,18 31,19 32,19 32,17 		"/>
		<rect x="38" y="16" fill="#114E6D" width="4" height="1"/>
		<rect x="42" y="15" fill="#114E6D" width="1" height="1"/>
		<rect x="37" y="15" fill="#114E6D" width="1" height="1"/>
		<rect x="43" y="14" fill="#114E6D" width="1" height="1"/>
		<rect x="50" y="13" fill="#114E6D" width="1" height="1"/>
		<rect x="44" y="13" fill="#114E6D" width="1" height="1"/>
		<rect x="36" y="12" fill="#114E6D" width="1" height="3"/>
		<rect x="41" y="12" fill="#114E6D" width="1" height="1"/>
		<polygon fill="#114E6D" points="13,13 12,13 12,14 14,14 14,12 13,12 		"/>
		<rect x="45" y="11" fill="#114E6D" width="1" height="2"/>
		<rect x="42" y="11" fill="#114E6D" width="1" height="1"/>
		<polygon fill="#114E6D" points="38,10 36,10 36,11 37,11 37,12 38,12 		"/>
		<polygon fill="#114E6D" points="11,11 12,11 12,10 10,10 10,12 11,12 		"/>
		<rect x="62" y="10" fill="#114E6D" width="1" height="1"/>
		<polygon fill="#114E6D" points="43,11 45,11 45,10 44,10 44,9 43,9 		"/>
		<rect x="38" y="9" fill="#114E6D" width="1" height="1"/>
		<rect x="39" y="8" fill="#114E6D" width="1" height="1"/>
		<rect x="35" y="8" fill="#114E6D" width="1" height="2"/>
		<rect x="44" y="6" fill="#114E6D" width="1" height="3"/>
		<rect x="36" y="7" fill="#114E6D" width="1" height="1"/>
		<rect x="37" y="6" fill="#114E6D" width="1" height="1"/>
		<rect x="60" y="5" fill="#114E6D" width="1" height="1"/>
		<rect x="43" y="5" fill="#114E6D" width="1" height="1"/>
		<rect x="38" y="5" fill="#114E6D" width="1" height="1"/>
		<rect x="28" y="5" fill="#114E6D" width="1" height="1"/>
		<rect x="18" y="5" fill="#114E6D" width="1" height="1"/>
		<rect x="39" y="4" fill="#114E6D" width="4" height="1"/>
		<rect x="20" y="3" fill="#114E6D" width="1" height="1"/>
		<rect x="41" y="1" fill="#114E6D" width="1" height="1"/>
	</g>
	<rect x="25" y="1" fill="#0B7DB3" width="1" height="1"/>
	<g>
		<rect x="52" y="62" fill="#153646" width="2" height="1"/>
		<rect x="40" y="62" fill="#153646" width="1" height="1"/>
		<rect x="62" y="60" fill="#153646" width="2" height="2"/>
		<rect x="54" y="60" fill="#153646" width="1" height="2"/>
		<rect x="51" y="60" fill="#153646" width="1" height="2"/>
		<rect x="52" y="59" fill="#153646" width="2" height="1"/>
		<polygon fill="#153646" points="19,58 18,58 18,59 17,59 17,60 18,60 18,61 20,61 20,59 19,59 		"/>
		<polygon fill="#153646" points="18,58 18,57 16,57 16,59 17,59 17,58 		"/>
		<polygon fill="#153646" points="36,57 35,57 35,58 37,58 37,56 36,56 		"/>
		<rect x="34" y="56" fill="#153646" width="1" height="1"/>
		<rect x="35" y="55" fill="#153646" width="1" height="1"/>
		<polygon fill="#153646" points="29,56 28,56 28,57 30,57 30,55 29,55 		"/>
		<polygon fill="#153646" points="35,55 35,54 33,54 33,56 34,56 34,55 		"/>
		<polygon fill="#153646" points="29,55 29,54 27,54 27,56 28,56 28,55 		"/>
		<rect x="18" y="54" fill="#153646" width="3" height="1"/>
		<rect x="17" y="53" fill="#153646" width="1" height="1"/>
		<rect x="16" y="52" fill="#153646" width="1" height="1"/>
		<rect x="21" y="51" fill="#153646" width="1" height="3"/>
		<rect x="15" y="51" fill="#153646" width="1" height="1"/>
		<rect x="20" y="50" fill="#153646" width="1" height="1"/>
		<rect x="19" y="49" fill="#153646" width="1" height="1"/>
		<rect x="14" y="48" fill="#153646" width="1" height="3"/>
		<rect x="18" y="48" fill="#153646" width="1" height="1"/>
		<polygon fill="#153646" points="28,47 28,46 29,46 29,44 27,44 27,45 26,45 26,47 		"/>
		<rect x="62" y="45" fill="#153646" width="1" height="1"/>
		<rect x="59" y="45" fill="#153646" width="1" height="1"/>
		<rect x="17" y="45" fill="#153646" width="3" height="1"/>
		<rect x="20" y="44" fill="#153646" width="1" height="1"/>
		<rect x="21" y="43" fill="#153646" width="1" height="1"/>
		<rect x="16" y="42" fill="#153646" width="1" height="3"/>
		<rect x="62" y="42" fill="#153646" width="1" height="1"/>
		<rect x="58" y="42" fill="#153646" width="1" height="3"/>
		<rect x="22" y="42" fill="#153646" width="1" height="1"/>
		<rect x="59" y="41" fill="#153646" width="3" height="1"/>
		<polygon fill="#153646" points="51,41 51,42 53,42 53,40 52,40 52,41 		"/>
		<rect x="17" y="41" fill="#153646" width="1" height="1"/>
		<rect x="18" y="40" fill="#153646" width="1" height="1"/>
		<polygon fill="#153646" points="50,39 50,41 51,41 51,40 52,40 52,39 		"/>
		<rect x="23" y="39" fill="#153646" width="1" height="3"/>
		<rect x="19" y="39" fill="#153646" width="1" height="1"/>
		<polygon fill="#153646" points="38,38 37,38 37,40 39,40 39,39 38,39 		"/>
		<rect x="20" y="38" fill="#153646" width="3" height="1"/>
		<polygon fill="#153646" points="63,37 63,38 62,38 62,39 64,39 64,37 		"/>
		<rect x="8" y="37" fill="#153646" width="3" height="1"/>
		<polygon fill="#153646" points="63,37 63,36 62,36 62,35 60,35 60,37 61,37 61,38 62,38 62,37 		"/>
		<rect x="7" y="36" fill="#153646" width="1" height="1"/>
		<rect x="33" y="35" fill="#153646" width="3" height="1"/>
		<rect x="6" y="35" fill="#153646" width="1" height="1"/>
		<rect x="11" y="34" fill="#153646" width="1" height="3"/>
		<rect x="5" y="34" fill="#153646" width="1" height="1"/>
		<polygon fill="#153646" points="23,34 23,32 21,32 21,33 22,33 22,34 		"/>
		<rect x="10" y="33" fill="#153646" width="1" height="1"/>
		<rect x="32" y="32" fill="#153646" width="1" height="3"/>
		<rect x="9" y="32" fill="#153646" width="1" height="1"/>
		<rect x="4" y="31" fill="#153646" width="1" height="3"/>
		<rect x="33" y="31" fill="#153646" width="1" height="1"/>
		<rect x="8" y="31" fill="#153646" width="1" height="1"/>
		<polygon fill="#153646" points="54,31 53,31 53,32 55,32 55,30 54,30 		"/>
		<rect x="39" y="29" fill="#153646" width="1" height="3"/>
		<rect x="34" y="30" fill="#153646" width="1" height="1"/>
		<rect x="5" y="30" fill="#153646" width="3" height="1"/>
		<rect x="35" y="29" fill="#153646" width="1" height="1"/>
		<rect x="36" y="28" fill="#153646" width="3" height="1"/>
		<polygon fill="#153646" points="32,25 30,25 30,26 31,26 31,27 32,27 		"/>
		<polygon fill="#153646" points="30,26 29,26 29,27 28,27 28,29 30,29 30,28 31,28 31,27 30,27 		"/>
		<rect x="52" y="25" fill="#153646" width="3" height="1"/>
		<rect x="51" y="24" fill="#153646" width="1" height="1"/>
		<polygon fill="#153646" points="20,25 20,24 19,24 19,23 18,23 18,25 		"/>
		<rect x="13" y="24" fill="#153646" width="1" height="1"/>
		<polygon fill="#153646" points="12,24 11,24 11,26 13,26 13,25 12,25 		"/>
		<rect x="50" y="23" fill="#153646" width="1" height="1"/>
		<polygon fill="#153646" points="20,24 21,24 21,22 19,22 19,23 20,23 		"/>
		<polygon fill="#153646" points="14,24 15,24 15,22 13,22 13,23 14,23 		"/>
		<rect x="12" y="23" fill="#153646" width="1" height="1"/>
		<rect x="55" y="22" fill="#153646" width="1" height="3"/>
		<rect x="49" y="22" fill="#153646" width="1" height="1"/>
		<rect x="27" y="22" fill="#153646" width="3" height="1"/>
		<rect x="54" y="21" fill="#153646" width="1" height="1"/>
		<rect x="30" y="21" fill="#153646" width="1" height="1"/>
		<rect x="26" y="19" fill="#153646" width="1" height="3"/>
		<rect x="53" y="20" fill="#153646" width="1" height="1"/>
		<rect x="48" y="19" fill="#153646" width="1" height="3"/>
		<rect x="31" y="20" fill="#153646" width="1" height="1"/>
		<polygon fill="#153646" points="59,20 61,20 61,18 60,18 60,17 58,17 58,19 59,19 		"/>
		<rect x="52" y="19" fill="#153646" width="1" height="1"/>
		<rect x="32" y="19" fill="#153646" width="1" height="1"/>
		<rect x="49" y="18" fill="#153646" width="3" height="1"/>
		<rect x="27" y="18" fill="#153646" width="1" height="1"/>
		<rect x="38" y="17" fill="#153646" width="4" height="1"/>
		<rect x="33" y="16" fill="#153646" width="1" height="3"/>
		<rect x="28" y="17" fill="#153646" width="1" height="1"/>
		<rect x="42" y="16" fill="#153646" width="1" height="1"/>
		<rect x="37" y="16" fill="#153646" width="1" height="1"/>
		<rect x="29" y="16" fill="#153646" width="1" height="1"/>
		<rect x="43" y="15" fill="#153646" width="1" height="1"/>
		<rect x="36" y="15" fill="#153646" width="1" height="1"/>
		<rect x="30" y="15" fill="#153646" width="3" height="1"/>
		<rect x="12" y="15" fill="#153646" width="3" height="1"/>
		<rect x="44" y="14" fill="#153646" width="1" height="1"/>
		<rect x="11" y="14" fill="#153646" width="1" height="1"/>
		<rect x="4" y="13" fill="#153646" width="2" height="2"/>
		<rect x="45" y="13" fill="#153646" width="1" height="1"/>
		<rect x="15" y="12" fill="#153646" width="1" height="3"/>
		<rect x="10" y="13" fill="#153646" width="1" height="1"/>
		<rect x="35" y="12" fill="#153646" width="1" height="3"/>
		<rect x="9" y="12" fill="#153646" width="1" height="1"/>
		<rect x="36" y="11" fill="#153646" width="1" height="1"/>
		<rect x="14" y="11" fill="#153646" width="1" height="1"/>
		<rect x="8" y="9" fill="#153646" width="1" height="3"/>
		<rect x="45" y="10" fill="#153646" width="1" height="1"/>
		<rect x="35" y="10" fill="#153646" width="1" height="1"/>
		<rect x="13" y="10" fill="#153646" width="1" height="1"/>
		<polygon fill="#153646" points="61,10 61,9 60,9 60,8 59,8 59,10 		"/>
		<rect x="50" y="9" fill="#153646" width="1" height="1"/>
		<rect x="44" y="9" fill="#153646" width="1" height="1"/>
		<rect x="12" y="9" fill="#153646" width="1" height="1"/>
		<polygon fill="#153646" points="61,9 62,9 62,7 60,7 60,8 61,8 		"/>
		<rect x="34" y="8" fill="#153646" width="1" height="2"/>
		<rect x="9" y="8" fill="#153646" width="3" height="1"/>
		<rect x="35" y="7" fill="#153646" width="1" height="1"/>
		<polygon fill="#153646" points="50,7 50,6 49,6 49,5 48,5 48,7 		"/>
		<rect x="45" y="6" fill="#153646" width="1" height="3"/>
		<rect x="36" y="6" fill="#153646" width="1" height="1"/>
		<polygon fill="#153646" points="50,6 51,6 51,4 49,4 49,5 50,5 		"/>
		<rect x="44" y="5" fill="#153646" width="1" height="1"/>
		<rect x="37" y="5" fill="#153646" width="1" height="1"/>
		<rect x="43" y="4" fill="#153646" width="1" height="1"/>
		<rect x="38" y="4" fill="#153646" width="1" height="1"/>
		<rect x="20" y="4" fill="#153646" width="2" height="1"/>
		<rect x="39" y="3" fill="#153646" width="4" height="1"/>
		<rect x="30" y="2" fill="#153646" width="2" height="2"/>
		<rect x="22" y="2" fill="#153646" width="1" height="2"/>
		<rect x="19" y="2" fill="#153646" width="1" height="2"/>
		<rect x="20" y="1" fill="#153646" width="2" height="1"/>
	</g>
	<rect x="16" y="1" fill="#1A5250" width="1" height="1"/>
	<rect x="13" y="1" fill="#143E53" width="1" height="1"/>
	<rect x="3" y="1" fill="#01A3DB" width="1" height="1"/>
	<rect x="63" fill="#0B7DB3" width="1" height="1"/>
	<rect x="54" fill="#0B7DB3" width="1" height="1"/>
	<g>
		<polygon fill="#172634" points="49,63 48,63 48,64 50,64 50,62 49,62 		"/>
		<polygon fill="#172634" points="9,62 9,63 11,63 11,61 10,61 10,62 		"/>
		<polygon fill="#172634" points="60,61 60,62 59,62 59,64 61,64 61,63 62,63 62,61 		"/>
		<rect x="23" y="61" fill="#172634" width="2" height="2"/>
		<polygon fill="#172634" points="45,60 43,60 43,62 44,62 44,63 46,63 46,61 45,61 		"/>
		<polygon fill="#172634" points="34,60 32,60 32,62 33,62 33,63 35,63 35,61 34,61 		"/>
		<polygon fill="#172634" points="4,60 4,61 3,61 3,63 5,63 5,62 6,62 6,60 		"/>
		<rect y="60" fill="#172634" width="2" height="2"/>
		<rect x="36" y="59" fill="#172634" width="2" height="2"/>
		<polygon fill="#172634" points="28,59 27,59 27,58 25,58 25,60 26,60 26,61 27,61 27,62 29,62 29,60 28,60 		"/>
		<polygon fill="#172634" points="24,60 24,58 22,58 22,59 21,59 21,60 20,60 20,62 22,62 22,61 23,61 23,60 		"/>
		<polygon fill="#172634" points="7,59 7,61 8,61 8,62 9,62 9,61 10,61 10,60 9,60 9,59 		"/>
		<polygon fill="#172634" points="33,59 33,58 34,58 34,56 32,56 32,57 31,57 31,59 		"/>
		<polygon fill="#172634" points="57,57 57,58 56,58 56,60 58,60 58,59 59,59 59,57 		"/>
		<polygon fill="#172634" points="63,56 62,56 62,54 60,54 60,55 59,55 59,57 61,57 61,58 62,58 62,59 64,59 64,57 63,57 		"/>
		<polygon fill="#172634" points="27,57 27,55 26,55 26,54 24,54 24,56 25,56 25,57 		"/>
		<rect x="21" y="55" fill="#172634" width="2" height="2"/>
		<polygon fill="#172634" points="10,56 9,56 9,55 7,55 7,57 8,57 8,58 9,58 9,59 11,59 11,57 10,57 		"/>
		<polygon fill="#172634" points="5,56 3,56 3,58 4,58 4,59 6,59 6,57 5,57 		"/>
		<polygon fill="#172634" points="0,56 0,59 1,59 1,58 2,58 2,56 		"/>
		<polygon fill="#172634" points="15,55 15,56 14,56 14,57 13,57 13,59 15,59 15,58 16,58 16,57 17,57 17,55 		"/>
		<polygon fill="#172634" points="44,55 44,53 43,53 43,52 41,52 41,54 42,54 42,55 		"/>
		<polygon fill="#172634" points="3,54 4,54 4,52 2,52 2,53 1,53 1,55 3,55 		"/>
		<polygon fill="#172634" points="60,54 60,52 58,52 58,53 57,53 57,52 55,52 55,54 57,54 57,55 59,55 59,54 		"/>
		<path fill="#172634" d="M52,51v-1h-2v-1h-2v-1h-2v1h-1v2h2v1h-1v2h-1v2h2v1h2v-1h3v1h-1v2h2v-1h1v-3h-1v-2h1v-2H52z M51,53h-1v-1
			h1V53z M48,55v-1h1v1H48z"/>
		<rect x="63" y="50" fill="#172634" width="1" height="2"/>
		<polygon fill="#172634" points="60,51 60,50 62,50 62,48 60,48 60,49 58,49 58,51 		"/>
		<path fill="#172634" d="M41,48h-1v-1h3v1h2v-1h1v-2h1v-2h-1v-1h2v-2h-1v-1h-2v2h-1v-1h-2v1h-1v3h-1v-1h-2v3h-1v-1h-1v-1h-1v-1h-2
			v2h-1v-1h-2v2h1v3h-1v1h-1v1h-1v2h2v-1h1v-1h2v1h2v-1h1v-1h1v-1h2v1h-1v2h2v-1h1V48z M43,44v-1h1v1h1v1h-1v1h-1v-1h-1v-1H43z
			 M36,48h-1v1h-1v-1h-1v-1h1v-1h1v1h1V48z"/>
		<polygon fill="#172634" points="23,52 24,52 24,53 26,53 26,51 25,51 25,50 23,50 		"/>
		<polygon fill="#172634" points="1,51 3,51 3,49 2,49 2,48 0,48 0,50 1,50 		"/>
		<polygon fill="#172634" points="56,50 56,49 57,49 57,47 55,47 55,48 54,48 54,50 		"/>
		<rect x="23" y="48" fill="#172634" width="2" height="1"/>
		<rect x="20" y="46" fill="#172634" width="2" height="2"/>
		<polygon fill="#172634" points="57,46 57,44 56,44 56,43 54,43 54,45 55,45 55,46 		"/>
		<polygon fill="#172634" points="48,47 50,47 50,46 51,46 51,45 52,45 52,43 50,43 50,44 49,44 49,45 48,45 		"/>
		<polygon fill="#172634" points="25,45 25,44 26,44 26,42 24,42 24,43 23,43 23,45 		"/>
		<polygon fill="#172634" points="54,42 56,42 56,40 55,40 55,39 53,39 53,41 54,41 		"/>
		<rect x="30" y="41" fill="#172634" width="1" height="1"/>
		<rect x="57" y="39" fill="#172634" width="2" height="2"/>
		<rect x="26" y="40" fill="#172634" width="1" height="1"/>
		<rect x="63" y="39" fill="#172634" width="1" height="2"/>
		<polygon fill="#172634" points="36,40 36,39 37,39 37,37 35,37 35,38 34,38 34,40 		"/>
		<polygon fill="#172634" points="33,40 33,38 32,38 32,37 31,37 31,36 29,36 29,38 30,38 30,39 31,39 31,40 		"/>
		<rect x="48" y="37" fill="#172634" width="1" height="2"/>
		<polygon fill="#172634" points="58,38 58,37 59,37 59,36 60,36 60,34 58,34 58,35 57,35 57,36 56,36 56,38 		"/>
		<rect x="39" y="37" fill="#172634" width="2" height="2"/>
		<rect x="26" y="36" fill="#172634" width="2" height="2"/>
		<polygon fill="#172634" points="20,37 19,37 19,36 18,36 18,37 17,37 17,39 19,39 19,38 20,38 		"/>
		<path fill="#172634" d="M12,38h-2v1H8v-1H7v-2H6v-1H4v2h1v1h1v1H4v1H3v1H2v-1H0v3h3v-1h1v1h2v1H5v2h1v1H4v2h1v1h1v1H5v2h1v1h2v-2
			H7v-1h1v-1h2v2H9v1h1v1h3v-1h1v-2h-1v-1h-1v-3h2v1h2v-2h-1v-1h-2v1h-1v-2h-1v-1h-1v-2h1v-1h2v2h2v-1h1v-3h-1v1h-1v-1h-1v-1h-1V38z
			 M8,45H7v-1h1V45z M6,48h1v1H6V48z M11,47h-1v1H9v-1H8v-1h1v-1h1v1h1V47z M9,42H8v1H7v-1H6v-1h1v-1h1v1h1V42z"/>
		<polygon fill="#172634" points="53,37 53,38 55,38 55,36 54,36 54,35 53,35 53,34 51,34 51,36 52,36 52,37 		"/>
		<rect x="13" y="36" fill="#172634" width="1" height="1"/>
		<polygon fill="#172634" points="48,34 46,34 46,35 45,35 45,37 47,37 47,36 48,36 		"/>
		<polygon fill="#172634" points="2,36 2,35 3,35 3,33 1,33 1,34 0,34 0,36 		"/>
		<polygon fill="#172634" points="44,35 44,33 43,33 43,32 41,32 41,34 42,34 42,35 		"/>
		<polygon fill="#172634" points="19,35 19,34 20,34 20,35 21,35 21,36 20,36 20,37 22,37 22,36 23,36 23,37 25,37 25,36 26,36 
			26,34 24,34 24,35 22,35 22,34 21,34 21,33 20,33 20,32 19,32 19,31 17,31 17,33 14,33 14,36 15,36 15,37 16,37 16,36 18,36 
			18,35 		"/>
		<rect x="55" y="33" fill="#172634" width="2" height="2"/>
		<polygon fill="#172634" points="51,33 51,32 52,32 52,30 50,30 50,31 49,31 49,33 		"/>
		<polygon fill="#172634" points="30,33 30,32 31,32 31,30 29,30 29,31 28,31 28,33 		"/>
		<polygon fill="#172634" points="60,31 60,33 61,33 61,34 63,34 63,32 62,32 62,31 		"/>
		<polygon fill="#172634" points="28,30 28,28 27,28 27,27 26,27 26,26 24,26 24,28 25,28 25,29 26,29 26,30 		"/>
		<rect x="23" y="29" fill="#172634" width="2" height="2"/>
		<polygon fill="#172634" points="14,28 14,29 13,29 13,31 15,31 15,30 16,30 16,28 		"/>
		<polygon fill="#172634" points="12,29 12,27 11,27 11,28 10,28 10,29 		"/>
		<polygon fill="#172634" points="3,28 3,29 2,29 2,31 4,31 4,30 5,30 5,28 		"/>
		<polygon fill="#172634" points="58,26 58,28 57,28 57,27 55,27 55,29 56,29 56,30 58,30 58,29 59,29 59,28 60,28 60,26 		"/>
		<polygon fill="#172634" points="35,27 35,25 34,25 34,24 33,24 33,23 31,23 31,25 32,25 32,26 33,26 33,27 		"/>
		<polygon fill="#172634" points="17,27 17,25 16,25 16,24 14,24 14,26 15,26 15,27 		"/>
		<polygon fill="#172634" points="63,25 62,25 62,26 61,26 61,28 63,28 63,27 64,27 64,24 63,24 		"/>
		<path fill="#172634" d="M43,25h-1v1h-1v1h-1v2h1v1h1v1h3v-1h1v1h2v-1h1v-1h1v-1h-1v-1h2v-2h-2v1h-1v-2h-2v1h-1v-1h-2V25z M46,27
			v-1h1v1H46v1h-1v1h-1v-1h-1v-1h1v-1h1v1H46z"/>
		<rect x="25" y="23" fill="#172634" width="2" height="2"/>
		<rect x="58" y="23" fill="#172634" width="1" height="1"/>
		<polygon fill="#172634" points="39,24 38,24 38,25 37,25 37,27 39,27 39,26 40,26 40,25 41,25 41,23 39,23 		"/>
		<polygon fill="#172634" points="1,24 3,24 3,22 2,22 2,21 0,21 0,23 1,23 		"/>
		<rect x="62" y="22" fill="#172634" width="1" height="1"/>
		<polygon fill="#172634" points="45,23 47,23 47,21 46,21 46,20 44,20 44,22 45,22 		"/>
		<rect x="4" y="22" fill="#172634" width="1" height="1"/>
		<polygon fill="#172634" points="42,22 42,21 43,21 43,19 41,19 41,20 40,20 40,22 		"/>
		<rect x="5" y="20" fill="#172634" width="2" height="2"/>
		<polygon fill="#172634" points="55,21 56,21 56,22 58,22 58,20 57,20 57,19 55,19 		"/>
		<polygon fill="#172634" points="34,21 35,21 35,22 37,22 37,21 38,21 38,19 37,19 37,18 35,18 35,19 34,19 		"/>
		<polygon fill="#172634" points="13,20 15,20 15,18 14,18 14,17 12,17 12,19 13,19 		"/>
		<polygon fill="#172634" points="10,20 10,18 9,18 9,17 7,17 7,19 8,19 8,20 		"/>
		<path fill="#172634" d="M47,19v-1h3v-2h-1v-1h1v1h1v-1h1v-1h1v-2h2v2h2v-1h1v-1h1v-2h-1V9h1V7h-1V6h1V5h1V4h1V2h-2v1h-1v1h-1v1h-1
			V4h-1V3h-1V2h-2v2h1v1h1v1h1v1h-1V6h-1v1h-1v1h1v1h-1v1h-1v1h-1v1h-2v2h-1v2h-1v1h-1v2H47z M54,11v-1h1v1H54z M57,11h-1v-1h1V11z
			 M51,13v1h-1v-1H51z"/>
		<polygon fill="#172634" points="1,19 3,19 3,17 2,17 2,16 0,16 0,18 1,18 		"/>
		<polygon fill="#172634" points="63,18 62,18 62,20 64,20 64,17 63,17 		"/>
		<rect x="52" y="16" fill="#172634" width="2" height="2"/>
		<rect x="55" y="15" fill="#172634" width="2" height="1"/>
		<rect x="16" y="13" fill="#172634" width="2" height="2"/>
		<polygon fill="#172634" points="6,14 8,14 8,12 7,12 7,11 5,11 5,13 6,13 		"/>
		<polygon fill="#172634" points="2,14 2,13 3,13 3,11 1,11 1,12 0,12 0,14 		"/>
		<polygon fill="#172634" points="63,12 62,12 62,11 60,11 60,13 61,13 61,14 62,14 62,15 64,15 64,13 63,13 		"/>
		<polygon fill="#172634" points="32,12 31,12 31,14 33,14 33,13 34,13 34,11 32,11 		"/>
		<rect x="46" y="10" fill="#172634" width="2" height="2"/>
		<path fill="#172634" d="M18,11h1v1h1v1h1v1h-2v1h1v1h-1v2h-1v-1h-2v2h1v1h1v1h4v2h-1v1h-1v2h1v1h-1v1h-1v2h2v-1h1v-1h1v-2h-1v-1h1
			v-1h1v-4h1v-2h-1v-1h1v-1h1v-1h2v-2h-1v-1h1v-2h2V9h-1V8h2V7h1V5h-2v1h-1v1h-1v1h-1v1h-2v1h-1v1h-1v1h-1v-1h-1v-1h-1V9h-2V11z
			 M21,15h1v1h-1V15z M23,19h-1v1h-1v-1h-1v-1h1v-1h1v1h1V19z M24,13v-1h1v1h1v1h-1v1h-1v-1h-1v-1H24z"/>
		<polygon fill="#172634" points="49,9 49,7 47,7 47,8 48,8 48,9 		"/>
		<polygon fill="#172634" points="15,9 17,9 17,7 16,7 16,6 14,6 14,8 15,8 		"/>
		<polygon fill="#172634" points="20,8 22,8 22,6 21,6 21,5 19,5 19,7 20,7 		"/>
		<polygon fill="#172634" points="2,7 2,8 1,8 1,10 3,10 3,9 4,9 4,7 		"/>
		<polygon fill="#172634" points="25,7 27,7 27,5 26,5 26,4 24,4 24,6 25,6 		"/>
		<rect x="9" y="6" fill="#172634" width="2" height="2"/>
		<rect x="63" y="5" fill="#172634" width="1" height="2"/>
		<polygon fill="#172634" points="46,5 48,5 48,3 47,3 47,2 45,2 45,4 46,4 		"/>
		<polygon fill="#172634" points="1,5 3,5 3,3 2,3 2,2 0,2 0,4 1,4 		"/>
		<polygon fill="#172634" points="6,4 7,4 7,5 9,5 9,3 8,3 8,2 7,2 7,1 5,1 5,3 6,3 		"/>
		<rect x="55" y="1" fill="#172634" width="2" height="2"/>
		<polygon fill="#172634" points="50,2 51,2 51,1 52,1 52,0 49,0 49,3 50,3 		"/>
		<polygon fill="#172634" points="28,3 30,3 30,1 29,1 29,0 27,0 27,2 28,2 		"/>
		<rect x="37" fill="#172634" width="2" height="2"/>
		<polygon fill="#172634" points="17,2 18,2 18,0 16,0 16,1 17,1 		"/>
		<rect x="10" y="1" fill="#172634" width="1" height="1"/>
		<rect x="61" fill="#172634" width="2" height="1"/>
	</g>
</g>
</svg>
